# MagicaVoxel @ Ephtracy

# group
g chef

# material
mtllib chef.mtl
usemtl palette

# normals
vn -1 0 0
vn 1 0 0
vn 0 0 1
vn 0 0 -1
vn 0 -1 0
vn 0 1 0

# texcoords
vt 0.0332031 0.5
vt 0.0605469 0.5
vt 0.587891 0.5
vt 0.958984 0.5
vt 0.970703 0.5
vt 0.994141 0.5

# verts
v -7 6 1
v -7 6 -1
v -7 7 1
v -7 7 -1
v -7 11 1
v -7 11 -1
v -6 11 1
v -6 11 -1
v -6 12 1
v -6 12 -1
v -6 14 3
v -6 14 -4
v -6 18 4
v -6 18 3
v -6 19 4
v -6 19 -4
v -6 22 4
v -6 22 -4
v -6 26 4
v -6 26 -4
v -5 4 2
v -5 4 -2
v -5 5 4
v -5 5 2
v -5 5 -2
v -5 5 -4
v -5 6 1
v -5 6 -1
v -5 7 1
v -5 7 -1
v -5 11 4
v -5 11 1
v -5 11 -1
v -5 11 -4
v -5 12 1
v -5 12 -1
v -5 14 3
v -5 14 -4
v -5 14 -5
v -5 18 4
v -5 18 3
v -5 19 4
v -5 19 -4
v -5 19 -5
v -5 22 5
v -5 22 4
v -5 22 -4
v -5 22 -5
v -5 26 5
v -5 26 4
v -5 26 -4
v -5 26 -5
v -4 3 2
v -4 3 -2
v -4 4 4
v -4 4 2
v -4 4 -2
v -4 4 -4
v -4 5 4
v -4 5 2
v -4 5 -2
v -4 5 -4
v -3 0 1
v -3 0 -1
v -3 3 1
v -3 3 -1
v -3 11 5
v -3 11 4
v -3 12 5
v -3 12 4
v -3 17 5
v -3 17 4
v -3 18 5
v -3 18 4
v -2 12 5
v -2 12 4
v -2 13 5
v -2 13 4
v -1 13 6
v -1 13 5
v -1 13 4
v -1 13 -4
v -1 13 -5
v -1 14 6
v -1 14 4
v -1 14 -4
v -1 14 -5
v 1 0 1
v 1 0 -1
v 1 3 1
v 1 3 -1
v 1 11 5
v 1 11 4
v 1 12 5
v 1 12 4
v 1 17 5
v 1 17 4
v 1 18 5
v 1 18 4
v -1 0 1
v -1 0 -1
v -1 3 1
v -1 3 -1
v -1 11 5
v -1 11 4
v -1 12 5
v -1 12 4
v -1 17 5
v -1 17 4
v -1 18 5
v -1 18 4
v 1 13 6
v 1 13 5
v 1 13 4
v 1 13 -4
v 1 13 -5
v 1 14 6
v 1 14 4
v 1 14 -4
v 1 14 -5
v 2 12 5
v 2 12 4
v 2 13 5
v 2 13 4
v 3 0 1
v 3 0 -1
v 3 3 1
v 3 3 -1
v 3 11 5
v 3 11 4
v 3 12 5
v 3 12 4
v 3 17 5
v 3 17 4
v 3 18 5
v 3 18 4
v 4 3 2
v 4 3 -2
v 4 4 4
v 4 4 2
v 4 4 -2
v 4 4 -4
v 4 5 4
v 4 5 2
v 4 5 -2
v 4 5 -4
v 5 4 2
v 5 4 -2
v 5 5 4
v 5 5 2
v 5 5 -2
v 5 5 -4
v 5 6 1
v 5 6 -1
v 5 7 1
v 5 7 -1
v 5 11 4
v 5 11 1
v 5 11 -1
v 5 11 -4
v 5 12 1
v 5 12 -1
v 5 14 3
v 5 14 -4
v 5 14 -5
v 5 18 4
v 5 18 3
v 5 19 4
v 5 19 -4
v 5 19 -5
v 5 22 5
v 5 22 4
v 5 22 -4
v 5 22 -5
v 5 26 5
v 5 26 4
v 5 26 -4
v 5 26 -5
v 6 11 1
v 6 11 -1
v 6 12 1
v 6 12 -1
v 6 14 3
v 6 14 -4
v 6 18 4
v 6 18 3
v 6 19 4
v 6 19 -4
v 6 22 4
v 6 22 -4
v 6 26 4
v 6 26 -4
v 7 6 1
v 7 6 -1
v 7 7 1
v 7 7 -1
v 7 11 1
v 7 11 -1
v -1 13 6
v -1 14 6
v 1 13 6
v 1 14 6
v -5 22 5
v -5 26 5
v -3 11 5
v -3 12 5
v -3 17 5
v -3 18 5
v -2 12 5
v -2 13 5
v -1 11 5
v -1 12 5
v -1 13 5
v -1 17 5
v -1 18 5
v 1 11 5
v 1 12 5
v 1 13 5
v 1 17 5
v 1 18 5
v 2 12 5
v 2 13 5
v 3 11 5
v 3 12 5
v 3 17 5
v 3 18 5
v 5 22 5
v 5 26 5
v -6 18 4
v -6 19 4
v -6 22 4
v -6 26 4
v -5 5 4
v -5 11 4
v -5 18 4
v -5 19 4
v -5 22 4
v -5 26 4
v -4 4 4
v -4 5 4
v -3 11 4
v -3 12 4
v -3 17 4
v -3 18 4
v -2 12 4
v -2 13 4
v -2 14 4
v -2 16 4
v -1 11 4
v -1 12 4
v -1 13 4
v -1 14 4
v -1 16 4
v -1 17 4
v -1 18 4
v 1 11 4
v 1 12 4
v 1 13 4
v 1 14 4
v 1 16 4
v 1 17 4
v 1 18 4
v 2 5 4
v 2 6 4
v 2 7 4
v 2 8 4
v 2 9 4
v 2 10 4
v 2 12 4
v 2 13 4
v 2 14 4
v 2 16 4
v 3 5 4
v 3 6 4
v 3 7 4
v 3 8 4
v 3 9 4
v 3 10 4
v 3 11 4
v 3 12 4
v 3 17 4
v 3 18 4
v 4 4 4
v 4 5 4
v 5 5 4
v 5 11 4
v 5 18 4
v 5 19 4
v 5 22 4
v 5 26 4
v 6 18 4
v 6 19 4
v 6 22 4
v 6 26 4
v -6 14 3
v -6 18 3
v -5 14 3
v -5 18 3
v 5 14 3
v 5 18 3
v 6 14 3
v 6 18 3
v -5 4 2
v -5 5 2
v -4 3 2
v -4 4 2
v -4 5 2
v 4 3 2
v 4 4 2
v 4 5 2
v 5 4 2
v 5 5 2
v -7 6 1
v -7 7 1
v -7 11 1
v -6 11 1
v -6 12 1
v -5 6 1
v -5 7 1
v -5 11 1
v -5 12 1
v -3 0 1
v -3 3 1
v -1 0 1
v -1 3 1
v 1 0 1
v 1 3 1
v 3 0 1
v 3 3 1
v 5 6 1
v 5 7 1
v 5 11 1
v 5 12 1
v 6 11 1
v 6 12 1
v 7 6 1
v 7 7 1
v 7 11 1
v -7 6 -1
v -7 7 -1
v -7 11 -1
v -6 11 -1
v -6 12 -1
v -5 6 -1
v -5 7 -1
v -5 11 -1
v -5 12 -1
v -3 0 -1
v -3 3 -1
v -1 0 -1
v -1 3 -1
v 1 0 -1
v 1 3 -1
v 3 0 -1
v 3 3 -1
v 5 6 -1
v 5 7 -1
v 5 11 -1
v 5 12 -1
v 6 11 -1
v 6 12 -1
v 7 6 -1
v 7 7 -1
v 7 11 -1
v -5 4 -2
v -5 5 -2
v -4 3 -2
v -4 4 -2
v -4 5 -2
v 4 3 -2
v 4 4 -2
v 4 5 -2
v 5 4 -2
v 5 5 -2
v -6 14 -4
v -6 19 -4
v -6 22 -4
v -6 26 -4
v -5 5 -4
v -5 11 -4
v -5 14 -4
v -5 19 -4
v -5 22 -4
v -5 26 -4
v -4 4 -4
v -4 5 -4
v -1 13 -4
v -1 14 -4
v 1 13 -4
v 1 14 -4
v 4 4 -4
v 4 5 -4
v 5 5 -4
v 5 11 -4
v 5 14 -4
v 5 19 -4
v 5 22 -4
v 5 26 -4
v 6 14 -4
v 6 19 -4
v 6 22 -4
v 6 26 -4
v -5 14 -5
v -5 19 -5
v -5 22 -5
v -5 26 -5
v -1 13 -5
v -1 14 -5
v 1 13 -5
v 1 14 -5
v 5 14 -5
v 5 19 -5
v 5 22 -5
v 5 26 -5
v -3 0 1
v -1 0 1
v 1 0 1
v 3 0 1
v -3 0 -1
v -1 0 -1
v 1 0 -1
v 3 0 -1
v -4 3 2
v 4 3 2
v -3 3 1
v -1 3 1
v 1 3 1
v 3 3 1
v -3 3 -1
v -1 3 -1
v 1 3 -1
v 3 3 -1
v -4 3 -2
v 4 3 -2
v -4 4 4
v 4 4 4
v -5 4 2
v -4 4 2
v 4 4 2
v 5 4 2
v -5 4 -2
v -4 4 -2
v 4 4 -2
v 5 4 -2
v -4 4 -4
v 4 4 -4
v -5 5 4
v -4 5 4
v 4 5 4
v 5 5 4
v -5 5 2
v -4 5 2
v 4 5 2
v 5 5 2
v -5 5 -2
v -4 5 -2
v 4 5 -2
v 5 5 -2
v -5 5 -4
v -4 5 -4
v 4 5 -4
v 5 5 -4
v -7 6 1
v -5 6 1
v 5 6 1
v 7 6 1
v -7 6 -1
v -5 6 -1
v 5 6 -1
v 7 6 -1
v -3 11 5
v -1 11 5
v 1 11 5
v 3 11 5
v -3 11 4
v -1 11 4
v 1 11 4
v 3 11 4
v -1 12 5
v 1 12 5
v -1 12 4
v 1 12 4
v -1 13 6
v 1 13 6
v -1 13 5
v 1 13 5
v -1 13 -4
v 1 13 -4
v -1 13 -5
v 1 13 -5
v -6 14 3
v -5 14 3
v 5 14 3
v 6 14 3
v -6 14 -4
v -5 14 -4
v -1 14 -4
v 1 14 -4
v 5 14 -4
v 6 14 -4
v -5 14 -5
v -1 14 -5
v 1 14 -5
v 5 14 -5
v -3 17 5
v -1 17 5
v 1 17 5
v 3 17 5
v -3 17 4
v -1 17 4
v 1 17 4
v 3 17 4
v -6 18 4
v -5 18 4
v 5 18 4
v 6 18 4
v -6 18 3
v -5 18 3
v 5 18 3
v 6 18 3
v -5 22 5
v 5 22 5
v -6 22 4
v -5 22 4
v 5 22 4
v 6 22 4
v -6 22 -4
v -5 22 -4
v 5 22 -4
v 6 22 -4
v -5 22 -5
v 5 22 -5
v -7 11 1
v -6 11 1
v 6 11 1
v 7 11 1
v -7 11 -1
v -6 11 -1
v 6 11 -1
v 7 11 -1
v -3 12 5
v -2 12 5
v 2 12 5
v 3 12 5
v -3 12 4
v -2 12 4
v 2 12 4
v 3 12 4
v -6 12 1
v -5 12 1
v 5 12 1
v 6 12 1
v -6 12 -1
v -5 12 -1
v 5 12 -1
v 6 12 -1
v -2 13 5
v -1 13 5
v 1 13 5
v 2 13 5
v -2 13 4
v -1 13 4
v 1 13 4
v 2 13 4
v -1 14 6
v 1 14 6
v -1 14 4
v 1 14 4
v -3 18 5
v -1 18 5
v 1 18 5
v 3 18 5
v -3 18 4
v -1 18 4
v 1 18 4
v 3 18 4
v -6 19 4
v -5 19 4
v 5 19 4
v 6 19 4
v -6 19 -4
v -5 19 -4
v 5 19 -4
v 6 19 -4
v -5 19 -5
v 5 19 -5
v -5 26 5
v 5 26 5
v -6 26 4
v -5 26 4
v 5 26 4
v 6 26 4
v -6 26 -4
v -5 26 -4
v 5 26 -4
v 6 26 -4
v -5 26 -5
v 5 26 -5

# faces
f 3/1/1 2/1/1 1/1/1
f 4/1/1 2/1/1 3/1/1
f 5/4/1 4/4/1 3/4/1
f 6/4/1 4/4/1 5/4/1
f 9/4/1 8/4/1 7/4/1
f 10/4/1 8/4/1 9/4/1
f 14/6/1 12/6/1 11/6/1
f 15/6/1 14/6/1 13/6/1
f 16/6/1 12/6/1 14/6/1
f 16/6/1 14/6/1 15/6/1
f 19/4/1 18/4/1 17/4/1
f 20/4/1 18/4/1 19/4/1
f 24/4/1 22/4/1 21/4/1
f 25/4/1 22/4/1 24/4/1
f 27/4/1 24/4/1 23/4/1
f 27/4/1 26/4/1 25/4/1
f 27/4/1 25/4/1 24/4/1
f 28/4/1 26/4/1 27/4/1
f 29/4/1 27/4/1 23/4/1
f 30/4/1 26/4/1 28/4/1
f 31/4/1 29/4/1 23/4/1
f 32/4/1 29/4/1 31/4/1
f 33/4/1 26/4/1 30/4/1
f 34/4/1 26/4/1 33/4/1
f 35/1/1 32/1/1 31/1/1
f 36/1/1 34/1/1 33/1/1
f 37/1/1 35/1/1 31/1/1
f 37/1/1 36/1/1 35/1/1
f 38/1/1 34/1/1 36/1/1
f 38/1/1 36/1/1 37/1/1
f 40/1/1 37/1/1 31/1/1
f 41/1/1 37/1/1 40/1/1
f 43/6/1 39/6/1 38/6/1
f 44/6/1 39/6/1 43/6/1
f 46/4/1 43/4/1 42/4/1
f 47/4/1 43/4/1 46/4/1
f 49/4/1 46/4/1 45/4/1
f 50/4/1 46/4/1 49/4/1
f 51/4/1 48/4/1 47/4/1
f 52/4/1 48/4/1 51/4/1
f 56/4/1 54/4/1 53/4/1
f 57/4/1 54/4/1 56/4/1
f 59/4/1 56/4/1 55/4/1
f 60/4/1 56/4/1 59/4/1
f 61/4/1 58/4/1 57/4/1
f 62/4/1 58/4/1 61/4/1
f 65/4/1 64/4/1 63/4/1
f 66/4/1 64/4/1 65/4/1
f 69/6/1 68/6/1 67/6/1
f 70/6/1 68/6/1 69/6/1
f 73/6/1 72/6/1 71/6/1
f 74/6/1 72/6/1 73/6/1
f 77/6/1 76/6/1 75/6/1
f 78/6/1 76/6/1 77/6/1
f 84/1/1 80/1/1 79/1/1
f 84/1/1 81/1/1 80/1/1
f 85/1/1 81/1/1 84/1/1
f 86/6/1 83/6/1 82/6/1
f 87/6/1 83/6/1 86/6/1
f 90/4/1 89/4/1 88/4/1
f 91/4/1 89/4/1 90/4/1
f 94/6/1 93/6/1 92/6/1
f 95/6/1 93/6/1 94/6/1
f 98/6/1 97/6/1 96/6/1
f 99/6/1 97/6/1 98/6/1
f 100/4/2 101/4/2 102/4/2
f 102/4/2 101/4/2 103/4/2
f 104/6/2 105/6/2 106/6/2
f 106/6/2 105/6/2 107/6/2
f 108/6/2 109/6/2 110/6/2
f 110/6/2 109/6/2 111/6/2
f 112/1/2 113/1/2 117/1/2
f 113/1/2 114/1/2 117/1/2
f 117/1/2 114/1/2 118/1/2
f 115/6/2 116/6/2 119/6/2
f 119/6/2 116/6/2 120/6/2
f 121/6/2 122/6/2 123/6/2
f 123/6/2 122/6/2 124/6/2
f 125/4/2 126/4/2 127/4/2
f 127/4/2 126/4/2 128/4/2
f 129/6/2 130/6/2 131/6/2
f 131/6/2 130/6/2 132/6/2
f 133/6/2 134/6/2 135/6/2
f 135/6/2 134/6/2 136/6/2
f 137/4/2 138/4/2 140/4/2
f 140/4/2 138/4/2 141/4/2
f 139/4/2 140/4/2 143/4/2
f 143/4/2 140/4/2 144/4/2
f 141/4/2 142/4/2 145/4/2
f 145/4/2 142/4/2 146/4/2
f 147/4/2 148/4/2 150/4/2
f 150/4/2 148/4/2 151/4/2
f 149/4/2 150/4/2 153/4/2
f 151/4/2 152/4/2 153/4/2
f 150/4/2 151/4/2 153/4/2
f 153/4/2 152/4/2 154/4/2
f 149/4/2 153/4/2 155/4/2
f 154/4/2 152/4/2 156/4/2
f 149/4/2 155/4/2 157/4/2
f 157/4/2 155/4/2 158/4/2
f 156/4/2 152/4/2 159/4/2
f 159/4/2 152/4/2 160/4/2
f 157/1/2 158/1/2 161/1/2
f 159/1/2 160/1/2 162/1/2
f 157/1/2 161/1/2 163/1/2
f 161/1/2 162/1/2 163/1/2
f 162/1/2 160/1/2 164/1/2
f 163/1/2 162/1/2 164/1/2
f 157/1/2 163/1/2 166/1/2
f 166/1/2 163/1/2 167/1/2
f 164/6/2 165/6/2 169/6/2
f 169/6/2 165/6/2 170/6/2
f 168/4/2 169/4/2 172/4/2
f 172/4/2 169/4/2 173/4/2
f 171/4/2 172/4/2 175/4/2
f 175/4/2 172/4/2 176/4/2
f 173/4/2 174/4/2 177/4/2
f 177/4/2 174/4/2 178/4/2
f 179/4/2 180/4/2 181/4/2
f 181/4/2 180/4/2 182/4/2
f 183/6/2 184/6/2 186/6/2
f 185/6/2 186/6/2 187/6/2
f 186/6/2 184/6/2 188/6/2
f 187/6/2 186/6/2 188/6/2
f 189/4/2 190/4/2 191/4/2
f 191/4/2 190/4/2 192/4/2
f 193/1/2 194/1/2 195/1/2
f 195/1/2 194/1/2 196/1/2
f 195/4/2 196/4/2 197/4/2
f 197/4/2 196/4/2 198/4/2
f 201/1/3 200/1/3 199/1/3
f 202/1/3 200/1/3 201/1/3
f 209/6/3 206/6/3 205/6/3
f 211/6/3 209/6/3 205/6/3
f 211/6/3 210/6/3 209/6/3
f 212/6/3 210/6/3 211/6/3
f 213/6/3 210/6/3 212/6/3
f 214/6/3 208/6/3 207/6/3
f 215/6/3 208/6/3 214/6/3
f 217/6/3 213/6/3 212/6/3
f 218/6/3 213/6/3 217/6/3
f 221/6/3 217/6/3 216/6/3
f 221/6/3 218/6/3 217/6/3
f 222/6/3 218/6/3 221/6/3
f 223/6/3 221/6/3 216/6/3
f 224/6/3 221/6/3 223/6/3
f 225/6/3 220/6/3 219/6/3
f 226/6/3 220/6/3 225/6/3
f 227/4/3 204/4/3 203/4/3
f 228/4/3 204/4/3 227/4/3
f 235/6/3 230/6/3 229/6/3
f 236/6/3 230/6/3 235/6/3
f 237/4/3 232/4/3 231/4/3
f 238/4/3 232/4/3 237/4/3
f 240/4/3 234/4/3 233/4/3
f 241/1/3 236/1/3 235/1/3
f 241/4/3 240/4/3 239/4/3
f 241/4/3 234/4/3 240/4/3
f 241/1/3 235/1/3 234/1/3
f 242/1/3 236/1/3 241/1/3
f 243/1/3 236/1/3 242/1/3
f 244/1/3 236/1/3 243/1/3
f 245/1/3 243/1/3 242/1/3
f 246/1/3 243/1/3 245/1/3
f 247/1/3 243/1/3 246/1/3
f 248/1/3 243/1/3 247/1/3
f 249/4/3 241/4/3 239/4/3
f 251/1/3 247/1/3 246/1/3
f 252/6/3 248/6/3 247/6/3
f 252/1/3 247/1/3 251/1/3
f 253/1/3 243/1/3 248/1/3
f 253/6/3 248/6/3 252/6/3
f 254/1/3 243/1/3 253/1/3
f 255/1/3 236/1/3 244/1/3
f 256/1/3 250/1/3 249/1/3
f 256/4/3 249/4/3 239/4/3
f 257/1/3 250/1/3 256/1/3
f 259/1/3 255/1/3 254/1/3
f 259/1/3 254/1/3 253/1/3
f 259/1/3 253/1/3 252/1/3
f 260/1/3 255/1/3 259/1/3
f 261/1/3 255/1/3 260/1/3
f 262/1/3 236/1/3 255/1/3
f 262/1/3 255/1/3 261/1/3
f 263/4/3 256/4/3 239/4/3
f 264/4/3 256/4/3 263/4/3
f 265/4/3 256/4/3 264/4/3
f 266/4/3 256/4/3 265/4/3
f 267/4/3 256/4/3 266/4/3
f 268/4/3 256/4/3 267/4/3
f 270/1/3 259/1/3 258/1/3
f 271/6/3 260/6/3 259/6/3
f 271/1/3 259/1/3 270/1/3
f 272/1/3 261/1/3 260/1/3
f 272/6/3 260/6/3 271/6/3
f 273/4/3 263/4/3 239/4/3
f 273/6/3 264/6/3 263/6/3
f 274/4/3 265/4/3 264/4/3
f 274/6/3 264/6/3 273/6/3
f 275/6/3 266/6/3 265/6/3
f 275/4/3 265/4/3 274/4/3
f 276/4/3 267/4/3 266/4/3
f 276/6/3 266/6/3 275/6/3
f 277/6/3 268/6/3 267/6/3
f 277/4/3 267/4/3 276/4/3
f 278/4/3 256/4/3 268/4/3
f 278/6/3 268/6/3 277/6/3
f 279/4/3 256/4/3 278/4/3
f 280/1/3 270/1/3 269/1/3
f 280/1/3 271/1/3 270/1/3
f 280/1/3 272/1/3 271/1/3
f 281/1/3 261/1/3 272/1/3
f 281/1/3 272/1/3 280/1/3
f 282/1/3 236/1/3 262/1/3
f 283/4/3 279/4/3 278/4/3
f 283/4/3 278/4/3 277/4/3
f 283/4/3 277/4/3 276/4/3
f 283/4/3 273/4/3 239/4/3
f 283/4/3 274/4/3 273/4/3
f 283/4/3 276/4/3 275/4/3
f 283/4/3 275/4/3 274/4/3
f 284/4/3 279/4/3 283/4/3
f 285/4/3 279/4/3 284/4/3
f 286/1/3 281/1/3 280/1/3
f 286/4/3 279/4/3 285/4/3
f 286/1/3 282/1/3 281/1/3
f 286/1/3 280/1/3 279/1/3
f 287/1/3 236/1/3 282/1/3
f 287/1/3 282/1/3 286/1/3
f 288/4/3 237/4/3 236/4/3
f 288/1/3 236/1/3 287/1/3
f 289/4/3 237/4/3 288/4/3
f 291/6/3 288/6/3 287/6/3
f 292/6/3 288/6/3 291/6/3
f 293/4/3 290/4/3 289/4/3
f 294/4/3 290/4/3 293/4/3
f 297/6/3 296/6/3 295/6/3
f 298/6/3 296/6/3 297/6/3
f 301/6/3 300/6/3 299/6/3
f 302/6/3 300/6/3 301/6/3
f 306/4/3 304/4/3 303/4/3
f 307/4/3 304/4/3 306/4/3
f 308/4/3 306/4/3 305/4/3
f 309/4/3 306/4/3 308/4/3
f 311/4/3 310/4/3 309/4/3
f 312/4/3 310/4/3 311/4/3
f 316/4/3 315/4/3 314/4/3
f 318/1/3 314/1/3 313/1/3
f 319/4/3 317/4/3 316/4/3
f 319/1/3 314/1/3 318/1/3
f 319/4/3 316/4/3 314/4/3
f 320/4/3 317/4/3 319/4/3
f 321/4/3 317/4/3 320/4/3
f 324/4/3 323/4/3 322/4/3
f 325/4/3 323/4/3 324/4/3
f 328/4/3 327/4/3 326/4/3
f 329/4/3 327/4/3 328/4/3
f 334/4/3 332/4/3 331/4/3
f 334/4/3 333/4/3 332/4/3
f 335/4/3 333/4/3 334/4/3
f 336/1/3 331/1/3 330/1/3
f 337/4/3 334/4/3 331/4/3
f 337/1/3 331/1/3 336/1/3
f 338/4/3 334/4/3 337/4/3
f 340/4/4 341/4/4 342/4/4
f 339/1/4 340/1/4 344/1/4
f 342/4/4 343/4/4 345/4/4
f 344/1/4 340/1/4 345/1/4
f 340/4/4 342/4/4 345/4/4
f 345/4/4 343/4/4 346/4/4
f 346/4/4 343/4/4 347/4/4
f 348/4/4 349/4/4 350/4/4
f 350/4/4 349/4/4 351/4/4
f 352/4/4 353/4/4 354/4/4
f 354/4/4 353/4/4 355/4/4
f 357/4/4 358/4/4 360/4/4
f 358/4/4 359/4/4 360/4/4
f 360/4/4 359/4/4 361/4/4
f 356/1/4 357/1/4 362/1/4
f 357/4/4 360/4/4 363/4/4
f 362/1/4 357/1/4 363/1/4
f 363/4/4 360/4/4 364/4/4
f 365/4/4 366/4/4 368/4/4
f 368/4/4 366/4/4 369/4/4
f 367/4/4 368/4/4 370/4/4
f 370/4/4 368/4/4 371/4/4
f 371/4/4 372/4/4 373/4/4
f 373/4/4 372/4/4 374/4/4
f 375/6/4 376/6/4 381/6/4
f 381/6/4 376/6/4 382/6/4
f 377/4/4 378/4/4 383/4/4
f 383/4/4 378/4/4 384/4/4
f 379/4/4 380/4/4 386/4/4
f 380/1/4 381/1/4 387/1/4
f 387/1/4 381/1/4 388/1/4
f 380/1/4 387/1/4 389/1/4
f 385/4/4 386/4/4 391/4/4
f 386/4/4 380/4/4 392/4/4
f 391/4/4 386/4/4 392/4/4
f 392/4/4 380/4/4 393/4/4
f 389/1/4 390/1/4 394/1/4
f 393/4/4 380/4/4 394/4/4
f 380/1/4 389/1/4 394/1/4
f 394/1/4 390/1/4 395/1/4
f 382/4/4 383/4/4 396/4/4
f 396/4/4 383/4/4 397/4/4
f 395/6/4 396/6/4 399/6/4
f 399/6/4 396/6/4 400/6/4
f 397/4/4 398/4/4 401/4/4
f 401/4/4 398/4/4 402/4/4
f 403/6/4 404/6/4 408/6/4
f 407/6/4 408/6/4 409/6/4
f 408/6/4 404/6/4 410/6/4
f 409/6/4 408/6/4 410/6/4
f 410/6/4 404/6/4 411/6/4
f 411/6/4 404/6/4 412/6/4
f 405/4/4 406/4/4 413/4/4
f 413/4/4 406/4/4 414/4/4
f 419/4/5 416/4/5 415/4/5
f 420/4/5 416/4/5 419/4/5
f 421/4/5 418/4/5 417/4/5
f 422/4/5 418/4/5 421/4/5
f 425/4/5 424/4/5 423/4/5
f 426/4/5 424/4/5 425/4/5
f 427/4/5 424/4/5 426/4/5
f 428/4/5 424/4/5 427/4/5
f 429/4/5 425/4/5 423/4/5
f 430/4/5 427/4/5 426/4/5
f 431/4/5 427/4/5 430/4/5
f 432/4/5 424/4/5 428/4/5
f 433/4/5 431/4/5 430/4/5
f 433/4/5 432/4/5 431/4/5
f 433/4/5 429/4/5 423/4/5
f 433/4/5 430/4/5 429/4/5
f 434/4/5 424/4/5 432/4/5
f 434/4/5 432/4/5 433/4/5
f 438/4/5 436/4/5 435/4/5
f 439/4/5 436/4/5 438/4/5
f 441/4/5 438/4/5 437/4/5
f 442/4/5 438/4/5 441/4/5
f 443/4/5 440/4/5 439/4/5
f 444/4/5 440/4/5 443/4/5
f 445/4/5 443/4/5 442/4/5
f 446/4/5 443/4/5 445/4/5
f 451/4/5 448/4/5 447/4/5
f 452/4/5 448/4/5 451/4/5
f 453/4/5 450/4/5 449/4/5
f 454/4/5 450/4/5 453/4/5
f 459/4/5 456/4/5 455/4/5
f 460/4/5 456/4/5 459/4/5
f 461/4/5 458/4/5 457/4/5
f 462/4/5 458/4/5 461/4/5
f 467/1/5 464/1/5 463/1/5
f 468/1/5 464/1/5 467/1/5
f 469/1/5 466/1/5 465/1/5
f 470/1/5 466/1/5 469/1/5
f 475/6/5 472/6/5 471/6/5
f 476/6/5 472/6/5 475/6/5
f 477/6/5 474/6/5 473/6/5
f 478/6/5 474/6/5 477/6/5
f 481/6/5 480/6/5 479/6/5
f 482/6/5 480/6/5 481/6/5
f 485/1/5 484/1/5 483/1/5
f 486/1/5 484/1/5 485/1/5
f 489/6/5 488/6/5 487/6/5
f 490/6/5 488/6/5 489/6/5
f 495/6/5 492/6/5 491/6/5
f 496/6/5 492/6/5 495/6/5
f 499/6/5 494/6/5 493/6/5
f 500/6/5 494/6/5 499/6/5
f 501/6/5 497/6/5 496/6/5
f 502/6/5 497/6/5 501/6/5
f 503/6/5 499/6/5 498/6/5
f 504/6/5 499/6/5 503/6/5
f 509/6/5 506/6/5 505/6/5
f 510/6/5 506/6/5 509/6/5
f 511/6/5 508/6/5 507/6/5
f 512/6/5 508/6/5 511/6/5
f 517/6/5 514/6/5 513/6/5
f 518/6/5 514/6/5 517/6/5
f 519/6/5 516/6/5 515/6/5
f 520/6/5 516/6/5 519/6/5
f 524/4/5 522/4/5 521/4/5
f 525/4/5 522/4/5 524/4/5
f 527/4/5 524/4/5 523/4/5
f 528/4/5 524/4/5 527/4/5
f 529/4/5 526/4/5 525/4/5
f 530/4/5 526/4/5 529/4/5
f 531/4/5 529/4/5 528/4/5
f 532/4/5 529/4/5 531/4/5
f 533/4/6 534/4/6 537/4/6
f 537/4/6 534/4/6 538/4/6
f 535/4/6 536/4/6 539/4/6
f 539/4/6 536/4/6 540/4/6
f 541/6/6 542/6/6 545/6/6
f 545/6/6 542/6/6 546/6/6
f 543/6/6 544/6/6 547/6/6
f 547/6/6 544/6/6 548/6/6
f 549/4/6 550/4/6 553/4/6
f 553/4/6 550/4/6 554/4/6
f 551/4/6 552/4/6 555/4/6
f 555/4/6 552/4/6 556/4/6
f 557/6/6 558/6/6 561/6/6
f 561/6/6 558/6/6 562/6/6
f 559/6/6 560/6/6 563/6/6
f 563/6/6 560/6/6 564/6/6
f 565/1/6 566/1/6 567/1/6
f 567/1/6 566/1/6 568/1/6
f 569/6/6 570/6/6 573/6/6
f 573/6/6 570/6/6 574/6/6
f 571/6/6 572/6/6 575/6/6
f 575/6/6 572/6/6 576/6/6
f 577/6/6 578/6/6 581/6/6
f 581/6/6 578/6/6 582/6/6
f 579/6/6 580/6/6 583/6/6
f 583/6/6 580/6/6 584/6/6
f 582/6/6 583/6/6 585/6/6
f 585/6/6 583/6/6 586/6/6
f 587/4/6 588/4/6 590/4/6
f 590/4/6 588/4/6 591/4/6
f 589/4/6 590/4/6 593/4/6
f 591/4/6 592/4/6 593/4/6
f 590/4/6 591/4/6 593/4/6
f 593/4/6 592/4/6 594/4/6
f 594/4/6 592/4/6 595/4/6
f 595/4/6 592/4/6 596/4/6
f 594/4/6 595/4/6 597/4/6
f 597/4/6 595/4/6 598/4/6
