# MagicaVoxel @ Ephtracy

# group
g chef

# material
mtllib chef.mtl
usemtl palette

# normals
vn -1 0 0
vn 1 0 0
vn 0 0 1
vn 0 0 -1
vn 0 -1 0
vn 0 1 0

# texcoords
vt 0.0332031 0.5
vt 0.0605469 0.5
vt 0.587891 0.5
vt 0.958984 0.5
vt 0.970703 0.5
vt 0.994141 0.5

# verts
v -7 6 1
v -7 6 -1
v -7 7 1
v -7 7 -1
v -7 11 1
v -7 11 -1
v -6 11 1
v -6 11 -1
v -6 12 1
v -6 12 -1
v -6 14 3
v -6 14 -4
v -6 19 3
v -6 19 -4
v -6 22 4
v -6 22 -4
v -6 26 4
v -6 26 -4
v -5 4 2
v -5 4 -2
v -5 5 4
v -5 5 2
v -5 5 -2
v -5 5 -4
v -5 6 1
v -5 6 -1
v -5 7 1
v -5 7 -1
v -5 11 4
v -5 11 1
v -5 12 1
v -5 12 -1
v -5 12 -4
v -5 14 3
v -5 14 -4
v -5 14 -5
v -5 19 4
v -5 19 3
v -5 19 -4
v -5 19 -5
v -5 22 5
v -5 22 4
v -5 22 -4
v -5 22 -5
v -5 26 5
v -5 26 4
v -5 26 -4
v -5 26 -5
v -4 3 2
v -4 3 -2
v -4 4 4
v -4 4 2
v -4 4 -2
v -4 4 -4
v -4 5 4
v -4 5 2
v -4 5 -2
v -4 5 -4
v -3 0 1
v -3 0 -1
v -3 3 1
v -3 3 -1
v -3 11 5
v -3 11 4
v -3 12 5
v -3 12 4
v -3 17 5
v -3 17 4
v -3 18 5
v -3 18 4
v -2 12 5
v -2 12 4
v -2 13 5
v -2 13 4
v -1 13 6
v -1 13 5
v -1 13 4
v -1 13 -4
v -1 13 -5
v -1 14 6
v -1 14 4
v -1 14 -4
v -1 14 -5
v 1 0 1
v 1 0 -1
v 1 3 1
v 1 3 -1
v 1 11 5
v 1 11 4
v 1 12 5
v 1 12 4
v 1 17 5
v 1 17 4
v 1 18 5
v 1 18 4
v -1 0 1
v -1 0 -1
v -1 3 1
v -1 3 -1
v -1 11 5
v -1 11 4
v -1 12 5
v -1 12 4
v -1 17 5
v -1 17 4
v -1 18 5
v -1 18 4
v 1 13 6
v 1 13 5
v 1 13 4
v 1 13 -4
v 1 13 -5
v 1 14 6
v 1 14 4
v 1 14 -4
v 1 14 -5
v 2 12 5
v 2 12 4
v 2 13 5
v 2 13 4
v 3 0 1
v 3 0 -1
v 3 3 1
v 3 3 -1
v 3 11 5
v 3 11 4
v 3 12 5
v 3 12 4
v 3 17 5
v 3 17 4
v 3 18 5
v 3 18 4
v 4 3 2
v 4 3 -2
v 4 4 4
v 4 4 2
v 4 4 -2
v 4 4 -4
v 4 5 4
v 4 5 2
v 4 5 -2
v 4 5 -4
v 5 4 2
v 5 4 -2
v 5 5 4
v 5 5 2
v 5 5 -2
v 5 5 -4
v 5 6 1
v 5 6 -1
v 5 7 1
v 5 7 -1
v 5 11 4
v 5 11 1
v 5 12 1
v 5 12 -0
v 5 12 -1
v 5 12 -4
v 5 14 3
v 5 14 -4
v 5 14 -5
v 5 19 4
v 5 19 3
v 5 19 -4
v 5 19 -5
v 5 22 5
v 5 22 4
v 5 22 -4
v 5 22 -5
v 5 26 5
v 5 26 4
v 5 26 -4
v 5 26 -5
v 6 11 1
v 6 11 -0
v 6 11 -1
v 6 12 1
v 6 12 -0
v 6 12 -1
v 6 14 3
v 6 14 -4
v 6 19 3
v 6 19 -4
v 6 22 4
v 6 22 -4
v 6 26 4
v 6 26 -4
v 7 6 1
v 7 6 -1
v 7 7 1
v 7 7 -1
v 7 11 1
v 7 11 -1
v -1 13 6
v -1 14 6
v 1 13 6
v 1 14 6
v -5 22 5
v -5 26 5
v -3 11 5
v -3 12 5
v -3 17 5
v -3 18 5
v -2 12 5
v -2 13 5
v -1 11 5
v -1 12 5
v -1 13 5
v -1 17 5
v -1 18 5
v 1 11 5
v 1 12 5
v 1 13 5
v 1 17 5
v 1 18 5
v 2 12 5
v 2 13 5
v 3 11 5
v 3 12 5
v 3 17 5
v 3 18 5
v 5 22 5
v 5 26 5
v -6 22 4
v -6 26 4
v -5 5 4
v -5 11 4
v -5 19 4
v -5 22 4
v -5 26 4
v -4 4 4
v -4 5 4
v -3 11 4
v -3 12 4
v -3 17 4
v -3 18 4
v -2 12 4
v -2 13 4
v -2 14 4
v -2 16 4
v -1 11 4
v -1 12 4
v -1 13 4
v -1 14 4
v -1 16 4
v -1 17 4
v -1 18 4
v 1 11 4
v 1 12 4
v 1 13 4
v 1 14 4
v 1 16 4
v 1 17 4
v 1 18 4
v 2 5 4
v 2 6 4
v 2 7 4
v 2 8 4
v 2 9 4
v 2 10 4
v 2 12 4
v 2 13 4
v 2 14 4
v 2 16 4
v 3 5 4
v 3 6 4
v 3 7 4
v 3 8 4
v 3 9 4
v 3 10 4
v 3 11 4
v 3 12 4
v 3 17 4
v 3 18 4
v 4 4 4
v 4 5 4
v 5 5 4
v 5 11 4
v 5 19 4
v 5 22 4
v 5 26 4
v 6 22 4
v 6 26 4
v -6 14 3
v -6 19 3
v -5 14 3
v -5 19 3
v 5 14 3
v 5 19 3
v 6 14 3
v 6 19 3
v -5 4 2
v -5 5 2
v -4 3 2
v -4 4 2
v -4 5 2
v 4 3 2
v 4 4 2
v 4 5 2
v 5 4 2
v 5 5 2
v -7 6 1
v -7 7 1
v -7 11 1
v -6 11 1
v -6 12 1
v -5 6 1
v -5 7 1
v -5 11 1
v -5 12 1
v -3 0 1
v -3 3 1
v -1 0 1
v -1 3 1
v 1 0 1
v 1 3 1
v 3 0 1
v 3 3 1
v 5 6 1
v 5 7 1
v 5 11 1
v 5 12 1
v 6 11 1
v 6 12 1
v 7 6 1
v 7 7 1
v 7 11 1
v -7 6 -1
v -7 7 -1
v -7 11 -1
v -6 11 -1
v -6 12 -1
v -5 6 -1
v -5 7 -1
v -5 12 -1
v -3 0 -1
v -3 3 -1
v -1 0 -1
v -1 3 -1
v 1 0 -1
v 1 3 -1
v 3 0 -1
v 3 3 -1
v 5 6 -1
v 5 7 -1
v 5 12 -1
v 6 11 -1
v 6 12 -1
v 7 6 -1
v 7 7 -1
v 7 11 -1
v -5 4 -2
v -5 5 -2
v -4 3 -2
v -4 4 -2
v -4 5 -2
v 4 3 -2
v 4 4 -2
v 4 5 -2
v 5 4 -2
v 5 5 -2
v -6 14 -4
v -6 19 -4
v -6 22 -4
v -6 26 -4
v -5 5 -4
v -5 12 -4
v -5 14 -4
v -5 19 -4
v -5 22 -4
v -5 26 -4
v -4 4 -4
v -4 5 -4
v -1 13 -4
v -1 14 -4
v 1 13 -4
v 1 14 -4
v 4 4 -4
v 4 5 -4
v 5 5 -4
v 5 12 -4
v 5 14 -4
v 5 19 -4
v 5 22 -4
v 5 26 -4
v 6 14 -4
v 6 19 -4
v 6 22 -4
v 6 26 -4
v -5 14 -5
v -5 19 -5
v -5 22 -5
v -5 26 -5
v -1 13 -5
v -1 14 -5
v 1 13 -5
v 1 14 -5
v 5 14 -5
v 5 19 -5
v 5 22 -5
v 5 26 -5
v -3 0 1
v -1 0 1
v 1 0 1
v 3 0 1
v -3 0 -1
v -1 0 -1
v 1 0 -1
v 3 0 -1
v -4 3 2
v 4 3 2
v -3 3 1
v -1 3 1
v 1 3 1
v 3 3 1
v -3 3 -1
v -1 3 -1
v 1 3 -1
v 3 3 -1
v -4 3 -2
v 4 3 -2
v -4 4 4
v 4 4 4
v -5 4 2
v -4 4 2
v 4 4 2
v 5 4 2
v -5 4 -2
v -4 4 -2
v 4 4 -2
v 5 4 -2
v -4 4 -4
v 4 4 -4
v -5 5 4
v -4 5 4
v 4 5 4
v 5 5 4
v -5 5 2
v -4 5 2
v 4 5 2
v 5 5 2
v -5 5 -2
v -4 5 -2
v 4 5 -2
v 5 5 -2
v -5 5 -4
v -4 5 -4
v 4 5 -4
v 5 5 -4
v -7 6 1
v -5 6 1
v 5 6 1
v 7 6 1
v -7 6 -1
v -5 6 -1
v 5 6 -1
v 7 6 -1
v -3 11 5
v -1 11 5
v 1 11 5
v 3 11 5
v -3 11 4
v -1 11 4
v 1 11 4
v 3 11 4
v -1 12 5
v 1 12 5
v -1 12 4
v 1 12 4
v -1 13 6
v 1 13 6
v -1 13 5
v 1 13 5
v -1 13 -4
v 1 13 -4
v -1 13 -5
v 1 13 -5
v -6 14 3
v -5 14 3
v 5 14 3
v 6 14 3
v -6 14 -4
v -5 14 -4
v -1 14 -4
v 1 14 -4
v 5 14 -4
v 6 14 -4
v -5 14 -5
v -1 14 -5
v 1 14 -5
v 5 14 -5
v -3 17 5
v -1 17 5
v 1 17 5
v 3 17 5
v -3 17 4
v -1 17 4
v 1 17 4
v 3 17 4
v -5 22 5
v 5 22 5
v -6 22 4
v -5 22 4
v 5 22 4
v 6 22 4
v -6 22 -4
v -5 22 -4
v 5 22 -4
v 6 22 -4
v -5 22 -5
v 5 22 -5
v -7 11 1
v -6 11 1
v 6 11 1
v 7 11 1
v 6 11 -0
v -7 11 -1
v -6 11 -1
v 6 11 -1
v 7 11 -1
v -3 12 5
v -2 12 5
v 2 12 5
v 3 12 5
v -3 12 4
v -2 12 4
v 2 12 4
v 3 12 4
v -6 12 1
v -5 12 1
v 5 12 1
v 6 12 1
v 5 12 -0
v 6 12 -0
v -6 12 -1
v -5 12 -1
v 5 12 -1
v 6 12 -1
v -2 13 5
v -1 13 5
v 1 13 5
v 2 13 5
v -2 13 4
v -1 13 4
v 1 13 4
v 2 13 4
v -1 14 6
v 1 14 6
v -1 14 4
v 1 14 4
v -3 18 5
v -1 18 5
v 1 18 5
v 3 18 5
v -3 18 4
v -1 18 4
v 1 18 4
v 3 18 4
v -6 19 3
v -5 19 3
v 5 19 3
v 6 19 3
v -6 19 -4
v -5 19 -4
v 5 19 -4
v 6 19 -4
v -5 19 -5
v 5 19 -5
v -5 26 5
v 5 26 5
v -6 26 4
v -5 26 4
v 5 26 4
v 6 26 4
v -6 26 -4
v -5 26 -4
v 5 26 -4
v 6 26 -4
v -5 26 -5
v 5 26 -5

# faces
f 3/1/1 2/1/1 1/1/1
f 4/1/1 2/1/1 3/1/1
f 5/4/1 4/4/1 3/4/1
f 6/4/1 4/4/1 5/4/1
f 9/4/1 8/4/1 7/4/1
f 10/4/1 8/4/1 9/4/1
f 13/6/1 12/6/1 11/6/1
f 14/6/1 12/6/1 13/6/1
f 17/4/1 16/4/1 15/4/1
f 18/4/1 16/4/1 17/4/1
f 22/4/1 20/4/1 19/4/1
f 23/4/1 20/4/1 22/4/1
f 25/4/1 22/4/1 21/4/1
f 25/4/1 24/4/1 23/4/1
f 25/4/1 23/4/1 22/4/1
f 26/4/1 24/4/1 25/4/1
f 27/4/1 25/4/1 21/4/1
f 28/4/1 24/4/1 26/4/1
f 29/4/1 27/4/1 21/4/1
f 30/4/1 27/4/1 29/4/1
f 31/1/1 30/1/1 29/1/1
f 32/4/1 24/4/1 28/4/1
f 33/4/1 24/4/1 32/4/1
f 34/1/1 31/1/1 29/1/1
f 34/1/1 32/1/1 31/1/1
f 34/1/1 33/1/1 32/1/1
f 35/1/1 33/1/1 34/1/1
f 37/1/1 34/1/1 29/1/1
f 38/1/1 34/1/1 37/1/1
f 39/6/1 36/6/1 35/6/1
f 40/6/1 36/6/1 39/6/1
f 42/4/1 38/4/1 37/4/1
f 42/4/1 39/4/1 38/4/1
f 43/4/1 39/4/1 42/4/1
f 45/4/1 42/4/1 41/4/1
f 46/4/1 42/4/1 45/4/1
f 47/4/1 44/4/1 43/4/1
f 48/4/1 44/4/1 47/4/1
f 52/4/1 50/4/1 49/4/1
f 53/4/1 50/4/1 52/4/1
f 55/4/1 52/4/1 51/4/1
f 56/4/1 52/4/1 55/4/1
f 57/4/1 54/4/1 53/4/1
f 58/4/1 54/4/1 57/4/1
f 61/4/1 60/4/1 59/4/1
f 62/4/1 60/4/1 61/4/1
f 65/6/1 64/6/1 63/6/1
f 66/6/1 64/6/1 65/6/1
f 69/6/1 68/6/1 67/6/1
f 70/6/1 68/6/1 69/6/1
f 73/6/1 72/6/1 71/6/1
f 74/6/1 72/6/1 73/6/1
f 80/1/1 76/1/1 75/1/1
f 80/1/1 77/1/1 76/1/1
f 81/1/1 77/1/1 80/1/1
f 82/6/1 79/6/1 78/6/1
f 83/6/1 79/6/1 82/6/1
f 86/4/1 85/4/1 84/4/1
f 87/4/1 85/4/1 86/4/1
f 90/6/1 89/6/1 88/6/1
f 91/6/1 89/6/1 90/6/1
f 94/6/1 93/6/1 92/6/1
f 95/6/1 93/6/1 94/6/1
f 96/4/2 97/4/2 98/4/2
f 98/4/2 97/4/2 99/4/2
f 100/6/2 101/6/2 102/6/2
f 102/6/2 101/6/2 103/6/2
f 104/6/2 105/6/2 106/6/2
f 106/6/2 105/6/2 107/6/2
f 108/1/2 109/1/2 113/1/2
f 109/1/2 110/1/2 113/1/2
f 113/1/2 110/1/2 114/1/2
f 111/6/2 112/6/2 115/6/2
f 115/6/2 112/6/2 116/6/2
f 117/6/2 118/6/2 119/6/2
f 119/6/2 118/6/2 120/6/2
f 121/4/2 122/4/2 123/4/2
f 123/4/2 122/4/2 124/4/2
f 125/6/2 126/6/2 127/6/2
f 127/6/2 126/6/2 128/6/2
f 129/6/2 130/6/2 131/6/2
f 131/6/2 130/6/2 132/6/2
f 133/4/2 134/4/2 136/4/2
f 136/4/2 134/4/2 137/4/2
f 135/4/2 136/4/2 139/4/2
f 139/4/2 136/4/2 140/4/2
f 137/4/2 138/4/2 141/4/2
f 141/4/2 138/4/2 142/4/2
f 143/4/2 144/4/2 146/4/2
f 146/4/2 144/4/2 147/4/2
f 145/4/2 146/4/2 149/4/2
f 147/4/2 148/4/2 149/4/2
f 146/4/2 147/4/2 149/4/2
f 149/4/2 148/4/2 150/4/2
f 145/4/2 149/4/2 151/4/2
f 150/4/2 148/4/2 152/4/2
f 145/4/2 151/4/2 153/4/2
f 153/4/2 151/4/2 154/4/2
f 153/1/2 154/1/2 155/1/2
f 152/4/2 148/4/2 157/4/2
f 157/4/2 148/4/2 158/4/2
f 155/1/2 156/1/2 159/1/2
f 153/1/2 155/1/2 159/1/2
f 157/1/2 158/1/2 159/1/2
f 156/1/2 157/1/2 159/1/2
f 159/1/2 158/1/2 160/1/2
f 153/1/2 159/1/2 162/1/2
f 162/1/2 159/1/2 163/1/2
f 160/6/2 161/6/2 164/6/2
f 164/6/2 161/6/2 165/6/2
f 162/4/2 163/4/2 167/4/2
f 163/4/2 164/4/2 167/4/2
f 167/4/2 164/4/2 168/4/2
f 166/4/2 167/4/2 170/4/2
f 170/4/2 167/4/2 171/4/2
f 168/4/2 169/4/2 172/4/2
f 172/4/2 169/4/2 173/4/2
f 174/1/2 175/1/2 177/1/2
f 175/4/2 176/4/2 178/4/2
f 177/1/2 175/1/2 178/1/2
f 178/4/2 176/4/2 179/4/2
f 180/6/2 181/6/2 182/6/2
f 182/6/2 181/6/2 183/6/2
f 184/4/2 185/4/2 186/4/2
f 186/4/2 185/4/2 187/4/2
f 188/1/2 189/1/2 190/1/2
f 190/1/2 189/1/2 191/1/2
f 190/4/2 191/4/2 192/4/2
f 192/4/2 191/4/2 193/4/2
f 196/1/3 195/1/3 194/1/3
f 197/1/3 195/1/3 196/1/3
f 204/6/3 201/6/3 200/6/3
f 206/6/3 204/6/3 200/6/3
f 206/6/3 205/6/3 204/6/3
f 207/6/3 205/6/3 206/6/3
f 208/6/3 205/6/3 207/6/3
f 209/6/3 203/6/3 202/6/3
f 210/6/3 203/6/3 209/6/3
f 212/6/3 208/6/3 207/6/3
f 213/6/3 208/6/3 212/6/3
f 216/6/3 212/6/3 211/6/3
f 216/6/3 213/6/3 212/6/3
f 217/6/3 213/6/3 216/6/3
f 218/6/3 216/6/3 211/6/3
f 219/6/3 216/6/3 218/6/3
f 220/6/3 215/6/3 214/6/3
f 221/6/3 215/6/3 220/6/3
f 222/4/3 199/4/3 198/4/3
f 223/4/3 199/4/3 222/4/3
f 229/4/3 225/4/3 224/4/3
f 230/4/3 225/4/3 229/4/3
f 232/4/3 227/4/3 226/4/3
f 233/1/3 228/1/3 227/1/3
f 233/4/3 232/4/3 231/4/3
f 233/4/3 227/4/3 232/4/3
f 234/1/3 228/1/3 233/1/3
f 235/1/3 228/1/3 234/1/3
f 236/1/3 228/1/3 235/1/3
f 237/1/3 235/1/3 234/1/3
f 238/1/3 235/1/3 237/1/3
f 239/1/3 235/1/3 238/1/3
f 240/1/3 235/1/3 239/1/3
f 241/4/3 233/4/3 231/4/3
f 243/1/3 239/1/3 238/1/3
f 244/6/3 240/6/3 239/6/3
f 244/1/3 239/1/3 243/1/3
f 245/1/3 235/1/3 240/1/3
f 245/6/3 240/6/3 244/6/3
f 246/1/3 235/1/3 245/1/3
f 247/1/3 228/1/3 236/1/3
f 248/1/3 242/1/3 241/1/3
f 248/4/3 241/4/3 231/4/3
f 249/1/3 242/1/3 248/1/3
f 251/1/3 247/1/3 246/1/3
f 251/1/3 246/1/3 245/1/3
f 251/1/3 245/1/3 244/1/3
f 252/1/3 247/1/3 251/1/3
f 253/1/3 247/1/3 252/1/3
f 254/1/3 228/1/3 247/1/3
f 254/1/3 247/1/3 253/1/3
f 255/4/3 248/4/3 231/4/3
f 256/4/3 248/4/3 255/4/3
f 257/4/3 248/4/3 256/4/3
f 258/4/3 248/4/3 257/4/3
f 259/4/3 248/4/3 258/4/3
f 260/4/3 248/4/3 259/4/3
f 262/1/3 251/1/3 250/1/3
f 263/6/3 252/6/3 251/6/3
f 263/1/3 251/1/3 262/1/3
f 264/1/3 253/1/3 252/1/3
f 264/6/3 252/6/3 263/6/3
f 265/4/3 255/4/3 231/4/3
f 265/6/3 256/6/3 255/6/3
f 266/4/3 257/4/3 256/4/3
f 266/6/3 256/6/3 265/6/3
f 267/6/3 258/6/3 257/6/3
f 267/4/3 257/4/3 266/4/3
f 268/4/3 259/4/3 258/4/3
f 268/6/3 258/6/3 267/6/3
f 269/6/3 260/6/3 259/6/3
f 269/4/3 259/4/3 268/4/3
f 270/4/3 248/4/3 260/4/3
f 270/6/3 260/6/3 269/6/3
f 271/4/3 248/4/3 270/4/3
f 272/1/3 262/1/3 261/1/3
f 272/1/3 263/1/3 262/1/3
f 272/1/3 264/1/3 263/1/3
f 273/1/3 253/1/3 264/1/3
f 273/1/3 264/1/3 272/1/3
f 274/1/3 228/1/3 254/1/3
f 275/4/3 271/4/3 270/4/3
f 275/4/3 270/4/3 269/4/3
f 275/4/3 269/4/3 268/4/3
f 275/4/3 265/4/3 231/4/3
f 275/4/3 266/4/3 265/4/3
f 275/4/3 268/4/3 267/4/3
f 275/4/3 267/4/3 266/4/3
f 276/4/3 271/4/3 275/4/3
f 277/4/3 271/4/3 276/4/3
f 278/1/3 273/1/3 272/1/3
f 278/4/3 271/4/3 277/4/3
f 278/1/3 274/1/3 273/1/3
f 278/1/3 272/1/3 271/1/3
f 279/4/3 229/4/3 228/4/3
f 279/1/3 274/1/3 278/1/3
f 279/1/3 228/1/3 274/1/3
f 280/4/3 229/4/3 279/4/3
f 282/4/3 281/4/3 280/4/3
f 283/4/3 281/4/3 282/4/3
f 286/6/3 285/6/3 284/6/3
f 287/6/3 285/6/3 286/6/3
f 290/6/3 289/6/3 288/6/3
f 291/6/3 289/6/3 290/6/3
f 295/4/3 293/4/3 292/4/3
f 296/4/3 293/4/3 295/4/3
f 297/4/3 295/4/3 294/4/3
f 298/4/3 295/4/3 297/4/3
f 300/4/3 299/4/3 298/4/3
f 301/4/3 299/4/3 300/4/3
f 305/4/3 304/4/3 303/4/3
f 307/1/3 303/1/3 302/1/3
f 308/4/3 306/4/3 305/4/3
f 308/1/3 303/1/3 307/1/3
f 308/4/3 305/4/3 303/4/3
f 309/4/3 306/4/3 308/4/3
f 310/4/3 306/4/3 309/4/3
f 313/4/3 312/4/3 311/4/3
f 314/4/3 312/4/3 313/4/3
f 317/4/3 316/4/3 315/4/3
f 318/4/3 316/4/3 317/4/3
f 323/4/3 321/4/3 320/4/3
f 323/1/3 322/1/3 321/1/3
f 324/1/3 322/1/3 323/1/3
f 325/1/3 320/1/3 319/1/3
f 326/4/3 323/4/3 320/4/3
f 326/1/3 320/1/3 325/1/3
f 327/4/3 323/4/3 326/4/3
f 329/4/4 330/4/4 331/4/4
f 328/1/4 329/1/4 333/1/4
f 331/4/4 332/4/4 334/4/4
f 333/1/4 329/1/4 334/1/4
f 329/4/4 331/4/4 334/4/4
f 334/4/4 332/4/4 335/4/4
f 336/4/4 337/4/4 338/4/4
f 338/4/4 337/4/4 339/4/4
f 340/4/4 341/4/4 342/4/4
f 342/4/4 341/4/4 343/4/4
f 345/4/4 346/4/4 347/4/4
f 347/4/4 346/4/4 348/4/4
f 344/1/4 345/1/4 349/1/4
f 345/4/4 347/4/4 350/4/4
f 349/1/4 345/1/4 350/1/4
f 350/4/4 347/4/4 351/4/4
f 352/4/4 353/4/4 355/4/4
f 355/4/4 353/4/4 356/4/4
f 354/4/4 355/4/4 357/4/4
f 357/4/4 355/4/4 358/4/4
f 358/4/4 359/4/4 360/4/4
f 360/4/4 359/4/4 361/4/4
f 362/6/4 363/6/4 368/6/4
f 368/6/4 363/6/4 369/6/4
f 364/4/4 365/4/4 370/4/4
f 370/4/4 365/4/4 371/4/4
f 366/4/4 367/4/4 373/4/4
f 367/1/4 368/1/4 374/1/4
f 374/1/4 368/1/4 375/1/4
f 367/1/4 374/1/4 376/1/4
f 372/4/4 373/4/4 378/4/4
f 373/4/4 367/4/4 379/4/4
f 378/4/4 373/4/4 379/4/4
f 379/4/4 367/4/4 380/4/4
f 376/1/4 377/1/4 381/1/4
f 380/4/4 367/4/4 381/4/4
f 367/1/4 376/1/4 381/1/4
f 381/1/4 377/1/4 382/1/4
f 369/4/4 370/4/4 383/4/4
f 383/4/4 370/4/4 384/4/4
f 382/6/4 383/6/4 386/6/4
f 386/6/4 383/6/4 387/6/4
f 384/4/4 385/4/4 388/4/4
f 388/4/4 385/4/4 389/4/4
f 390/6/4 391/6/4 395/6/4
f 394/6/4 395/6/4 396/6/4
f 395/6/4 391/6/4 397/6/4
f 396/6/4 395/6/4 397/6/4
f 397/6/4 391/6/4 398/6/4
f 398/6/4 391/6/4 399/6/4
f 392/4/4 393/4/4 400/4/4
f 400/4/4 393/4/4 401/4/4
f 406/4/5 403/4/5 402/4/5
f 407/4/5 403/4/5 406/4/5
f 408/4/5 405/4/5 404/4/5
f 409/4/5 405/4/5 408/4/5
f 412/4/5 411/4/5 410/4/5
f 413/4/5 411/4/5 412/4/5
f 414/4/5 411/4/5 413/4/5
f 415/4/5 411/4/5 414/4/5
f 416/4/5 412/4/5 410/4/5
f 417/4/5 414/4/5 413/4/5
f 418/4/5 414/4/5 417/4/5
f 419/4/5 411/4/5 415/4/5
f 420/4/5 418/4/5 417/4/5
f 420/4/5 419/4/5 418/4/5
f 420/4/5 416/4/5 410/4/5
f 420/4/5 417/4/5 416/4/5
f 421/4/5 411/4/5 419/4/5
f 421/4/5 419/4/5 420/4/5
f 425/4/5 423/4/5 422/4/5
f 426/4/5 423/4/5 425/4/5
f 428/4/5 425/4/5 424/4/5
f 429/4/5 425/4/5 428/4/5
f 430/4/5 427/4/5 426/4/5
f 431/4/5 427/4/5 430/4/5
f 432/4/5 430/4/5 429/4/5
f 433/4/5 430/4/5 432/4/5
f 438/4/5 435/4/5 434/4/5
f 439/4/5 435/4/5 438/4/5
f 440/4/5 437/4/5 436/4/5
f 441/4/5 437/4/5 440/4/5
f 446/4/5 443/4/5 442/4/5
f 447/4/5 443/4/5 446/4/5
f 448/4/5 445/4/5 444/4/5
f 449/4/5 445/4/5 448/4/5
f 454/1/5 451/1/5 450/1/5
f 455/1/5 451/1/5 454/1/5
f 456/1/5 453/1/5 452/1/5
f 457/1/5 453/1/5 456/1/5
f 462/6/5 459/6/5 458/6/5
f 463/6/5 459/6/5 462/6/5
f 464/6/5 461/6/5 460/6/5
f 465/6/5 461/6/5 464/6/5
f 468/6/5 467/6/5 466/6/5
f 469/6/5 467/6/5 468/6/5
f 472/1/5 471/1/5 470/1/5
f 473/1/5 471/1/5 472/1/5
f 476/6/5 475/6/5 474/6/5
f 477/6/5 475/6/5 476/6/5
f 482/6/5 479/6/5 478/6/5
f 483/6/5 479/6/5 482/6/5
f 486/6/5 481/6/5 480/6/5
f 487/6/5 481/6/5 486/6/5
f 488/6/5 484/6/5 483/6/5
f 489/6/5 484/6/5 488/6/5
f 490/6/5 486/6/5 485/6/5
f 491/6/5 486/6/5 490/6/5
f 496/6/5 493/6/5 492/6/5
f 497/6/5 493/6/5 496/6/5
f 498/6/5 495/6/5 494/6/5
f 499/6/5 495/6/5 498/6/5
f 503/4/5 501/4/5 500/4/5
f 504/4/5 501/4/5 503/4/5
f 506/4/5 503/4/5 502/4/5
f 507/4/5 503/4/5 506/4/5
f 508/4/5 505/4/5 504/4/5
f 509/4/5 505/4/5 508/4/5
f 510/4/5 508/4/5 507/4/5
f 511/4/5 508/4/5 510/4/5
f 514/4/6 515/4/6 516/4/6
f 512/4/6 513/4/6 517/4/6
f 517/4/6 513/4/6 518/4/6
f 516/4/6 515/4/6 519/4/6
f 519/4/6 515/4/6 520/4/6
f 521/6/6 522/6/6 525/6/6
f 525/6/6 522/6/6 526/6/6
f 523/6/6 524/6/6 527/6/6
f 527/6/6 524/6/6 528/6/6
f 531/1/6 532/1/6 533/1/6
f 533/1/6 532/1/6 534/1/6
f 529/4/6 530/4/6 535/4/6
f 535/4/6 530/4/6 536/4/6
f 533/4/6 534/4/6 537/4/6
f 537/4/6 534/4/6 538/4/6
f 539/6/6 540/6/6 543/6/6
f 543/6/6 540/6/6 544/6/6
f 541/6/6 542/6/6 545/6/6
f 545/6/6 542/6/6 546/6/6
f 547/1/6 548/1/6 549/1/6
f 549/1/6 548/1/6 550/1/6
f 551/6/6 552/6/6 555/6/6
f 555/6/6 552/6/6 556/6/6
f 553/6/6 554/6/6 557/6/6
f 557/6/6 554/6/6 558/6/6
f 559/6/6 560/6/6 563/6/6
f 563/6/6 560/6/6 564/6/6
f 561/6/6 562/6/6 565/6/6
f 565/6/6 562/6/6 566/6/6
f 564/6/6 565/6/6 567/6/6
f 567/6/6 565/6/6 568/6/6
f 569/4/6 570/4/6 572/4/6
f 572/4/6 570/4/6 573/4/6
f 571/4/6 572/4/6 575/4/6
f 573/4/6 574/4/6 575/4/6
f 572/4/6 573/4/6 575/4/6
f 575/4/6 574/4/6 576/4/6
f 576/4/6 574/4/6 577/4/6
f 577/4/6 574/4/6 578/4/6
f 576/4/6 577/4/6 579/4/6
f 579/4/6 577/4/6 580/4/6
