# MagicaVoxel @ Ephtracy

# group
g dogBunKandM

# material
mtllib dogBunKandM.mtl
usemtl palette

# normals
vn -1 0 0
vn 1 0 0
vn 0 0 1
vn 0 0 -1
vn 0 -1 0
vn 0 1 0

# texcoords
vt 0.162109 0.5
vt 0.369141 0.5
vt 0.560547 0.5
vt 0.845703 0.5
vt 0.990234 0.5

# verts
v -6 0 4
v -6 0 -4
v -6 1 5
v -6 1 4
v -6 1 2
v -6 1 -2
v -6 1 -4
v -6 1 -5
v -6 2 3
v -6 2 2
v -6 2 -2
v -6 2 -3
v -6 4 5
v -6 4 4
v -6 4 3
v -6 4 2
v -6 4 -0
v -6 4 -1
v -6 4 -2
v -6 4 -3
v -6 4 -4
v -6 4 -5
v -6 5 4
v -6 5 3
v -6 5 2
v -6 5 1
v -6 5 -0
v -6 5 -1
v -6 5 -2
v -6 5 -3
v -6 5 -4
v -6 6 1
v -6 6 -1
v 6 0 4
v 6 0 -4
v 6 1 5
v 6 1 4
v 6 1 2
v 6 1 1
v 6 1 -2
v 6 1 -4
v 6 1 -5
v 6 2 3
v 6 2 2
v 6 2 1
v 6 2 -2
v 6 2 -3
v 6 3 3
v 6 3 2
v 6 3 1
v 6 3 -0
v 6 4 5
v 6 4 4
v 6 4 3
v 6 4 2
v 6 4 1
v 6 4 -0
v 6 4 -1
v 6 4 -2
v 6 4 -3
v 6 4 -4
v 6 4 -5
v 6 5 4
v 6 5 3
v 6 5 2
v 6 5 1
v 6 5 -0
v 6 5 -1
v 6 5 -2
v 6 5 -3
v 6 5 -4
v 6 6 1
v 6 6 -0
v 6 6 -1
v -6 1 5
v -6 4 5
v 6 1 5
v 6 4 5
v -6 0 4
v -6 1 4
v -6 4 4
v -6 5 4
v 6 0 4
v 6 1 4
v 6 4 4
v 6 5 4
v -6 4 2
v -6 5 2
v -4 4 2
v -4 5 2
v -3 4 2
v -3 5 2
v -1 4 2
v -1 5 2
v 0 4 2
v 0 5 2
v 1 4 2
v 3 4 2
v 3 5 2
v 4 4 2
v 4 5 2
v 5 4 2
v 6 4 2
v 6 5 2
v -6 5 1
v -6 6 1
v -5 5 1
v -5 6 1
v -4 5 1
v -3 5 1
v -3 6 1
v -1 5 1
v 0 5 1
v 1 5 1
v 1 6 1
v 3 5 1
v 3 6 1
v 4 5 1
v 6 5 1
v 6 6 1
v -6 4 -3
v -6 5 -3
v -5 4 -3
v -4 4 -3
v -1 4 -3
v 0 4 -3
v 3 4 -3
v 4 4 -3
v 6 4 -3
v 6 5 -3
v -6 4 3
v -6 5 3
v -4 4 3
v -3 4 3
v 0 4 3
v 1 4 3
v 4 4 3
v 5 4 3
v 6 4 3
v 6 5 3
v -6 5 -1
v -6 6 -1
v -4 5 -1
v -4 6 -1
v -3 5 -1
v -2 5 -1
v -2 6 -1
v 0 5 -1
v 0 6 -1
v 1 5 -1
v 4 5 -1
v 5 5 -1
v 6 5 -1
v 6 6 -1
v -6 4 -2
v -6 5 -2
v -5 4 -2
v -4 4 -2
v -4 5 -2
v -3 4 -2
v -3 5 -2
v -1 4 -2
v 0 4 -2
v 0 5 -2
v 1 4 -2
v 1 5 -2
v 3 4 -2
v 4 4 -2
v 4 5 -2
v 5 4 -2
v 5 5 -2
v 6 4 -2
v 6 5 -2
v -6 0 -4
v -6 1 -4
v -6 4 -4
v -6 5 -4
v 6 0 -4
v 6 1 -4
v 6 4 -4
v 6 5 -4
v -6 1 -5
v -6 4 -5
v 6 1 -5
v 6 4 -5
v -6 0 4
v 6 0 4
v -6 0 -4
v 6 0 -4
v -6 1 5
v 6 1 5
v -6 1 4
v 6 1 4
v -6 1 -4
v 6 1 -4
v -6 1 -5
v 6 1 -5
v -6 4 5
v 6 4 5
v -6 4 4
v 6 4 4
v -6 4 3
v -4 4 3
v -3 4 3
v 0 4 3
v 1 4 3
v 4 4 3
v 5 4 3
v 6 4 3
v -6 4 2
v -4 4 2
v -3 4 2
v -1 4 2
v 0 4 2
v 1 4 2
v 3 4 2
v 4 4 2
v 5 4 2
v 6 4 2
v -6 4 -2
v -5 4 -2
v -4 4 -2
v -3 4 -2
v -1 4 -2
v 0 4 -2
v 1 4 -2
v 3 4 -2
v 4 4 -2
v 5 4 -2
v 6 4 -2
v -6 4 -3
v -5 4 -3
v -4 4 -3
v -1 4 -3
v 0 4 -3
v 3 4 -3
v 4 4 -3
v 6 4 -3
v -6 4 -4
v 6 4 -4
v -6 4 -5
v 6 4 -5
v -6 5 4
v 6 5 4
v -6 5 3
v 6 5 3
v -6 5 2
v -4 5 2
v -3 5 2
v -1 5 2
v 0 5 2
v 3 5 2
v 4 5 2
v 6 5 2
v -6 5 1
v -5 5 1
v -4 5 1
v -3 5 1
v -1 5 1
v 0 5 1
v 1 5 1
v 3 5 1
v 4 5 1
v 6 5 1
v -6 5 -1
v -4 5 -1
v -3 5 -1
v -2 5 -1
v 0 5 -1
v 1 5 -1
v 4 5 -1
v 5 5 -1
v 6 5 -1
v -6 5 -2
v -4 5 -2
v -3 5 -2
v 0 5 -2
v 1 5 -2
v 4 5 -2
v 5 5 -2
v 6 5 -2
v -6 5 -3
v 6 5 -3
v -6 5 -4
v 6 5 -4
v -6 6 1
v -5 6 1
v -3 6 1
v 1 6 1
v 3 6 1
v 6 6 1
v -5 6 -0
v -4 6 -0
v -3 6 -0
v -2 6 -0
v 0 6 -0
v 1 6 -0
v 3 6 -0
v 6 6 -0
v -6 6 -1
v -4 6 -1
v -2 6 -1
v 0 6 -1
v 6 6 -1

# faces
f 4/2/1 2/2/1 1/2/1
f 5/2/1 2/2/1 4/2/1
f 6/2/1 2/2/1 5/2/1
f 7/2/1 2/2/1 6/2/1
f 9/2/1 4/2/1 3/2/1
f 9/2/1 5/2/1 4/2/1
f 10/3/1 6/3/1 5/3/1
f 10/2/1 5/2/1 9/2/1
f 11/2/1 8/2/1 7/2/1
f 11/3/1 6/3/1 10/3/1
f 11/2/1 7/2/1 6/2/1
f 12/2/1 8/2/1 11/2/1
f 13/2/1 9/2/1 3/2/1
f 14/2/1 9/2/1 13/2/1
f 15/3/1 10/3/1 9/3/1
f 15/2/1 9/2/1 14/2/1
f 15/3/1 11/3/1 10/3/1
f 15/3/1 12/3/1 11/3/1
f 16/3/1 12/3/1 15/3/1
f 17/3/1 12/3/1 16/3/1
f 18/3/1 12/3/1 17/3/1
f 19/3/1 12/3/1 18/3/1
f 20/2/1 8/2/1 12/2/1
f 20/3/1 12/3/1 19/3/1
f 21/2/1 8/2/1 20/2/1
f 22/2/1 8/2/1 21/2/1
f 23/2/1 15/2/1 14/2/1
f 24/2/1 15/2/1 23/2/1
f 25/3/1 17/3/1 16/3/1
f 26/3/1 17/3/1 25/3/1
f 27/5/1 18/5/1 17/5/1
f 27/3/1 17/3/1 26/3/1
f 28/3/1 19/3/1 18/3/1
f 28/5/1 18/5/1 27/5/1
f 29/3/1 19/3/1 28/3/1
f 30/2/1 21/2/1 20/2/1
f 31/2/1 21/2/1 30/2/1
f 32/4/1 27/4/1 26/4/1
f 32/4/1 28/4/1 27/4/1
f 33/4/1 28/4/1 32/4/1
f 34/2/2 35/2/2 37/2/2
f 37/2/2 35/2/2 38/2/2
f 38/2/2 35/2/2 39/2/2
f 39/2/2 35/2/2 40/2/2
f 40/2/2 35/2/2 41/2/2
f 36/2/2 37/2/2 43/2/2
f 37/2/2 38/2/2 43/2/2
f 38/5/2 39/5/2 44/5/2
f 43/2/2 38/2/2 44/2/2
f 39/3/2 40/3/2 45/3/2
f 44/5/2 39/5/2 45/5/2
f 41/2/2 42/2/2 46/2/2
f 45/3/2 40/3/2 46/3/2
f 40/2/2 41/2/2 46/2/2
f 46/2/2 42/2/2 47/2/2
f 43/5/2 44/5/2 48/5/2
f 36/2/2 43/2/2 48/2/2
f 44/3/2 45/3/2 49/3/2
f 48/5/2 44/5/2 49/5/2
f 46/3/2 47/3/2 49/3/2
f 45/3/2 46/3/2 49/3/2
f 49/3/2 47/3/2 50/3/2
f 50/3/2 47/3/2 51/3/2
f 36/2/2 48/2/2 52/2/2
f 52/2/2 48/2/2 53/2/2
f 48/3/2 49/3/2 54/3/2
f 53/2/2 48/2/2 54/2/2
f 49/3/2 50/3/2 54/3/2
f 54/3/2 50/3/2 55/3/2
f 50/5/2 51/5/2 56/5/2
f 55/3/2 50/3/2 56/3/2
f 51/3/2 47/3/2 57/3/2
f 56/5/2 51/5/2 57/5/2
f 57/3/2 47/3/2 58/3/2
f 58/3/2 47/3/2 59/3/2
f 47/2/2 42/2/2 60/2/2
f 59/3/2 47/3/2 60/3/2
f 60/2/2 42/2/2 61/2/2
f 61/2/2 42/2/2 62/2/2
f 53/2/2 54/2/2 63/2/2
f 63/2/2 54/2/2 64/2/2
f 55/3/2 56/3/2 65/3/2
f 56/3/2 57/3/2 65/3/2
f 65/3/2 57/3/2 66/3/2
f 57/5/2 58/5/2 67/5/2
f 66/3/2 57/3/2 67/3/2
f 58/3/2 59/3/2 68/3/2
f 67/5/2 58/5/2 68/5/2
f 68/3/2 59/3/2 69/3/2
f 60/2/2 61/2/2 70/2/2
f 70/2/2 61/2/2 71/2/2
f 66/4/2 67/4/2 72/4/2
f 67/1/2 68/1/2 73/1/2
f 72/4/2 67/4/2 73/4/2
f 73/1/2 68/1/2 74/1/2
f 77/2/3 76/2/3 75/2/3
f 78/2/3 76/2/3 77/2/3
f 83/2/3 80/2/3 79/2/3
f 84/2/3 80/2/3 83/2/3
f 85/2/3 82/2/3 81/2/3
f 86/2/3 82/2/3 85/2/3
f 89/3/3 88/3/3 87/3/3
f 90/3/3 88/3/3 89/3/3
f 91/5/3 90/5/3 89/5/3
f 92/5/3 90/5/3 91/5/3
f 93/3/3 92/3/3 91/3/3
f 94/3/3 92/3/3 93/3/3
f 95/5/3 94/5/3 93/5/3
f 96/5/3 94/5/3 95/5/3
f 97/3/3 96/3/3 95/3/3
f 98/3/3 96/3/3 97/3/3
f 99/3/3 96/3/3 98/3/3
f 100/5/3 99/5/3 98/5/3
f 101/5/3 99/5/3 100/5/3
f 102/3/3 101/3/3 100/3/3
f 103/3/3 101/3/3 102/3/3
f 104/3/3 101/3/3 103/3/3
f 107/4/3 106/4/3 105/4/3
f 108/4/3 106/4/3 107/4/3
f 109/1/3 108/1/3 107/1/3
f 110/1/3 108/1/3 109/1/3
f 111/1/3 108/1/3 110/1/3
f 112/4/3 111/4/3 110/4/3
f 113/4/3 111/4/3 112/4/3
f 114/4/3 111/4/3 113/4/3
f 115/4/3 111/4/3 114/4/3
f 116/1/3 115/1/3 114/1/3
f 117/1/3 115/1/3 116/1/3
f 118/4/3 117/4/3 116/4/3
f 119/4/3 117/4/3 118/4/3
f 120/4/3 117/4/3 119/4/3
f 123/2/3 122/2/3 121/2/3
f 124/2/3 122/2/3 123/2/3
f 125/2/3 122/2/3 124/2/3
f 126/2/3 122/2/3 125/2/3
f 127/2/3 122/2/3 126/2/3
f 128/2/3 122/2/3 127/2/3
f 129/2/3 122/2/3 128/2/3
f 130/2/3 122/2/3 129/2/3
f 131/2/4 132/2/4 133/2/4
f 133/2/4 132/2/4 134/2/4
f 134/2/4 132/2/4 135/2/4
f 135/2/4 132/2/4 136/2/4
f 136/2/4 132/2/4 137/2/4
f 137/2/4 132/2/4 138/2/4
f 138/2/4 132/2/4 139/2/4
f 139/2/4 132/2/4 140/2/4
f 141/4/4 142/4/4 143/4/4
f 143/4/4 142/4/4 144/4/4
f 143/1/4 144/1/4 145/1/4
f 145/1/4 144/1/4 146/1/4
f 146/1/4 144/1/4 147/1/4
f 146/4/4 147/4/4 148/4/4
f 148/4/4 147/4/4 149/4/4
f 148/1/4 149/1/4 150/1/4
f 150/1/4 149/1/4 151/1/4
f 151/1/4 149/1/4 152/1/4
f 152/1/4 149/1/4 153/1/4
f 153/1/4 149/1/4 154/1/4
f 155/3/4 156/3/4 157/3/4
f 157/3/4 156/3/4 158/3/4
f 158/3/4 156/3/4 159/3/4
f 158/5/4 159/5/4 160/5/4
f 160/5/4 159/5/4 161/5/4
f 160/3/4 161/3/4 162/3/4
f 162/3/4 161/3/4 163/3/4
f 163/3/4 161/3/4 164/3/4
f 163/5/4 164/5/4 165/5/4
f 165/5/4 164/5/4 166/5/4
f 165/3/4 166/3/4 167/3/4
f 167/3/4 166/3/4 168/3/4
f 168/3/4 166/3/4 169/3/4
f 168/5/4 169/5/4 170/5/4
f 170/5/4 169/5/4 171/5/4
f 170/3/4 171/3/4 172/3/4
f 172/3/4 171/3/4 173/3/4
f 174/2/4 175/2/4 178/2/4
f 178/2/4 175/2/4 179/2/4
f 176/2/4 177/2/4 180/2/4
f 180/2/4 177/2/4 181/2/4
f 182/2/4 183/2/4 184/2/4
f 184/2/4 183/2/4 185/2/4
f 188/2/5 187/2/5 186/2/5
f 189/2/5 187/2/5 188/2/5
f 192/2/5 191/2/5 190/2/5
f 193/2/5 191/2/5 192/2/5
f 196/2/5 195/2/5 194/2/5
f 197/2/5 195/2/5 196/2/5
f 198/2/6 199/2/6 200/2/6
f 200/2/6 199/2/6 201/2/6
f 202/3/6 203/3/6 210/3/6
f 203/5/6 204/5/6 211/5/6
f 210/3/6 203/3/6 211/3/6
f 204/3/6 205/3/6 212/3/6
f 211/5/6 204/5/6 212/5/6
f 212/3/6 205/3/6 213/3/6
f 205/5/6 206/5/6 214/5/6
f 213/3/6 205/3/6 214/3/6
f 206/3/6 207/3/6 215/3/6
f 214/5/6 206/5/6 215/5/6
f 215/3/6 207/3/6 216/3/6
f 207/5/6 208/5/6 217/5/6
f 216/3/6 207/3/6 217/3/6
f 208/3/6 209/3/6 218/3/6
f 217/5/6 208/5/6 218/5/6
f 218/3/6 209/3/6 219/3/6
f 220/3/6 221/3/6 231/3/6
f 221/5/6 222/5/6 232/5/6
f 231/3/6 221/3/6 232/3/6
f 222/3/6 223/3/6 233/3/6
f 232/5/6 222/5/6 233/5/6
f 223/3/6 224/3/6 233/3/6
f 224/5/6 225/5/6 234/5/6
f 233/3/6 224/3/6 234/3/6
f 225/3/6 226/3/6 235/3/6
f 234/5/6 225/5/6 235/5/6
f 226/3/6 227/3/6 235/3/6
f 227/5/6 228/5/6 236/5/6
f 235/3/6 227/3/6 236/3/6
f 229/3/6 230/3/6 237/3/6
f 236/5/6 228/5/6 237/5/6
f 228/3/6 229/3/6 237/3/6
f 237/3/6 230/3/6 238/3/6
f 239/2/6 240/2/6 241/2/6
f 241/2/6 240/2/6 242/2/6
f 243/2/6 244/2/6 245/2/6
f 245/2/6 244/2/6 246/2/6
f 247/3/6 248/3/6 255/3/6
f 255/3/6 248/3/6 256/3/6
f 248/5/6 249/5/6 257/5/6
f 256/3/6 248/3/6 257/3/6
f 249/3/6 250/3/6 258/3/6
f 257/5/6 249/5/6 258/5/6
f 250/5/6 251/5/6 259/5/6
f 258/3/6 250/3/6 259/3/6
f 251/3/6 252/3/6 260/3/6
f 259/5/6 251/5/6 260/5/6
f 260/3/6 252/3/6 261/3/6
f 252/5/6 253/5/6 262/5/6
f 261/3/6 252/3/6 262/3/6
f 253/3/6 254/3/6 263/3/6
f 262/5/6 253/5/6 263/5/6
f 263/3/6 254/3/6 264/3/6
f 265/3/6 266/3/6 274/3/6
f 266/5/6 267/5/6 275/5/6
f 274/3/6 266/3/6 275/3/6
f 267/3/6 268/3/6 276/3/6
f 275/5/6 267/5/6 276/5/6
f 268/3/6 269/3/6 276/3/6
f 269/5/6 270/5/6 277/5/6
f 276/3/6 269/3/6 277/3/6
f 270/3/6 271/3/6 278/3/6
f 277/5/6 270/5/6 278/5/6
f 271/5/6 272/5/6 279/5/6
f 278/3/6 271/3/6 279/3/6
f 272/3/6 273/3/6 280/3/6
f 279/5/6 272/5/6 280/5/6
f 280/3/6 273/3/6 281/3/6
f 282/2/6 283/2/6 284/2/6
f 284/2/6 283/2/6 285/2/6
f 286/4/6 287/4/6 292/4/6
f 287/1/6 288/1/6 292/1/6
f 292/1/6 288/1/6 293/1/6
f 288/4/6 289/4/6 294/4/6
f 293/1/6 288/1/6 294/1/6
f 294/4/6 289/4/6 295/4/6
f 295/4/6 289/4/6 296/4/6
f 289/1/6 290/1/6 297/1/6
f 296/4/6 289/4/6 297/4/6
f 290/4/6 291/4/6 298/4/6
f 297/1/6 290/1/6 298/1/6
f 298/4/6 291/4/6 299/4/6
f 292/4/6 293/4/6 300/4/6
f 286/4/6 292/4/6 300/4/6
f 293/1/6 294/1/6 301/1/6
f 300/4/6 293/4/6 301/4/6
f 294/1/6 295/1/6 301/1/6
f 295/4/6 296/4/6 302/4/6
f 301/1/6 295/1/6 302/1/6
f 296/1/6 297/1/6 303/1/6
f 302/4/6 296/4/6 303/4/6
f 298/1/6 299/1/6 303/1/6
f 297/1/6 298/1/6 303/1/6
f 303/1/6 299/1/6 304/1/6
