# MagicaVoxel @ Ephtracy

# group
g dogBunRelishKetchup

# material
mtllib dogBunRelishKetchup.mtl
usemtl palette

# normals
vn -1 0 0
vn 1 0 0
vn 0 0 1
vn 0 0 -1
vn 0 -1 0
vn 0 1 0

# texcoords
vt 0.369141 0.5
vt 0.560547 0.5
vt 0.845703 0.5
vt 0.884766 0.5
vt 0.990234 0.5

# verts
v -6 0 4
v -6 0 -4
v -6 1 5
v -6 1 4
v -6 1 2
v -6 1 -2
v -6 1 -4
v -6 1 -5
v -6 2 3
v -6 2 2
v -6 2 -2
v -6 2 -3
v -6 4 5
v -6 4 4
v -6 4 3
v -6 4 2
v -6 4 -0
v -6 4 -1
v -6 4 -2
v -6 4 -3
v -6 4 -4
v -6 4 -5
v -6 5 4
v -6 5 3
v -6 5 2
v -6 5 1
v -6 5 -0
v -6 5 -1
v -6 5 -2
v -6 5 -3
v -6 5 -4
v -6 6 1
v -6 6 -0
v -6 6 -1
v 6 0 4
v 6 0 -4
v 6 1 5
v 6 1 4
v 6 1 2
v 6 1 1
v 6 1 -2
v 6 1 -4
v 6 1 -5
v 6 2 3
v 6 2 2
v 6 2 1
v 6 2 -2
v 6 2 -3
v 6 3 3
v 6 3 2
v 6 3 1
v 6 3 -0
v 6 4 5
v 6 4 4
v 6 4 3
v 6 4 2
v 6 4 1
v 6 4 -0
v 6 4 -1
v 6 4 -2
v 6 4 -3
v 6 4 -4
v 6 4 -5
v 6 5 4
v 6 5 3
v 6 5 2
v 6 5 1
v 6 5 -0
v 6 5 -1
v 6 5 -2
v 6 5 -3
v 6 5 -4
v 6 6 1
v 6 6 -1
v -6 1 5
v -6 4 5
v 6 1 5
v 6 4 5
v -6 0 4
v -6 1 4
v -6 4 4
v -6 5 4
v 6 0 4
v 6 1 4
v 6 4 4
v 6 5 4
v -6 4 2
v -6 5 2
v -4 4 2
v -4 5 2
v -3 4 2
v -3 5 2
v -1 4 2
v -1 5 2
v 0 4 2
v 0 5 2
v 1 4 2
v 3 4 2
v 3 5 2
v 4 4 2
v 4 5 2
v 5 4 2
v 6 4 2
v 6 5 2
v -6 5 1
v -6 6 1
v -4 5 1
v -4 6 1
v -3 5 1
v -3 6 1
v -1 5 1
v 0 5 1
v 3 5 1
v 4 5 1
v 4 6 1
v 6 5 1
v 6 6 1
v -6 4 -3
v -6 5 -3
v -5 4 -3
v -4 4 -3
v -1 4 -3
v 0 4 -3
v 3 4 -3
v 4 4 -3
v 6 4 -3
v 6 5 -3
v -6 4 3
v -6 5 3
v -4 4 3
v -3 4 3
v 0 4 3
v 1 4 3
v 4 4 3
v 5 4 3
v 6 4 3
v 6 5 3
v -6 5 -1
v -6 6 -1
v -4 5 -1
v -3 5 -1
v -2 5 -1
v -2 6 -1
v -1 5 -1
v -1 6 -1
v 0 5 -1
v 1 5 -1
v 2 5 -1
v 2 6 -1
v 3 5 -1
v 3 6 -1
v 4 5 -1
v 5 5 -1
v 6 5 -1
v 6 6 -1
v -6 4 -2
v -6 5 -2
v -5 4 -2
v -4 4 -2
v -4 5 -2
v -3 4 -2
v -3 5 -2
v -1 4 -2
v 0 4 -2
v 0 5 -2
v 1 4 -2
v 1 5 -2
v 3 4 -2
v 4 4 -2
v 4 5 -2
v 5 4 -2
v 5 5 -2
v 6 4 -2
v 6 5 -2
v -6 0 -4
v -6 1 -4
v -6 4 -4
v -6 5 -4
v 6 0 -4
v 6 1 -4
v 6 4 -4
v 6 5 -4
v -6 1 -5
v -6 4 -5
v 6 1 -5
v 6 4 -5
v -6 0 4
v 6 0 4
v -6 0 -4
v 6 0 -4
v -6 1 5
v 6 1 5
v -6 1 4
v 6 1 4
v -6 1 -4
v 6 1 -4
v -6 1 -5
v 6 1 -5
v -6 4 5
v 6 4 5
v -6 4 4
v 6 4 4
v -6 4 3
v -4 4 3
v -3 4 3
v 0 4 3
v 1 4 3
v 4 4 3
v 5 4 3
v 6 4 3
v -6 4 2
v -4 4 2
v -3 4 2
v -1 4 2
v 0 4 2
v 1 4 2
v 3 4 2
v 4 4 2
v 5 4 2
v 6 4 2
v -6 4 -2
v -5 4 -2
v -4 4 -2
v -3 4 -2
v -1 4 -2
v 0 4 -2
v 1 4 -2
v 3 4 -2
v 4 4 -2
v 5 4 -2
v 6 4 -2
v -6 4 -3
v -5 4 -3
v -4 4 -3
v -1 4 -3
v 0 4 -3
v 3 4 -3
v 4 4 -3
v 6 4 -3
v -6 4 -4
v 6 4 -4
v -6 4 -5
v 6 4 -5
v -6 5 4
v 6 5 4
v -6 5 3
v 6 5 3
v -6 5 2
v -4 5 2
v -3 5 2
v -1 5 2
v 0 5 2
v 3 5 2
v 4 5 2
v 6 5 2
v -6 5 1
v -4 5 1
v -3 5 1
v -1 5 1
v 0 5 1
v 3 5 1
v 4 5 1
v 6 5 1
v -6 5 -1
v -4 5 -1
v -3 5 -1
v -2 5 -1
v -1 5 -1
v 0 5 -1
v 1 5 -1
v 2 5 -1
v 3 5 -1
v 4 5 -1
v 5 5 -1
v 6 5 -1
v -6 5 -2
v -4 5 -2
v -3 5 -2
v 0 5 -2
v 1 5 -2
v 4 5 -2
v 5 5 -2
v 6 5 -2
v -6 5 -3
v 6 5 -3
v -6 5 -4
v 6 5 -4
v -6 6 1
v -4 6 1
v -3 6 1
v 4 6 1
v 6 6 1
v -6 6 -0
v -4 6 -0
v -3 6 -0
v -2 6 -0
v -1 6 -0
v 2 6 -0
v 3 6 -0
v 4 6 -0
v -6 6 -1
v -2 6 -1
v -1 6 -1
v 2 6 -1
v 3 6 -1
v 6 6 -1

# faces
f 4/1/1 2/1/1 1/1/1
f 5/1/1 2/1/1 4/1/1
f 6/1/1 2/1/1 5/1/1
f 7/1/1 2/1/1 6/1/1
f 9/1/1 4/1/1 3/1/1
f 9/1/1 5/1/1 4/1/1
f 10/2/1 6/2/1 5/2/1
f 10/1/1 5/1/1 9/1/1
f 11/1/1 8/1/1 7/1/1
f 11/2/1 6/2/1 10/2/1
f 11/1/1 7/1/1 6/1/1
f 12/1/1 8/1/1 11/1/1
f 13/1/1 9/1/1 3/1/1
f 14/1/1 9/1/1 13/1/1
f 15/2/1 10/2/1 9/2/1
f 15/1/1 9/1/1 14/1/1
f 15/2/1 11/2/1 10/2/1
f 15/2/1 12/2/1 11/2/1
f 16/2/1 12/2/1 15/2/1
f 17/2/1 12/2/1 16/2/1
f 18/2/1 12/2/1 17/2/1
f 19/2/1 12/2/1 18/2/1
f 20/1/1 8/1/1 12/1/1
f 20/2/1 12/2/1 19/2/1
f 21/1/1 8/1/1 20/1/1
f 22/1/1 8/1/1 21/1/1
f 23/1/1 15/1/1 14/1/1
f 24/1/1 15/1/1 23/1/1
f 25/2/1 17/2/1 16/2/1
f 26/2/1 17/2/1 25/2/1
f 27/5/1 18/5/1 17/5/1
f 27/2/1 17/2/1 26/2/1
f 28/2/1 19/2/1 18/2/1
f 28/5/1 18/5/1 27/5/1
f 29/2/1 19/2/1 28/2/1
f 30/1/1 21/1/1 20/1/1
f 31/1/1 21/1/1 30/1/1
f 32/3/1 27/3/1 26/3/1
f 33/4/1 28/4/1 27/4/1
f 33/3/1 27/3/1 32/3/1
f 34/4/1 28/4/1 33/4/1
f 35/1/2 36/1/2 38/1/2
f 38/1/2 36/1/2 39/1/2
f 39/1/2 36/1/2 40/1/2
f 40/1/2 36/1/2 41/1/2
f 41/1/2 36/1/2 42/1/2
f 37/1/2 38/1/2 44/1/2
f 38/1/2 39/1/2 44/1/2
f 39/5/2 40/5/2 45/5/2
f 44/1/2 39/1/2 45/1/2
f 40/2/2 41/2/2 46/2/2
f 45/5/2 40/5/2 46/5/2
f 42/1/2 43/1/2 47/1/2
f 46/2/2 41/2/2 47/2/2
f 41/1/2 42/1/2 47/1/2
f 47/1/2 43/1/2 48/1/2
f 44/5/2 45/5/2 49/5/2
f 37/1/2 44/1/2 49/1/2
f 45/2/2 46/2/2 50/2/2
f 49/5/2 45/5/2 50/5/2
f 47/2/2 48/2/2 50/2/2
f 46/2/2 47/2/2 50/2/2
f 50/2/2 48/2/2 51/2/2
f 51/2/2 48/2/2 52/2/2
f 37/1/2 49/1/2 53/1/2
f 53/1/2 49/1/2 54/1/2
f 49/2/2 50/2/2 55/2/2
f 54/1/2 49/1/2 55/1/2
f 50/2/2 51/2/2 55/2/2
f 55/2/2 51/2/2 56/2/2
f 51/5/2 52/5/2 57/5/2
f 56/2/2 51/2/2 57/2/2
f 52/2/2 48/2/2 58/2/2
f 57/5/2 52/5/2 58/5/2
f 58/2/2 48/2/2 59/2/2
f 59/2/2 48/2/2 60/2/2
f 48/1/2 43/1/2 61/1/2
f 60/2/2 48/2/2 61/2/2
f 61/1/2 43/1/2 62/1/2
f 62/1/2 43/1/2 63/1/2
f 54/1/2 55/1/2 64/1/2
f 64/1/2 55/1/2 65/1/2
f 56/2/2 57/2/2 66/2/2
f 57/2/2 58/2/2 66/2/2
f 66/2/2 58/2/2 67/2/2
f 58/5/2 59/5/2 68/5/2
f 67/2/2 58/2/2 68/2/2
f 59/2/2 60/2/2 69/2/2
f 68/5/2 59/5/2 69/5/2
f 69/2/2 60/2/2 70/2/2
f 61/1/2 62/1/2 71/1/2
f 71/1/2 62/1/2 72/1/2
f 67/4/2 68/4/2 73/4/2
f 68/4/2 69/4/2 73/4/2
f 73/4/2 69/4/2 74/4/2
f 77/1/3 76/1/3 75/1/3
f 78/1/3 76/1/3 77/1/3
f 83/1/3 80/1/3 79/1/3
f 84/1/3 80/1/3 83/1/3
f 85/1/3 82/1/3 81/1/3
f 86/1/3 82/1/3 85/1/3
f 89/2/3 88/2/3 87/2/3
f 90/2/3 88/2/3 89/2/3
f 91/5/3 90/5/3 89/5/3
f 92/5/3 90/5/3 91/5/3
f 93/2/3 92/2/3 91/2/3
f 94/2/3 92/2/3 93/2/3
f 95/5/3 94/5/3 93/5/3
f 96/5/3 94/5/3 95/5/3
f 97/2/3 96/2/3 95/2/3
f 98/2/3 96/2/3 97/2/3
f 99/2/3 96/2/3 98/2/3
f 100/5/3 99/5/3 98/5/3
f 101/5/3 99/5/3 100/5/3
f 102/2/3 101/2/3 100/2/3
f 103/2/3 101/2/3 102/2/3
f 104/2/3 101/2/3 103/2/3
f 107/3/3 106/3/3 105/3/3
f 108/3/3 106/3/3 107/3/3
f 109/4/3 108/4/3 107/4/3
f 110/4/3 108/4/3 109/4/3
f 111/3/3 110/3/3 109/3/3
f 112/3/3 110/3/3 111/3/3
f 113/3/3 110/3/3 112/3/3
f 114/3/3 110/3/3 113/3/3
f 115/3/3 110/3/3 114/3/3
f 116/4/3 115/4/3 114/4/3
f 117/4/3 115/4/3 116/4/3
f 120/1/3 119/1/3 118/1/3
f 121/1/3 119/1/3 120/1/3
f 122/1/3 119/1/3 121/1/3
f 123/1/3 119/1/3 122/1/3
f 124/1/3 119/1/3 123/1/3
f 125/1/3 119/1/3 124/1/3
f 126/1/3 119/1/3 125/1/3
f 127/1/3 119/1/3 126/1/3
f 128/1/4 129/1/4 130/1/4
f 130/1/4 129/1/4 131/1/4
f 131/1/4 129/1/4 132/1/4
f 132/1/4 129/1/4 133/1/4
f 133/1/4 129/1/4 134/1/4
f 134/1/4 129/1/4 135/1/4
f 135/1/4 129/1/4 136/1/4
f 136/1/4 129/1/4 137/1/4
f 138/4/4 139/4/4 140/4/4
f 140/4/4 139/4/4 141/4/4
f 141/4/4 139/4/4 142/4/4
f 142/4/4 139/4/4 143/4/4
f 142/3/4 143/3/4 144/3/4
f 144/3/4 143/3/4 145/3/4
f 144/4/4 145/4/4 146/4/4
f 146/4/4 145/4/4 147/4/4
f 147/4/4 145/4/4 148/4/4
f 148/4/4 145/4/4 149/4/4
f 148/3/4 149/3/4 150/3/4
f 150/3/4 149/3/4 151/3/4
f 150/4/4 151/4/4 152/4/4
f 152/4/4 151/4/4 153/4/4
f 153/4/4 151/4/4 154/4/4
f 154/4/4 151/4/4 155/4/4
f 156/2/4 157/2/4 158/2/4
f 158/2/4 157/2/4 159/2/4
f 159/2/4 157/2/4 160/2/4
f 159/5/4 160/5/4 161/5/4
f 161/5/4 160/5/4 162/5/4
f 161/2/4 162/2/4 163/2/4
f 163/2/4 162/2/4 164/2/4
f 164/2/4 162/2/4 165/2/4
f 164/5/4 165/5/4 166/5/4
f 166/5/4 165/5/4 167/5/4
f 166/2/4 167/2/4 168/2/4
f 168/2/4 167/2/4 169/2/4
f 169/2/4 167/2/4 170/2/4
f 169/5/4 170/5/4 171/5/4
f 171/5/4 170/5/4 172/5/4
f 171/2/4 172/2/4 173/2/4
f 173/2/4 172/2/4 174/2/4
f 175/1/4 176/1/4 179/1/4
f 179/1/4 176/1/4 180/1/4
f 177/1/4 178/1/4 181/1/4
f 181/1/4 178/1/4 182/1/4
f 183/1/4 184/1/4 185/1/4
f 185/1/4 184/1/4 186/1/4
f 189/1/5 188/1/5 187/1/5
f 190/1/5 188/1/5 189/1/5
f 193/1/5 192/1/5 191/1/5
f 194/1/5 192/1/5 193/1/5
f 197/1/5 196/1/5 195/1/5
f 198/1/5 196/1/5 197/1/5
f 199/1/6 200/1/6 201/1/6
f 201/1/6 200/1/6 202/1/6
f 203/2/6 204/2/6 211/2/6
f 204/5/6 205/5/6 212/5/6
f 211/2/6 204/2/6 212/2/6
f 205/2/6 206/2/6 213/2/6
f 212/5/6 205/5/6 213/5/6
f 213/2/6 206/2/6 214/2/6
f 206/5/6 207/5/6 215/5/6
f 214/2/6 206/2/6 215/2/6
f 207/2/6 208/2/6 216/2/6
f 215/5/6 207/5/6 216/5/6
f 216/2/6 208/2/6 217/2/6
f 208/5/6 209/5/6 218/5/6
f 217/2/6 208/2/6 218/2/6
f 209/2/6 210/2/6 219/2/6
f 218/5/6 209/5/6 219/5/6
f 219/2/6 210/2/6 220/2/6
f 221/2/6 222/2/6 232/2/6
f 222/5/6 223/5/6 233/5/6
f 232/2/6 222/2/6 233/2/6
f 223/2/6 224/2/6 234/2/6
f 233/5/6 223/5/6 234/5/6
f 224/2/6 225/2/6 234/2/6
f 225/5/6 226/5/6 235/5/6
f 234/2/6 225/2/6 235/2/6
f 226/2/6 227/2/6 236/2/6
f 235/5/6 226/5/6 236/5/6
f 227/2/6 228/2/6 236/2/6
f 228/5/6 229/5/6 237/5/6
f 236/2/6 228/2/6 237/2/6
f 230/2/6 231/2/6 238/2/6
f 237/5/6 229/5/6 238/5/6
f 229/2/6 230/2/6 238/2/6
f 238/2/6 231/2/6 239/2/6
f 240/1/6 241/1/6 242/1/6
f 242/1/6 241/1/6 243/1/6
f 244/1/6 245/1/6 246/1/6
f 246/1/6 245/1/6 247/1/6
f 248/2/6 249/2/6 256/2/6
f 249/5/6 250/5/6 257/5/6
f 256/2/6 249/2/6 257/2/6
f 250/2/6 251/2/6 258/2/6
f 257/5/6 250/5/6 258/5/6
f 251/5/6 252/5/6 259/5/6
f 258/2/6 251/2/6 259/2/6
f 252/2/6 253/2/6 260/2/6
f 259/5/6 252/5/6 260/5/6
f 253/5/6 254/5/6 261/5/6
f 260/2/6 253/2/6 261/2/6
f 254/2/6 255/2/6 262/2/6
f 261/5/6 254/5/6 262/5/6
f 262/2/6 255/2/6 263/2/6
f 264/2/6 265/2/6 276/2/6
f 265/5/6 266/5/6 277/5/6
f 276/2/6 265/2/6 277/2/6
f 266/2/6 267/2/6 278/2/6
f 277/5/6 266/5/6 278/5/6
f 267/2/6 268/2/6 278/2/6
f 268/2/6 269/2/6 278/2/6
f 269/5/6 270/5/6 279/5/6
f 278/2/6 269/2/6 279/2/6
f 272/2/6 273/2/6 280/2/6
f 279/5/6 270/5/6 280/5/6
f 270/2/6 271/2/6 280/2/6
f 271/2/6 272/2/6 280/2/6
f 273/5/6 274/5/6 281/5/6
f 280/2/6 273/2/6 281/2/6
f 274/2/6 275/2/6 282/2/6
f 281/5/6 274/5/6 282/5/6
f 282/2/6 275/2/6 283/2/6
f 284/1/6 285/1/6 286/1/6
f 286/1/6 285/1/6 287/1/6
f 288/3/6 289/3/6 293/3/6
f 289/4/6 290/4/6 294/4/6
f 293/3/6 289/3/6 294/3/6
f 290/3/6 291/3/6 295/3/6
f 294/4/6 290/4/6 295/4/6
f 295/3/6 291/3/6 296/3/6
f 296/3/6 291/3/6 297/3/6
f 297/3/6 291/3/6 298/3/6
f 298/3/6 291/3/6 299/3/6
f 291/4/6 292/4/6 300/4/6
f 299/3/6 291/3/6 300/3/6
f 293/4/6 294/4/6 301/4/6
f 294/4/6 295/4/6 301/4/6
f 295/4/6 296/4/6 301/4/6
f 296/3/6 297/3/6 302/3/6
f 301/4/6 296/4/6 302/4/6
f 297/4/6 298/4/6 303/4/6
f 302/3/6 297/3/6 303/3/6
f 298/3/6 299/3/6 304/3/6
f 303/4/6 298/4/6 304/4/6
f 299/4/6 300/4/6 305/4/6
f 304/3/6 299/3/6 305/3/6
f 300/4/6 292/4/6 306/4/6
f 305/4/6 300/4/6 306/4/6
