# MagicaVoxel @ Ephtracy

# group
g done_micro

# material
mtllib done_micro.mtl
usemtl palette

# normals
vn -1 0 0
vn 1 0 0
vn 0 0 1
vn 0 0 -1
vn 0 -1 0
vn 0 1 0

# texcoords
vt 0.880859 0.5
vt 0.970703 0.5
vt 0.986328 0.5
vt 0.994141 0.5

# verts
v -7.5 0 5.5
v -7.5 0 -5.5
v -7.5 8 5.5
v -7.5 8 -5.5
v 7.5 0 5.5
v 7.5 0 -5.5
v 7.5 8 5.5
v 7.5 8 -5.5
v -7.5 0 5.5
v -7.5 8 5.5
v -6.5 1 5.5
v -6.5 7 5.5
v 3.5 1 5.5
v 3.5 7 5.5
v 4.5 2 5.5
v 4.5 3 5.5
v 4.5 6 5.5
v 4.5 7 5.5
v 6.5 2 5.5
v 6.5 3 5.5
v 6.5 6 5.5
v 6.5 7 5.5
v 7.5 0 5.5
v 7.5 8 5.5
v -7.5 0 -5.5
v -7.5 8 -5.5
v 7.5 0 -5.5
v 7.5 8 -5.5
v -7.5 0 5.5
v 7.5 0 5.5
v -7.5 0 -5.5
v 7.5 0 -5.5
v -7.5 8 5.5
v 7.5 8 5.5
v -7.5 8 -5.5
v 7.5 8 -5.5

# faces
f 3/3/1 2/3/1 1/3/1
f 4/3/1 2/3/1 3/3/1
f 5/3/2 6/3/2 7/3/2
f 7/3/2 6/3/2 8/3/2
f 11/3/3 10/3/3 9/3/3
f 12/3/3 10/3/3 11/3/3
f 13/3/3 11/3/3 9/3/3
f 13/2/3 12/2/3 11/2/3
f 14/3/3 10/3/3 12/3/3
f 14/2/3 12/2/3 13/2/3
f 15/3/3 14/3/3 13/3/3
f 16/3/3 14/3/3 15/3/3
f 17/3/3 14/3/3 16/3/3
f 18/3/3 10/3/3 14/3/3
f 18/3/3 14/3/3 17/3/3
f 19/3/3 15/3/3 13/3/3
f 19/4/3 16/4/3 15/4/3
f 20/1/3 17/1/3 16/1/3
f 20/4/3 16/4/3 19/4/3
f 21/4/3 18/4/3 17/4/3
f 21/1/3 17/1/3 20/1/3
f 22/3/3 10/3/3 18/3/3
f 22/4/3 18/4/3 21/4/3
f 23/3/3 13/3/3 9/3/3
f 23/3/3 19/3/3 13/3/3
f 23/3/3 22/3/3 21/3/3
f 23/3/3 20/3/3 19/3/3
f 23/3/3 21/3/3 20/3/3
f 24/3/3 10/3/3 22/3/3
f 24/3/3 22/3/3 23/3/3
f 25/3/4 26/3/4 27/3/4
f 27/3/4 26/3/4 28/3/4
f 31/3/5 30/3/5 29/3/5
f 32/3/5 30/3/5 31/3/5
f 33/3/6 34/3/6 35/3/6
f 35/3/6 34/3/6 36/3/6
