# MagicaVoxel @ Ephtracy

# group
g foodTruck

# material
mtllib foodTruck.mtl
usemtl palette

# normals
vn -1 0 0
vn 1 0 0
vn 0 0 1
vn 0 0 -1
vn 0 -1 0
vn 0 1 0

# texcoords
vt 0.0214844 0.5
vt 0.158203 0.5
vt 0.181641 0.5
vt 0.341797 0.5
vt 0.373047 0.5
vt 0.591797 0.5
vt 0.841797 0.5
vt 0.845703 0.5
vt 0.869141 0.5
vt 0.974609 0.5
vt 0.982422 0.5
vt 0.986328 0.5
vt 0.994141 0.5

# verts
v -46 1 27
v -46 1 -27
v -46 3 27
v -46 3 14
v -46 3 12
v -46 3 -12
v -46 3 -14
v -46 3 -27
v -46 13 27
v -46 13 14
v -46 13 12
v -46 13 -12
v -46 13 -14
v -46 13 -27
v -46 17 27
v -46 17 -27
v -44 0 27
v -44 0 -27
v -44 1 27
v -44 1 -27
v -29 17 27
v -29 17 -27
v -29 18 25
v -29 18 -25
v -29 20 23
v -29 20 -23
v -29 41 25
v -29 41 23
v -29 41 -23
v -29 41 -25
v -29 44 27
v -29 44 -27
v -2 8 10
v -2 8 9
v -2 8 -6
v -2 8 -7
v -2 16 27
v -2 16 26
v -2 16 10
v -2 16 -7
v -2 16 -24
v -2 17 27
v -2 17 9
v -2 17 -6
v -2 17 -24
v 21 8 10
v 21 8 9
v 21 8 -6
v 21 8 -7
v 21 16 27
v 21 16 26
v 21 16 10
v 21 16 -7
v 21 16 -24
v 21 17 27
v 21 17 9
v 21 17 -6
v 21 17 -24
v 43 8 9
v 43 8 -6
v 43 17 27
v 43 17 26
v 43 17 9
v 43 17 -6
v 43 17 -24
v 43 43 26
v 43 43 -24
v 43 44 27
v 43 44 -24
v -26 8 9
v -26 8 -6
v -26 17 27
v -26 17 26
v -26 17 9
v -26 17 -6
v -26 17 -24
v -26 43 26
v -26 43 -24
v -26 44 27
v -26 44 -24
v -4 8 10
v -4 8 9
v -4 8 -6
v -4 8 -7
v -4 16 27
v -4 16 26
v -4 16 10
v -4 16 -7
v -4 16 -24
v -4 17 27
v -4 17 9
v -4 17 -6
v -4 17 -24
v 19 8 10
v 19 8 9
v 19 8 -6
v 19 8 -7
v 19 16 27
v 19 16 26
v 19 16 10
v 19 16 -7
v 19 16 -24
v 19 17 27
v 19 17 9
v 19 17 -6
v 19 17 -24
v 46 0 27
v 46 0 26
v 46 0 -26
v 46 0 -27
v 46 1 27
v 46 1 26
v 46 1 -26
v 46 1 -27
v 46 3 27
v 46 3 18
v 46 3 -18
v 46 3 -27
v 46 13 27
v 46 13 18
v 46 13 -18
v 46 13 -27
v 46 14 27
v 46 14 -27
v 46 17 23
v 46 17 -23
v 46 41 23
v 46 41 -23
v 46 44 27
v 46 44 -27
v -46 1 27
v -46 3 27
v -46 13 27
v -46 17 27
v -44 0 27
v -44 1 27
v -38 3 27
v -38 13 27
v -36 0 27
v -36 1 27
v -36 2 27
v -35 2 27
v -35 4 27
v -34 4 27
v -34 5 27
v -33 5 27
v -33 6 27
v -29 14 27
v -29 17 27
v -29 44 27
v -26 16 27
v -26 17 27
v -26 44 27
v -25 5 27
v -25 6 27
v -24 4 27
v -24 5 27
v -23 2 27
v -23 4 27
v -22 0 27
v -22 1 27
v -22 2 27
v -19 5 27
v -19 11 27
v -18 4 27
v -18 5 27
v -18 11 27
v -18 12 27
v -16 6 27
v -16 10 27
v -15 7 27
v -15 9 27
v -4 16 27
v -4 17 27
v -2 16 27
v -2 17 27
v 19 16 27
v 19 17 27
v 20 7 27
v 20 9 27
v 21 16 27
v 21 17 27
v 22 6 27
v 22 10 27
v 23 4 27
v 23 5 27
v 23 11 27
v 23 12 27
v 24 0 27
v 24 1 27
v 24 2 27
v 24 5 27
v 24 11 27
v 25 2 27
v 25 4 27
v 26 4 27
v 26 5 27
v 27 5 27
v 27 6 27
v 35 5 27
v 35 6 27
v 36 4 27
v 36 5 27
v 37 2 27
v 37 4 27
v 38 0 27
v 38 1 27
v 38 2 27
v 40 3 27
v 40 13 27
v 43 16 27
v 43 17 27
v 43 44 27
v 46 0 27
v 46 1 27
v 46 3 27
v 46 13 27
v 46 14 27
v 46 44 27
v -26 8 -6
v -26 17 -6
v -4 8 -6
v -4 17 -6
v -2 8 -6
v -2 17 -6
v 19 8 -6
v 19 17 -6
v 21 8 -6
v 21 17 -6
v 43 8 -6
v 43 17 -6
v -4 8 -7
v -4 16 -7
v -2 8 -7
v -2 16 -7
v 19 8 -7
v 19 16 -7
v 21 8 -7
v 21 16 -7
v -26 17 -24
v -26 43 -24
v -26 44 -24
v -4 16 -24
v -4 17 -24
v -2 16 -24
v -2 17 -24
v 19 16 -24
v 19 17 -24
v 21 16 -24
v 21 17 -24
v 43 17 -24
v 43 43 -24
v 43 44 -24
v -4 8 10
v -4 16 10
v -2 8 10
v -2 16 10
v 19 8 10
v 19 16 10
v 21 8 10
v 21 16 10
v -26 8 9
v -26 17 9
v -4 8 9
v -4 17 9
v -2 8 9
v -2 17 9
v 19 8 9
v 19 17 9
v 21 8 9
v 21 17 9
v 43 8 9
v 43 17 9
v -46 1 -27
v -46 3 -27
v -46 13 -27
v -46 17 -27
v -44 0 -27
v -44 1 -27
v -38 3 -27
v -38 13 -27
v -36 0 -27
v -36 1 -27
v -36 2 -27
v -35 2 -27
v -35 4 -27
v -34 4 -27
v -34 5 -27
v -33 5 -27
v -33 6 -27
v -29 17 -27
v -29 44 -27
v -28 17 -27
v -28 41 -27
v -25 5 -27
v -25 6 -27
v -24 4 -27
v -24 5 -27
v -23 2 -27
v -23 4 -27
v -22 0 -27
v -22 1 -27
v -22 2 -27
v 24 0 -27
v 24 1 -27
v 24 2 -27
v 25 2 -27
v 25 4 -27
v 26 4 -27
v 26 5 -27
v 27 5 -27
v 27 6 -27
v 35 5 -27
v 35 6 -27
v 36 4 -27
v 36 5 -27
v 37 2 -27
v 37 4 -27
v 38 0 -27
v 38 1 -27
v 38 2 -27
v 40 3 -27
v 40 13 -27
v 45 14 -27
v 45 41 -27
v 46 0 -27
v 46 1 -27
v 46 3 -27
v 46 13 -27
v 46 14 -27
v 46 44 -27
v -44 0 27
v -36 0 27
v -22 0 27
v 24 0 27
v 38 0 27
v 46 0 27
v -43 0 26
v -36 0 26
v -22 0 26
v 24 0 26
v 38 0 26
v 45 0 26
v 46 0 26
v -43 0 -26
v -36 0 -26
v -22 0 -26
v 24 0 -26
v 38 0 -26
v 45 0 -26
v 46 0 -26
v -44 0 -27
v -36 0 -27
v -22 0 -27
v 24 0 -27
v 38 0 -27
v 46 0 -27
v -46 1 27
v -44 1 27
v -46 1 -27
v -44 1 -27
v -4 8 10
v -2 8 10
v 19 8 10
v 21 8 10
v -26 8 9
v -4 8 9
v -2 8 9
v 19 8 9
v 21 8 9
v 43 8 9
v -26 8 -6
v -4 8 -6
v -2 8 -6
v 19 8 -6
v 21 8 -6
v 43 8 -6
v -4 8 -7
v -2 8 -7
v 19 8 -7
v 21 8 -7
v -4 16 27
v -2 16 27
v 19 16 27
v 21 16 27
v -4 16 26
v -2 16 26
v 19 16 26
v 21 16 26
v -4 16 10
v -2 16 10
v 19 16 10
v 21 16 10
v -4 16 -7
v -2 16 -7
v 19 16 -7
v 21 16 -7
v -4 16 -24
v -2 16 -24
v 19 16 -24
v 21 16 -24
v -46 17 27
v -29 17 27
v -26 17 27
v -4 17 27
v -2 17 27
v 19 17 27
v 21 17 27
v 43 17 27
v -26 17 26
v 43 17 26
v -26 17 9
v -4 17 9
v -2 17 9
v 19 17 9
v 21 17 9
v 43 17 9
v -26 17 -6
v -4 17 -6
v -2 17 -6
v 19 17 -6
v 21 17 -6
v 43 17 -6
v -26 17 -24
v -4 17 -24
v -2 17 -24
v 19 17 -24
v 21 17 -24
v 43 17 -24
v -46 17 -27
v -29 17 -27
v -29 44 27
v -26 44 27
v 43 44 27
v 46 44 27
v -26 44 -24
v 43 44 -24
v -29 44 -27
v 46 44 -27

# faces
f 3/3/1 2/3/1 1/3/1
f 4/3/1 2/3/1 3/3/1
f 5/3/1 2/3/1 4/3/1
f 6/3/1 2/3/1 5/3/1
f 7/3/1 2/3/1 6/3/1
f 8/3/1 2/3/1 7/3/1
f 9/2/1 4/2/1 3/2/1
f 10/3/1 5/3/1 4/3/1
f 10/2/1 4/2/1 9/2/1
f 11/12/1 6/12/1 5/12/1
f 11/3/1 5/3/1 10/3/1
f 12/3/1 7/3/1 6/3/1
f 12/12/1 6/12/1 11/12/1
f 13/2/1 8/2/1 7/2/1
f 13/3/1 7/3/1 12/3/1
f 14/2/1 8/2/1 13/2/1
f 15/3/1 10/3/1 9/3/1
f 15/3/1 11/3/1 10/3/1
f 15/3/1 14/3/1 13/3/1
f 15/3/1 13/3/1 12/3/1
f 15/3/1 12/3/1 11/3/1
f 16/3/1 14/3/1 15/3/1
f 19/11/1 18/11/1 17/11/1
f 20/11/1 18/11/1 19/11/1
f 23/9/1 22/9/1 21/9/1
f 24/9/1 22/9/1 23/9/1
f 25/3/1 24/3/1 23/3/1
f 26/3/1 24/3/1 25/3/1
f 27/9/1 23/9/1 21/9/1
f 27/3/1 25/3/1 23/3/1
f 28/6/1 26/6/1 25/6/1
f 28/3/1 25/3/1 27/3/1
f 29/3/1 24/3/1 26/3/1
f 29/6/1 26/6/1 28/6/1
f 30/9/1 22/9/1 24/9/1
f 30/3/1 24/3/1 29/3/1
f 31/9/1 28/9/1 27/9/1
f 31/9/1 29/9/1 28/9/1
f 31/9/1 30/9/1 29/9/1
f 31/9/1 27/9/1 21/9/1
f 32/9/1 22/9/1 30/9/1
f 32/9/1 30/9/1 31/9/1
f 39/5/1 34/5/1 33/5/1
f 40/5/1 36/5/1 35/5/1
f 42/5/1 38/5/1 37/5/1
f 42/5/1 39/5/1 38/5/1
f 43/5/1 34/5/1 39/5/1
f 43/5/1 39/5/1 42/5/1
f 44/5/1 41/5/1 40/5/1
f 44/5/1 40/5/1 35/5/1
f 45/5/1 41/5/1 44/5/1
f 52/5/1 47/5/1 46/5/1
f 53/5/1 49/5/1 48/5/1
f 55/5/1 51/5/1 50/5/1
f 55/5/1 52/5/1 51/5/1
f 56/5/1 47/5/1 52/5/1
f 56/5/1 52/5/1 55/5/1
f 57/5/1 54/5/1 53/5/1
f 57/5/1 53/5/1 48/5/1
f 58/5/1 54/5/1 57/5/1
f 63/4/1 60/4/1 59/4/1
f 64/4/1 60/4/1 63/4/1
f 66/9/1 62/9/1 61/9/1
f 66/4/1 65/4/1 64/4/1
f 66/4/1 64/4/1 63/4/1
f 66/4/1 63/4/1 62/4/1
f 67/4/1 65/4/1 66/4/1
f 68/9/1 66/9/1 61/9/1
f 68/9/1 67/9/1 66/9/1
f 69/9/1 67/9/1 68/9/1
f 70/4/2 71/4/2 74/4/2
f 74/4/2 71/4/2 75/4/2
f 72/9/2 73/9/2 77/9/2
f 75/4/2 76/4/2 77/4/2
f 74/4/2 75/4/2 77/4/2
f 73/4/2 74/4/2 77/4/2
f 77/4/2 76/4/2 78/4/2
f 72/9/2 77/9/2 79/9/2
f 77/9/2 78/9/2 79/9/2
f 79/9/2 78/9/2 80/9/2
f 81/5/2 82/5/2 87/5/2
f 83/5/2 84/5/2 88/5/2
f 85/5/2 86/5/2 90/5/2
f 86/5/2 87/5/2 90/5/2
f 87/5/2 82/5/2 91/5/2
f 90/5/2 87/5/2 91/5/2
f 88/5/2 89/5/2 92/5/2
f 83/5/2 88/5/2 92/5/2
f 92/5/2 89/5/2 93/5/2
f 94/5/2 95/5/2 100/5/2
f 96/5/2 97/5/2 101/5/2
f 98/5/2 99/5/2 103/5/2
f 99/5/2 100/5/2 103/5/2
f 100/5/2 95/5/2 104/5/2
f 103/5/2 100/5/2 104/5/2
f 101/5/2 102/5/2 105/5/2
f 96/5/2 101/5/2 105/5/2
f 105/5/2 102/5/2 106/5/2
f 107/11/2 108/11/2 111/11/2
f 108/3/2 109/3/2 112/3/2
f 111/11/2 108/11/2 112/11/2
f 109/11/2 110/11/2 113/11/2
f 112/3/2 109/3/2 113/3/2
f 113/11/2 110/11/2 114/11/2
f 111/3/2 112/3/2 115/3/2
f 112/3/2 113/3/2 115/3/2
f 113/3/2 114/3/2 115/3/2
f 115/3/2 114/3/2 116/3/2
f 116/3/2 114/3/2 117/3/2
f 117/3/2 114/3/2 118/3/2
f 115/7/2 116/7/2 119/7/2
f 116/3/2 117/3/2 120/3/2
f 119/7/2 116/7/2 120/7/2
f 117/7/2 118/7/2 121/7/2
f 120/3/2 117/3/2 121/3/2
f 121/7/2 118/7/2 122/7/2
f 119/3/2 120/3/2 123/3/2
f 120/3/2 121/3/2 123/3/2
f 121/3/2 122/3/2 123/3/2
f 123/3/2 122/3/2 124/3/2
f 123/9/2 124/9/2 125/9/2
f 125/9/2 124/9/2 126/9/2
f 123/9/2 125/9/2 127/9/2
f 125/6/2 126/6/2 127/6/2
f 126/9/2 124/9/2 128/9/2
f 127/6/2 126/6/2 128/6/2
f 123/9/2 127/9/2 129/9/2
f 127/9/2 128/9/2 129/9/2
f 128/9/2 124/9/2 130/9/2
f 129/9/2 128/9/2 130/9/2
f 136/3/3 132/3/3 131/3/3
f 137/2/3 133/2/3 132/2/3
f 137/3/3 132/3/3 136/3/3
f 138/3/3 134/3/3 133/3/3
f 138/2/3 133/2/3 137/2/3
f 139/11/3 136/11/3 135/11/3
f 140/3/3 137/3/3 136/3/3
f 140/11/3 136/11/3 139/11/3
f 140/3/3 138/3/3 137/3/3
f 141/3/3 138/3/3 140/3/3
f 142/13/3 140/13/3 139/13/3
f 142/3/3 138/3/3 141/3/3
f 142/13/3 141/13/3 140/13/3
f 143/3/3 138/3/3 142/3/3
f 144/13/3 143/13/3 142/13/3
f 144/3/3 138/3/3 143/3/3
f 145/3/3 138/3/3 144/3/3
f 146/13/3 145/13/3 144/13/3
f 146/3/3 138/3/3 145/3/3
f 147/3/3 138/3/3 146/3/3
f 148/3/3 134/3/3 138/3/3
f 148/3/3 138/3/3 147/3/3
f 149/3/3 134/3/3 148/3/3
f 151/9/3 149/9/3 148/9/3
f 151/9/3 150/9/3 149/9/3
f 152/9/3 150/9/3 151/9/3
f 153/9/3 150/9/3 152/9/3
f 154/13/3 147/13/3 146/13/3
f 154/13/3 146/13/3 144/13/3
f 155/3/3 148/3/3 147/3/3
f 155/13/3 147/13/3 154/13/3
f 156/13/3 144/13/3 142/13/3
f 156/13/3 154/13/3 144/13/3
f 157/3/3 155/3/3 154/3/3
f 157/13/3 154/13/3 156/13/3
f 158/13/3 142/13/3 139/13/3
f 158/13/3 156/13/3 142/13/3
f 159/3/3 157/3/3 156/3/3
f 159/13/3 156/13/3 158/13/3
f 160/13/3 158/13/3 139/13/3
f 161/13/3 158/13/3 160/13/3
f 162/3/3 159/3/3 158/3/3
f 162/13/3 158/13/3 161/13/3
f 163/3/3 155/3/3 157/3/3
f 163/3/3 159/3/3 162/3/3
f 163/3/3 162/3/3 161/3/3
f 163/3/3 157/3/3 159/3/3
f 164/3/3 148/3/3 155/3/3
f 164/3/3 155/3/3 163/3/3
f 165/3/3 163/3/3 161/3/3
f 166/9/3 164/9/3 163/9/3
f 166/3/3 163/3/3 165/3/3
f 167/3/3 148/3/3 164/3/3
f 167/9/3 164/9/3 166/9/3
f 168/3/3 148/3/3 167/3/3
f 169/9/3 166/9/3 165/9/3
f 169/9/3 167/9/3 166/9/3
f 169/9/3 168/9/3 167/9/3
f 170/9/3 168/9/3 169/9/3
f 171/8/3 170/8/3 169/8/3
f 172/8/3 170/8/3 171/8/3
f 173/5/3 152/5/3 151/5/3
f 173/9/3 151/9/3 148/9/3
f 174/5/3 152/5/3 173/5/3
f 175/9/3 173/9/3 148/9/3
f 177/9/3 175/9/3 148/9/3
f 177/5/3 176/5/3 175/5/3
f 178/5/3 176/5/3 177/5/3
f 179/1/3 172/1/3 171/1/3
f 179/8/3 171/8/3 169/8/3
f 180/8/3 170/8/3 172/8/3
f 180/1/3 172/1/3 179/1/3
f 181/9/3 177/9/3 148/9/3
f 183/8/3 179/8/3 169/8/3
f 183/9/3 169/9/3 165/9/3
f 183/8/3 180/8/3 179/8/3
f 184/9/3 168/9/3 170/9/3
f 184/8/3 180/8/3 183/8/3
f 184/8/3 170/8/3 180/8/3
f 185/3/3 165/3/3 161/3/3
f 185/9/3 183/9/3 165/9/3
f 185/9/3 184/9/3 183/9/3
f 186/9/3 184/9/3 185/9/3
f 187/9/3 168/9/3 184/9/3
f 187/9/3 184/9/3 186/9/3
f 188/3/3 148/3/3 168/3/3
f 188/9/3 168/9/3 187/9/3
f 189/11/3 161/11/3 160/11/3
f 190/3/3 186/3/3 185/3/3
f 190/11/3 161/11/3 189/11/3
f 190/3/3 185/3/3 161/3/3
f 191/3/3 186/3/3 190/3/3
f 192/9/3 187/9/3 186/9/3
f 192/3/3 186/3/3 191/3/3
f 193/3/3 188/3/3 187/3/3
f 193/9/3 187/9/3 192/9/3
f 194/13/3 191/13/3 190/13/3
f 194/3/3 192/3/3 191/3/3
f 194/3/3 193/3/3 192/3/3
f 194/13/3 190/13/3 189/13/3
f 195/3/3 193/3/3 194/3/3
f 196/13/3 195/13/3 194/13/3
f 196/3/3 193/3/3 195/3/3
f 197/3/3 193/3/3 196/3/3
f 198/13/3 197/13/3 196/13/3
f 198/3/3 193/3/3 197/3/3
f 199/3/3 193/3/3 198/3/3
f 200/13/3 198/13/3 196/13/3
f 200/13/3 199/13/3 198/13/3
f 201/3/3 193/3/3 199/3/3
f 201/13/3 199/13/3 200/13/3
f 202/13/3 196/13/3 194/13/3
f 202/13/3 200/13/3 196/13/3
f 203/3/3 201/3/3 200/3/3
f 203/13/3 200/13/3 202/13/3
f 204/13/3 194/13/3 189/13/3
f 204/13/3 202/13/3 194/13/3
f 205/3/3 203/3/3 202/3/3
f 205/13/3 202/13/3 204/13/3
f 206/13/3 204/13/3 189/13/3
f 207/13/3 204/13/3 206/13/3
f 208/3/3 205/3/3 204/3/3
f 208/13/3 204/13/3 207/13/3
f 209/3/3 208/3/3 207/3/3
f 209/3/3 205/3/3 208/3/3
f 210/3/3 188/3/3 193/3/3
f 210/3/3 205/3/3 209/3/3
f 210/3/3 148/3/3 188/3/3
f 210/3/3 201/3/3 203/3/3
f 210/3/3 193/3/3 201/3/3
f 210/3/3 203/3/3 205/3/3
f 211/5/3 182/5/3 181/5/3
f 211/9/3 181/9/3 148/9/3
f 212/5/3 182/5/3 211/5/3
f 214/11/3 207/11/3 206/11/3
f 215/3/3 209/3/3 207/3/3
f 215/11/3 207/11/3 214/11/3
f 216/7/3 210/7/3 209/7/3
f 216/3/3 209/3/3 215/3/3
f 217/3/3 148/3/3 210/3/3
f 217/7/3 210/7/3 216/7/3
f 218/9/3 212/9/3 211/9/3
f 218/3/3 148/3/3 217/3/3
f 218/9/3 211/9/3 148/9/3
f 218/9/3 213/9/3 212/9/3
f 219/9/3 213/9/3 218/9/3
f 222/5/3 221/5/3 220/5/3
f 223/5/3 221/5/3 222/5/3
f 226/5/3 225/5/3 224/5/3
f 227/5/3 225/5/3 226/5/3
f 230/5/3 229/5/3 228/5/3
f 231/5/3 229/5/3 230/5/3
f 234/5/3 233/5/3 232/5/3
f 235/5/3 233/5/3 234/5/3
f 238/5/3 237/5/3 236/5/3
f 239/5/3 237/5/3 238/5/3
f 244/4/3 241/4/3 240/4/3
f 245/4/3 244/4/3 243/4/3
f 246/4/3 241/4/3 244/4/3
f 246/4/3 244/4/3 245/4/3
f 248/4/3 241/4/3 246/4/3
f 249/4/3 248/4/3 247/4/3
f 250/4/3 241/4/3 248/4/3
f 250/4/3 248/4/3 249/4/3
f 251/4/3 241/4/3 250/4/3
f 252/9/3 242/9/3 241/9/3
f 252/4/3 241/4/3 251/4/3
f 253/9/3 242/9/3 252/9/3
f 254/5/4 255/5/4 256/5/4
f 256/5/4 255/5/4 257/5/4
f 258/5/4 259/5/4 260/5/4
f 260/5/4 259/5/4 261/5/4
f 262/5/4 263/5/4 264/5/4
f 264/5/4 263/5/4 265/5/4
f 266/5/4 267/5/4 268/5/4
f 268/5/4 267/5/4 269/5/4
f 270/5/4 271/5/4 272/5/4
f 272/5/4 271/5/4 273/5/4
f 274/3/4 275/3/4 279/3/4
f 275/2/4 276/2/4 280/2/4
f 279/3/4 275/3/4 280/3/4
f 276/3/4 277/3/4 281/3/4
f 280/2/4 276/2/4 281/2/4
f 278/11/4 279/11/4 282/11/4
f 279/3/4 280/3/4 283/3/4
f 282/11/4 279/11/4 283/11/4
f 280/3/4 281/3/4 283/3/4
f 283/3/4 281/3/4 284/3/4
f 282/13/4 283/13/4 285/13/4
f 284/3/4 281/3/4 285/3/4
f 283/13/4 284/13/4 285/13/4
f 285/3/4 281/3/4 286/3/4
f 285/13/4 286/13/4 287/13/4
f 286/3/4 281/3/4 287/3/4
f 287/3/4 281/3/4 288/3/4
f 287/13/4 288/13/4 289/13/4
f 288/3/4 281/3/4 289/3/4
f 289/3/4 281/3/4 290/3/4
f 281/3/4 277/3/4 291/3/4
f 290/3/4 281/3/4 291/3/4
f 290/3/4 291/3/4 293/3/4
f 291/9/4 292/9/4 293/9/4
f 293/9/4 292/9/4 294/9/4
f 289/13/4 290/13/4 295/13/4
f 287/13/4 289/13/4 295/13/4
f 293/3/4 294/3/4 296/3/4
f 295/13/4 290/13/4 296/13/4
f 290/3/4 293/3/4 296/3/4
f 285/13/4 287/13/4 297/13/4
f 287/13/4 295/13/4 297/13/4
f 295/3/4 296/3/4 298/3/4
f 297/13/4 295/13/4 298/13/4
f 282/13/4 285/13/4 299/13/4
f 285/13/4 297/13/4 299/13/4
f 297/3/4 298/3/4 300/3/4
f 299/13/4 297/13/4 300/13/4
f 282/13/4 299/13/4 301/13/4
f 301/13/4 299/13/4 302/13/4
f 299/3/4 300/3/4 303/3/4
f 302/13/4 299/13/4 303/13/4
f 301/11/4 302/11/4 304/11/4
f 302/3/4 303/3/4 305/3/4
f 304/11/4 302/11/4 305/11/4
f 303/3/4 300/3/4 306/3/4
f 305/3/4 303/3/4 306/3/4
f 304/13/4 305/13/4 307/13/4
f 306/3/4 300/3/4 307/3/4
f 305/13/4 306/13/4 307/13/4
f 300/3/4 298/3/4 308/3/4
f 307/3/4 300/3/4 308/3/4
f 307/13/4 308/13/4 309/13/4
f 308/3/4 298/3/4 309/3/4
f 298/3/4 296/3/4 310/3/4
f 309/3/4 298/3/4 310/3/4
f 309/13/4 310/13/4 311/13/4
f 310/3/4 296/3/4 311/3/4
f 296/3/4 294/3/4 312/3/4
f 311/3/4 296/3/4 312/3/4
f 309/13/4 311/13/4 313/13/4
f 311/13/4 312/13/4 313/13/4
f 312/3/4 294/3/4 314/3/4
f 313/13/4 312/13/4 314/13/4
f 307/13/4 309/13/4 315/13/4
f 309/13/4 313/13/4 315/13/4
f 313/3/4 314/3/4 316/3/4
f 315/13/4 313/13/4 316/13/4
f 307/13/4 315/13/4 317/13/4
f 304/13/4 307/13/4 317/13/4
f 315/3/4 316/3/4 318/3/4
f 317/13/4 315/13/4 318/13/4
f 304/13/4 317/13/4 319/13/4
f 319/13/4 317/13/4 320/13/4
f 317/3/4 318/3/4 321/3/4
f 320/13/4 317/13/4 321/13/4
f 320/3/4 321/3/4 322/3/4
f 321/3/4 318/3/4 322/3/4
f 314/3/4 294/3/4 323/3/4
f 322/3/4 318/3/4 323/3/4
f 316/3/4 314/3/4 323/3/4
f 318/3/4 316/3/4 323/3/4
f 323/3/4 294/3/4 324/3/4
f 294/9/4 292/9/4 325/9/4
f 324/3/4 294/3/4 325/3/4
f 319/11/4 320/11/4 326/11/4
f 320/3/4 322/3/4 327/3/4
f 326/11/4 320/11/4 327/11/4
f 322/7/4 323/7/4 328/7/4
f 327/3/4 322/3/4 328/3/4
f 323/3/4 324/3/4 329/3/4
f 328/7/4 323/7/4 329/7/4
f 324/9/4 325/9/4 330/9/4
f 329/3/4 324/3/4 330/3/4
f 325/9/4 292/9/4 331/9/4
f 330/9/4 325/9/4 331/9/4
f 338/11/5 333/11/5 332/11/5
f 339/13/5 334/13/5 333/13/5
f 339/11/5 333/11/5 338/11/5
f 340/11/5 335/11/5 334/11/5
f 340/13/5 334/13/5 339/13/5
f 341/13/5 336/13/5 335/13/5
f 341/11/5 335/11/5 340/11/5
f 342/11/5 337/11/5 336/11/5
f 342/13/5 336/13/5 341/13/5
f 343/11/5 337/11/5 342/11/5
f 344/11/5 337/11/5 343/11/5
f 345/10/5 341/10/5 340/10/5
f 345/11/5 338/11/5 332/11/5
f 345/10/5 339/10/5 338/10/5
f 345/10/5 343/10/5 342/10/5
f 345/10/5 342/10/5 341/10/5
f 345/10/5 340/10/5 339/10/5
f 346/10/5 343/10/5 345/10/5
f 347/10/5 343/10/5 346/10/5
f 348/10/5 343/10/5 347/10/5
f 349/10/5 343/10/5 348/10/5
f 350/3/5 344/3/5 343/3/5
f 350/10/5 343/10/5 349/10/5
f 351/3/5 344/3/5 350/3/5
f 352/11/5 345/11/5 332/11/5
f 352/11/5 346/11/5 345/11/5
f 353/13/5 347/13/5 346/13/5
f 353/11/5 346/11/5 352/11/5
f 354/11/5 348/11/5 347/11/5
f 354/13/5 347/13/5 353/13/5
f 355/13/5 349/13/5 348/13/5
f 355/11/5 348/11/5 354/11/5
f 356/11/5 351/11/5 350/11/5
f 356/13/5 349/13/5 355/13/5
f 356/11/5 350/11/5 349/11/5
f 357/11/5 351/11/5 356/11/5
f 360/3/5 359/3/5 358/3/5
f 361/3/5 359/3/5 360/3/5
f 362/10/6 363/10/6 367/10/6
f 367/10/6 363/10/6 368/10/6
f 364/10/6 365/10/6 369/10/6
f 369/10/6 365/10/6 370/10/6
f 367/10/6 368/10/6 372/10/6
f 370/10/6 371/10/6 372/10/6
f 369/10/6 370/10/6 372/10/6
f 368/10/6 369/10/6 372/10/6
f 366/10/6 367/10/6 372/10/6
f 372/10/6 371/10/6 373/10/6
f 373/10/6 371/10/6 374/10/6
f 374/10/6 371/10/6 375/10/6
f 375/10/6 371/10/6 376/10/6
f 376/10/6 371/10/6 377/10/6
f 373/10/6 374/10/6 378/10/6
f 378/10/6 374/10/6 379/10/6
f 375/10/6 376/10/6 380/10/6
f 380/10/6 376/10/6 381/10/6
f 382/9/6 383/9/6 386/9/6
f 386/9/6 383/9/6 387/9/6
f 384/9/6 385/9/6 388/9/6
f 388/9/6 385/9/6 389/9/6
f 386/5/6 387/5/6 390/5/6
f 390/5/6 387/5/6 391/5/6
f 388/5/6 389/5/6 392/5/6
f 392/5/6 389/5/6 393/5/6
f 394/5/6 395/5/6 398/5/6
f 398/5/6 395/5/6 399/5/6
f 396/5/6 397/5/6 400/5/6
f 400/5/6 397/5/6 401/5/6
f 404/5/6 405/5/6 410/5/6
f 408/5/6 409/5/6 411/5/6
f 410/5/6 405/5/6 412/5/6
f 412/5/6 405/5/6 413/5/6
f 406/5/6 407/5/6 414/5/6
f 414/5/6 407/5/6 415/5/6
f 408/5/6 411/5/6 416/5/6
f 416/5/6 411/5/6 417/5/6
f 418/5/6 419/5/6 424/5/6
f 424/5/6 419/5/6 425/5/6
f 420/5/6 421/5/6 426/5/6
f 426/5/6 421/5/6 427/5/6
f 422/5/6 423/5/6 428/5/6
f 428/5/6 423/5/6 429/5/6
f 402/3/6 403/3/6 430/3/6
f 430/3/6 403/3/6 431/3/6
f 432/9/6 433/9/6 436/9/6
f 434/9/6 435/9/6 437/9/6
f 432/9/6 436/9/6 438/9/6
f 436/9/6 437/9/6 438/9/6
f 437/9/6 435/9/6 439/9/6
f 438/9/6 437/9/6 439/9/6
