# MagicaVoxel @ Ephtracy

# group
g foodTruck

# material
mtllib foodTruck.mtl
usemtl palette

# normals
vn -1 0 0
vn 1 0 0
vn 0 0 1
vn 0 0 -1
vn 0 -1 0
vn 0 1 0

# texcoords
vt 0.158203 0.5
vt 0.373047 0.5
vt 0.591797 0.5
vt 0.841797 0.5
vt 0.974609 0.5
vt 0.982422 0.5
vt 0.986328 0.5
vt 0.994141 0.5

# verts
v -44 0 27
v -44 0 -27
v -44 1 27
v -44 1 -27
v -44 3 27
v -44 3 14
v -44 3 12
v -44 3 -12
v -44 3 -14
v -44 3 -27
v -44 13 27
v -44 13 14
v -44 13 12
v -44 13 -12
v -44 13 -14
v -44 13 -27
v -44 17 27
v -44 17 -27
v -29 17 27
v -29 17 -27
v -29 20 23
v -29 20 -23
v -29 41 23
v -29 41 -23
v -29 44 27
v -29 44 -27
v -2 8 10
v -2 8 9
v -2 8 -6
v -2 8 -7
v -2 16 27
v -2 16 26
v -2 16 10
v -2 16 -7
v -2 16 -24
v -2 17 27
v -2 17 9
v -2 17 -6
v -2 17 -24
v 21 8 10
v 21 8 9
v 21 8 -6
v 21 8 -7
v 21 16 27
v 21 16 26
v 21 16 10
v 21 16 -7
v 21 16 -24
v 21 17 27
v 21 17 9
v 21 17 -6
v 21 17 -24
v 43 8 9
v 43 8 -6
v 43 17 27
v 43 17 9
v 43 17 -6
v 43 17 -24
v 43 44 27
v 43 44 -24
v -26 8 9
v -26 8 -6
v -26 17 27
v -26 17 9
v -26 17 -6
v -26 17 -24
v -26 44 27
v -26 44 -24
v -4 8 10
v -4 8 9
v -4 8 -6
v -4 8 -7
v -4 16 27
v -4 16 26
v -4 16 10
v -4 16 -7
v -4 16 -24
v -4 17 27
v -4 17 9
v -4 17 -6
v -4 17 -24
v 19 8 10
v 19 8 9
v 19 8 -6
v 19 8 -7
v 19 16 27
v 19 16 26
v 19 16 10
v 19 16 -7
v 19 16 -24
v 19 17 27
v 19 17 9
v 19 17 -6
v 19 17 -24
v 46 0 27
v 46 0 26
v 46 0 -26
v 46 0 -27
v 46 1 27
v 46 1 26
v 46 1 -26
v 46 1 -27
v 46 3 27
v 46 3 18
v 46 3 -18
v 46 3 -27
v 46 13 27
v 46 13 18
v 46 13 -18
v 46 13 -27
v 46 17 23
v 46 17 -23
v 46 41 23
v 46 41 -23
v 46 44 27
v 46 44 -27
v -44 0 27
v -44 1 27
v -44 3 27
v -44 13 27
v -44 17 27
v -38 3 27
v -38 13 27
v -36 0 27
v -36 1 27
v -36 2 27
v -35 2 27
v -35 4 27
v -34 4 27
v -34 5 27
v -33 5 27
v -33 6 27
v -29 17 27
v -29 44 27
v -26 16 27
v -26 17 27
v -26 44 27
v -25 5 27
v -25 6 27
v -24 4 27
v -24 5 27
v -23 2 27
v -23 4 27
v -22 0 27
v -22 1 27
v -22 2 27
v -4 16 27
v -4 17 27
v -2 16 27
v -2 17 27
v 19 16 27
v 19 17 27
v 21 16 27
v 21 17 27
v 24 0 27
v 24 1 27
v 24 2 27
v 25 2 27
v 25 4 27
v 26 4 27
v 26 5 27
v 27 5 27
v 27 6 27
v 35 5 27
v 35 6 27
v 36 4 27
v 36 5 27
v 37 2 27
v 37 4 27
v 38 0 27
v 38 1 27
v 38 2 27
v 40 3 27
v 40 13 27
v 43 16 27
v 43 17 27
v 43 44 27
v 46 0 27
v 46 1 27
v 46 3 27
v 46 13 27
v 46 44 27
v -26 8 -6
v -26 17 -6
v -4 8 -6
v -4 17 -6
v -2 8 -6
v -2 17 -6
v 19 8 -6
v 19 17 -6
v 21 8 -6
v 21 17 -6
v 43 8 -6
v 43 17 -6
v -4 8 -7
v -4 16 -7
v -2 8 -7
v -2 16 -7
v 19 8 -7
v 19 16 -7
v 21 8 -7
v 21 16 -7
v -26 17 -24
v -26 44 -24
v -4 16 -24
v -4 17 -24
v -2 16 -24
v -2 17 -24
v 19 16 -24
v 19 17 -24
v 21 16 -24
v 21 17 -24
v 43 17 -24
v 43 44 -24
v -4 8 10
v -4 16 10
v -2 8 10
v -2 16 10
v 19 8 10
v 19 16 10
v 21 8 10
v 21 16 10
v -26 8 9
v -26 17 9
v -4 8 9
v -4 17 9
v -2 8 9
v -2 17 9
v 19 8 9
v 19 17 9
v 21 8 9
v 21 17 9
v 43 8 9
v 43 17 9
v -44 0 -27
v -44 1 -27
v -44 3 -27
v -44 13 -27
v -44 17 -27
v -38 3 -27
v -38 13 -27
v -36 0 -27
v -36 1 -27
v -36 2 -27
v -35 2 -27
v -35 4 -27
v -34 4 -27
v -34 5 -27
v -33 5 -27
v -33 6 -27
v -29 17 -27
v -29 44 -27
v -25 5 -27
v -25 6 -27
v -24 4 -27
v -24 5 -27
v -23 2 -27
v -23 4 -27
v -22 0 -27
v -22 1 -27
v -22 2 -27
v 24 0 -27
v 24 1 -27
v 24 2 -27
v 25 2 -27
v 25 4 -27
v 26 4 -27
v 26 5 -27
v 27 5 -27
v 27 6 -27
v 35 5 -27
v 35 6 -27
v 36 4 -27
v 36 5 -27
v 37 2 -27
v 37 4 -27
v 38 0 -27
v 38 1 -27
v 38 2 -27
v 40 3 -27
v 40 13 -27
v 46 0 -27
v 46 1 -27
v 46 3 -27
v 46 13 -27
v 46 44 -27
v -44 0 27
v -36 0 27
v -22 0 27
v 24 0 27
v 38 0 27
v 46 0 27
v -43 0 26
v -36 0 26
v -22 0 26
v 24 0 26
v 38 0 26
v 46 0 26
v -43 0 -26
v -36 0 -26
v -22 0 -26
v 24 0 -26
v 38 0 -26
v 46 0 -26
v -44 0 -27
v -36 0 -27
v -22 0 -27
v 24 0 -27
v 38 0 -27
v 46 0 -27
v -4 8 10
v -2 8 10
v 19 8 10
v 21 8 10
v -26 8 9
v -4 8 9
v -2 8 9
v 19 8 9
v 21 8 9
v 43 8 9
v -26 8 -6
v -4 8 -6
v -2 8 -6
v 19 8 -6
v 21 8 -6
v 43 8 -6
v -4 8 -7
v -2 8 -7
v 19 8 -7
v 21 8 -7
v -4 16 27
v -2 16 27
v 19 16 27
v 21 16 27
v -4 16 26
v -2 16 26
v 19 16 26
v 21 16 26
v -4 16 10
v -2 16 10
v 19 16 10
v 21 16 10
v -4 16 -7
v -2 16 -7
v 19 16 -7
v 21 16 -7
v -4 16 -24
v -2 16 -24
v 19 16 -24
v 21 16 -24
v -44 17 27
v -29 17 27
v -26 17 27
v -4 17 27
v -2 17 27
v 19 17 27
v 21 17 27
v 43 17 27
v -26 17 9
v -4 17 9
v -2 17 9
v 19 17 9
v 21 17 9
v 43 17 9
v -26 17 -6
v -4 17 -6
v -2 17 -6
v 19 17 -6
v 21 17 -6
v 43 17 -6
v -26 17 -24
v -4 17 -24
v -2 17 -24
v 19 17 -24
v 21 17 -24
v 43 17 -24
v -44 17 -27
v -29 17 -27
v -29 44 27
v -26 44 27
v 43 44 27
v 46 44 27
v -26 44 -24
v 43 44 -24
v -29 44 -27
v 46 44 -27

# faces
f 3/6/1 2/6/1 1/6/1
f 4/6/1 2/6/1 3/6/1
f 5/5/1 4/5/1 3/5/1
f 6/5/1 4/5/1 5/5/1
f 7/5/1 4/5/1 6/5/1
f 8/5/1 4/5/1 7/5/1
f 9/5/1 4/5/1 8/5/1
f 10/5/1 4/5/1 9/5/1
f 11/1/1 6/1/1 5/1/1
f 12/5/1 7/5/1 6/5/1
f 12/1/1 6/1/1 11/1/1
f 13/7/1 8/7/1 7/7/1
f 13/5/1 7/5/1 12/5/1
f 14/5/1 9/5/1 8/5/1
f 14/7/1 8/7/1 13/7/1
f 15/1/1 10/1/1 9/1/1
f 15/5/1 9/5/1 14/5/1
f 16/1/1 10/1/1 15/1/1
f 17/5/1 12/5/1 11/5/1
f 17/5/1 13/5/1 12/5/1
f 17/5/1 16/5/1 15/5/1
f 17/5/1 15/5/1 14/5/1
f 17/5/1 14/5/1 13/5/1
f 18/5/1 16/5/1 17/5/1
f 21/5/1 20/5/1 19/5/1
f 22/5/1 20/5/1 21/5/1
f 23/5/1 21/5/1 19/5/1
f 23/3/1 22/3/1 21/3/1
f 24/5/1 20/5/1 22/5/1
f 24/3/1 22/3/1 23/3/1
f 25/5/1 23/5/1 19/5/1
f 25/5/1 24/5/1 23/5/1
f 26/5/1 20/5/1 24/5/1
f 26/5/1 24/5/1 25/5/1
f 33/2/1 28/2/1 27/2/1
f 34/2/1 30/2/1 29/2/1
f 36/2/1 32/2/1 31/2/1
f 36/2/1 33/2/1 32/2/1
f 37/2/1 28/2/1 33/2/1
f 37/2/1 33/2/1 36/2/1
f 38/2/1 35/2/1 34/2/1
f 38/2/1 34/2/1 29/2/1
f 39/2/1 35/2/1 38/2/1
f 46/2/1 41/2/1 40/2/1
f 47/2/1 43/2/1 42/2/1
f 49/2/1 45/2/1 44/2/1
f 49/2/1 46/2/1 45/2/1
f 50/2/1 41/2/1 46/2/1
f 50/2/1 46/2/1 49/2/1
f 51/2/1 48/2/1 47/2/1
f 51/2/1 47/2/1 42/2/1
f 52/2/1 48/2/1 51/2/1
f 56/5/1 54/5/1 53/5/1
f 57/5/1 54/5/1 56/5/1
f 59/5/1 56/5/1 55/5/1
f 59/5/1 58/5/1 57/5/1
f 59/5/1 57/5/1 56/5/1
f 60/5/1 58/5/1 59/5/1
f 61/5/2 62/5/2 64/5/2
f 64/5/2 62/5/2 65/5/2
f 63/5/2 64/5/2 67/5/2
f 65/5/2 66/5/2 67/5/2
f 64/5/2 65/5/2 67/5/2
f 67/5/2 66/5/2 68/5/2
f 69/2/2 70/2/2 75/2/2
f 71/2/2 72/2/2 76/2/2
f 73/2/2 74/2/2 78/2/2
f 74/2/2 75/2/2 78/2/2
f 75/2/2 70/2/2 79/2/2
f 78/2/2 75/2/2 79/2/2
f 76/2/2 77/2/2 80/2/2
f 71/2/2 76/2/2 80/2/2
f 80/2/2 77/2/2 81/2/2
f 82/2/2 83/2/2 88/2/2
f 84/2/2 85/2/2 89/2/2
f 86/2/2 87/2/2 91/2/2
f 87/2/2 88/2/2 91/2/2
f 88/2/2 83/2/2 92/2/2
f 91/2/2 88/2/2 92/2/2
f 89/2/2 90/2/2 93/2/2
f 84/2/2 89/2/2 93/2/2
f 93/2/2 90/2/2 94/2/2
f 95/6/2 96/6/2 99/6/2
f 96/5/2 97/5/2 100/5/2
f 99/6/2 96/6/2 100/6/2
f 97/6/2 98/6/2 101/6/2
f 100/5/2 97/5/2 101/5/2
f 101/6/2 98/6/2 102/6/2
f 99/5/2 100/5/2 103/5/2
f 100/5/2 101/5/2 103/5/2
f 101/5/2 102/5/2 103/5/2
f 103/5/2 102/5/2 104/5/2
f 104/5/2 102/5/2 105/5/2
f 105/5/2 102/5/2 106/5/2
f 103/4/2 104/4/2 107/4/2
f 104/5/2 105/5/2 108/5/2
f 107/4/2 104/4/2 108/4/2
f 105/4/2 106/4/2 109/4/2
f 108/5/2 105/5/2 109/5/2
f 109/4/2 106/4/2 110/4/2
f 107/5/2 108/5/2 111/5/2
f 108/5/2 109/5/2 111/5/2
f 109/5/2 110/5/2 111/5/2
f 111/5/2 110/5/2 112/5/2
f 107/5/2 111/5/2 113/5/2
f 111/3/2 112/3/2 113/3/2
f 112/5/2 110/5/2 114/5/2
f 113/3/2 112/3/2 114/3/2
f 107/5/2 113/5/2 115/5/2
f 113/5/2 114/5/2 115/5/2
f 114/5/2 110/5/2 116/5/2
f 115/5/2 114/5/2 116/5/2
f 122/5/3 119/5/3 118/5/3
f 122/1/3 120/1/3 119/1/3
f 123/5/3 121/5/3 120/5/3
f 123/1/3 120/1/3 122/1/3
f 124/6/3 118/6/3 117/6/3
f 125/5/3 122/5/3 118/5/3
f 125/6/3 118/6/3 124/6/3
f 125/5/3 123/5/3 122/5/3
f 126/5/3 123/5/3 125/5/3
f 127/8/3 125/8/3 124/8/3
f 127/5/3 123/5/3 126/5/3
f 127/8/3 126/8/3 125/8/3
f 128/5/3 123/5/3 127/5/3
f 129/8/3 128/8/3 127/8/3
f 129/5/3 123/5/3 128/5/3
f 130/5/3 123/5/3 129/5/3
f 131/8/3 130/8/3 129/8/3
f 131/5/3 123/5/3 130/5/3
f 132/5/3 123/5/3 131/5/3
f 133/5/3 121/5/3 123/5/3
f 133/5/3 123/5/3 132/5/3
f 135/5/3 133/5/3 132/5/3
f 135/5/3 134/5/3 133/5/3
f 136/5/3 134/5/3 135/5/3
f 137/5/3 134/5/3 136/5/3
f 138/8/3 132/8/3 131/8/3
f 138/8/3 131/8/3 129/8/3
f 139/5/3 135/5/3 132/5/3
f 139/8/3 132/8/3 138/8/3
f 140/8/3 129/8/3 127/8/3
f 140/8/3 138/8/3 129/8/3
f 141/5/3 139/5/3 138/5/3
f 141/8/3 138/8/3 140/8/3
f 142/8/3 127/8/3 124/8/3
f 142/8/3 140/8/3 127/8/3
f 143/5/3 141/5/3 140/5/3
f 143/8/3 140/8/3 142/8/3
f 144/8/3 142/8/3 124/8/3
f 145/8/3 142/8/3 144/8/3
f 146/5/3 143/5/3 142/5/3
f 146/8/3 142/8/3 145/8/3
f 147/5/3 139/5/3 141/5/3
f 147/5/3 143/5/3 146/5/3
f 147/5/3 146/5/3 145/5/3
f 147/5/3 135/5/3 139/5/3
f 147/2/3 136/2/3 135/2/3
f 147/5/3 141/5/3 143/5/3
f 148/2/3 136/2/3 147/2/3
f 149/5/3 147/5/3 145/5/3
f 151/5/3 149/5/3 145/5/3
f 151/2/3 150/2/3 149/2/3
f 152/2/3 150/2/3 151/2/3
f 153/5/3 151/5/3 145/5/3
f 155/6/3 145/6/3 144/6/3
f 156/5/3 153/5/3 145/5/3
f 156/6/3 145/6/3 155/6/3
f 157/5/3 153/5/3 156/5/3
f 158/8/3 156/8/3 155/8/3
f 158/5/3 153/5/3 157/5/3
f 158/8/3 157/8/3 156/8/3
f 159/5/3 153/5/3 158/5/3
f 160/8/3 159/8/3 158/8/3
f 160/5/3 153/5/3 159/5/3
f 161/5/3 153/5/3 160/5/3
f 162/8/3 161/8/3 160/8/3
f 162/5/3 153/5/3 161/5/3
f 163/5/3 153/5/3 162/5/3
f 164/8/3 162/8/3 160/8/3
f 164/8/3 163/8/3 162/8/3
f 165/5/3 153/5/3 163/5/3
f 165/8/3 163/8/3 164/8/3
f 166/8/3 160/8/3 158/8/3
f 166/8/3 164/8/3 160/8/3
f 167/5/3 165/5/3 164/5/3
f 167/8/3 164/8/3 166/8/3
f 168/8/3 158/8/3 155/8/3
f 168/8/3 166/8/3 158/8/3
f 169/5/3 167/5/3 166/5/3
f 169/8/3 166/8/3 168/8/3
f 170/8/3 168/8/3 155/8/3
f 171/8/3 168/8/3 170/8/3
f 172/5/3 169/5/3 168/5/3
f 172/8/3 168/8/3 171/8/3
f 173/5/3 172/5/3 171/5/3
f 173/5/3 169/5/3 172/5/3
f 174/5/3 165/5/3 167/5/3
f 174/5/3 169/5/3 173/5/3
f 174/5/3 153/5/3 165/5/3
f 174/5/3 167/5/3 169/5/3
f 175/2/3 154/2/3 153/2/3
f 175/5/3 153/5/3 174/5/3
f 176/2/3 154/2/3 175/2/3
f 178/6/3 171/6/3 170/6/3
f 179/5/3 173/5/3 171/5/3
f 179/6/3 171/6/3 178/6/3
f 180/4/3 174/4/3 173/4/3
f 180/5/3 173/5/3 179/5/3
f 181/5/3 176/5/3 175/5/3
f 181/4/3 174/4/3 180/4/3
f 181/5/3 175/5/3 174/5/3
f 181/5/3 177/5/3 176/5/3
f 182/5/3 177/5/3 181/5/3
f 185/2/3 184/2/3 183/2/3
f 186/2/3 184/2/3 185/2/3
f 189/2/3 188/2/3 187/2/3
f 190/2/3 188/2/3 189/2/3
f 193/2/3 192/2/3 191/2/3
f 194/2/3 192/2/3 193/2/3
f 197/2/3 196/2/3 195/2/3
f 198/2/3 196/2/3 197/2/3
f 201/2/3 200/2/3 199/2/3
f 202/2/3 200/2/3 201/2/3
f 206/5/3 204/5/3 203/5/3
f 207/5/3 206/5/3 205/5/3
f 208/5/3 204/5/3 206/5/3
f 208/5/3 206/5/3 207/5/3
f 210/5/3 204/5/3 208/5/3
f 211/5/3 210/5/3 209/5/3
f 212/5/3 204/5/3 210/5/3
f 212/5/3 210/5/3 211/5/3
f 213/5/3 204/5/3 212/5/3
f 214/5/3 204/5/3 213/5/3
f 215/2/4 216/2/4 217/2/4
f 217/2/4 216/2/4 218/2/4
f 219/2/4 220/2/4 221/2/4
f 221/2/4 220/2/4 222/2/4
f 223/2/4 224/2/4 225/2/4
f 225/2/4 224/2/4 226/2/4
f 227/2/4 228/2/4 229/2/4
f 229/2/4 228/2/4 230/2/4
f 231/2/4 232/2/4 233/2/4
f 233/2/4 232/2/4 234/2/4
f 236/5/4 237/5/4 240/5/4
f 237/1/4 238/1/4 240/1/4
f 238/5/4 239/5/4 241/5/4
f 240/1/4 238/1/4 241/1/4
f 235/6/4 236/6/4 242/6/4
f 236/5/4 240/5/4 243/5/4
f 242/6/4 236/6/4 243/6/4
f 240/5/4 241/5/4 243/5/4
f 243/5/4 241/5/4 244/5/4
f 242/8/4 243/8/4 245/8/4
f 244/5/4 241/5/4 245/5/4
f 243/8/4 244/8/4 245/8/4
f 245/5/4 241/5/4 246/5/4
f 245/8/4 246/8/4 247/8/4
f 246/5/4 241/5/4 247/5/4
f 247/5/4 241/5/4 248/5/4
f 247/8/4 248/8/4 249/8/4
f 248/5/4 241/5/4 249/5/4
f 249/5/4 241/5/4 250/5/4
f 241/5/4 239/5/4 251/5/4
f 250/5/4 241/5/4 251/5/4
f 249/8/4 250/8/4 253/8/4
f 247/8/4 249/8/4 253/8/4
f 251/5/4 252/5/4 254/5/4
f 253/8/4 250/8/4 254/8/4
f 250/5/4 251/5/4 254/5/4
f 247/8/4 253/8/4 255/8/4
f 245/8/4 247/8/4 255/8/4
f 253/5/4 254/5/4 256/5/4
f 255/8/4 253/8/4 256/8/4
f 242/8/4 245/8/4 257/8/4
f 245/8/4 255/8/4 257/8/4
f 255/5/4 256/5/4 258/5/4
f 257/8/4 255/8/4 258/8/4
f 242/8/4 257/8/4 259/8/4
f 259/8/4 257/8/4 260/8/4
f 257/5/4 258/5/4 261/5/4
f 260/8/4 257/8/4 261/8/4
f 259/6/4 260/6/4 262/6/4
f 260/5/4 261/5/4 263/5/4
f 262/6/4 260/6/4 263/6/4
f 261/5/4 258/5/4 264/5/4
f 263/5/4 261/5/4 264/5/4
f 262/8/4 263/8/4 265/8/4
f 264/5/4 258/5/4 265/5/4
f 263/8/4 264/8/4 265/8/4
f 258/5/4 256/5/4 266/5/4
f 265/5/4 258/5/4 266/5/4
f 265/8/4 266/8/4 267/8/4
f 266/5/4 256/5/4 267/5/4
f 256/5/4 254/5/4 268/5/4
f 267/5/4 256/5/4 268/5/4
f 267/8/4 268/8/4 269/8/4
f 268/5/4 254/5/4 269/5/4
f 254/5/4 252/5/4 270/5/4
f 269/5/4 254/5/4 270/5/4
f 267/8/4 269/8/4 271/8/4
f 269/8/4 270/8/4 271/8/4
f 270/5/4 252/5/4 272/5/4
f 271/8/4 270/8/4 272/8/4
f 267/8/4 271/8/4 273/8/4
f 265/8/4 267/8/4 273/8/4
f 271/5/4 272/5/4 274/5/4
f 273/8/4 271/8/4 274/8/4
f 265/8/4 273/8/4 275/8/4
f 262/8/4 265/8/4 275/8/4
f 273/5/4 274/5/4 276/5/4
f 275/8/4 273/8/4 276/8/4
f 262/8/4 275/8/4 277/8/4
f 277/8/4 275/8/4 278/8/4
f 275/5/4 276/5/4 279/5/4
f 278/8/4 275/8/4 279/8/4
f 278/5/4 279/5/4 280/5/4
f 279/5/4 276/5/4 280/5/4
f 272/5/4 252/5/4 281/5/4
f 280/5/4 276/5/4 281/5/4
f 274/5/4 272/5/4 281/5/4
f 276/5/4 274/5/4 281/5/4
f 277/6/4 278/6/4 282/6/4
f 278/5/4 280/5/4 283/5/4
f 282/6/4 278/6/4 283/6/4
f 280/4/4 281/4/4 284/4/4
f 283/5/4 280/5/4 284/5/4
f 281/5/4 252/5/4 285/5/4
f 284/4/4 281/4/4 285/4/4
f 285/5/4 252/5/4 286/5/4
f 293/6/5 288/6/5 287/6/5
f 294/8/5 289/8/5 288/8/5
f 294/6/5 288/6/5 293/6/5
f 295/6/5 290/6/5 289/6/5
f 295/8/5 289/8/5 294/8/5
f 296/8/5 291/8/5 290/8/5
f 296/6/5 290/6/5 295/6/5
f 297/6/5 292/6/5 291/6/5
f 297/8/5 291/8/5 296/8/5
f 298/6/5 292/6/5 297/6/5
f 299/5/5 296/5/5 295/5/5
f 299/6/5 293/6/5 287/6/5
f 299/5/5 298/5/5 297/5/5
f 299/5/5 297/5/5 296/5/5
f 299/5/5 295/5/5 294/5/5
f 299/5/5 294/5/5 293/5/5
f 300/5/5 298/5/5 299/5/5
f 301/5/5 298/5/5 300/5/5
f 302/5/5 298/5/5 301/5/5
f 303/5/5 298/5/5 302/5/5
f 304/5/5 298/5/5 303/5/5
f 305/6/5 299/6/5 287/6/5
f 305/6/5 300/6/5 299/6/5
f 306/8/5 301/8/5 300/8/5
f 306/6/5 300/6/5 305/6/5
f 307/6/5 302/6/5 301/6/5
f 307/8/5 301/8/5 306/8/5
f 308/8/5 303/8/5 302/8/5
f 308/6/5 302/6/5 307/6/5
f 309/6/5 304/6/5 303/6/5
f 309/8/5 303/8/5 308/8/5
f 310/6/5 304/6/5 309/6/5
f 311/5/6 312/5/6 316/5/6
f 316/5/6 312/5/6 317/5/6
f 313/5/6 314/5/6 318/5/6
f 318/5/6 314/5/6 319/5/6
f 316/5/6 317/5/6 321/5/6
f 319/5/6 320/5/6 321/5/6
f 318/5/6 319/5/6 321/5/6
f 317/5/6 318/5/6 321/5/6
f 315/5/6 316/5/6 321/5/6
f 321/5/6 320/5/6 322/5/6
f 322/5/6 320/5/6 323/5/6
f 323/5/6 320/5/6 324/5/6
f 324/5/6 320/5/6 325/5/6
f 325/5/6 320/5/6 326/5/6
f 322/5/6 323/5/6 327/5/6
f 327/5/6 323/5/6 328/5/6
f 324/5/6 325/5/6 329/5/6
f 329/5/6 325/5/6 330/5/6
f 331/5/6 332/5/6 335/5/6
f 335/5/6 332/5/6 336/5/6
f 333/5/6 334/5/6 337/5/6
f 337/5/6 334/5/6 338/5/6
f 335/2/6 336/2/6 339/2/6
f 339/2/6 336/2/6 340/2/6
f 337/2/6 338/2/6 341/2/6
f 341/2/6 338/2/6 342/2/6
f 343/2/6 344/2/6 347/2/6
f 347/2/6 344/2/6 348/2/6
f 345/2/6 346/2/6 349/2/6
f 349/2/6 346/2/6 350/2/6
f 353/2/6 354/2/6 359/2/6
f 359/2/6 354/2/6 360/2/6
f 355/2/6 356/2/6 361/2/6
f 361/2/6 356/2/6 362/2/6
f 357/2/6 358/2/6 363/2/6
f 363/2/6 358/2/6 364/2/6
f 365/2/6 366/2/6 371/2/6
f 371/2/6 366/2/6 372/2/6
f 367/2/6 368/2/6 373/2/6
f 373/2/6 368/2/6 374/2/6
f 369/2/6 370/2/6 375/2/6
f 375/2/6 370/2/6 376/2/6
f 351/5/6 352/5/6 377/5/6
f 377/5/6 352/5/6 378/5/6
f 379/5/6 380/5/6 383/5/6
f 381/5/6 382/5/6 384/5/6
f 379/5/6 383/5/6 385/5/6
f 383/5/6 384/5/6 385/5/6
f 384/5/6 382/5/6 386/5/6
f 385/5/6 384/5/6 386/5/6
