# MagicaVoxel @ Ephtracy

# group
g fridge

# material
mtllib fridge.mtl
usemtl palette

# normals
vn -1 0 0
vn 1 0 0
vn 0 0 1
vn 0 0 -1
vn 0 -1 0
vn 0 1 0

# texcoords
vt 0.0214844 0.5
vt 0.806641 0.5
vt 0.958984 0.5
vt 0.982422 0.5
vt 0.990234 0.5

# verts
v -8.5 1 5.5
v -8.5 1 -8.5
v -8.5 15 5.5
v -8.5 15 -8.5
v -7.5 0 4.5
v -7.5 0 -7.5
v -7.5 1 4.5
v -7.5 1 -7.5
v -7.5 3 6.5
v -7.5 3 5.5
v -7.5 6 6.5
v -7.5 6 5.5
v -7.5 11 6.5
v -7.5 11 5.5
v -7.5 14 6.5
v -7.5 14 5.5
v -7.5 15 4.5
v -7.5 15 -7.5
v -7.5 16 4.5
v -7.5 16 -7.5
v -6.5 4 8.5
v -6.5 4 6.5
v -6.5 6 6.5
v -6.5 11 6.5
v -6.5 13 8.5
v -6.5 13 6.5
v -5.5 4 8.5
v -5.5 4 6.5
v -5.5 6 6.5
v -5.5 11 6.5
v -5.5 13 8.5
v -5.5 13 6.5
v -4.5 3 6.5
v -4.5 3 5.5
v -4.5 6 6.5
v -4.5 6 5.5
v -4.5 11 6.5
v -4.5 11 5.5
v -4.5 14 6.5
v -4.5 14 5.5
v 7.5 0 4.5
v 7.5 0 -7.5
v 7.5 1 4.5
v 7.5 1 -7.5
v 7.5 15 4.5
v 7.5 15 -7.5
v 7.5 16 4.5
v 7.5 16 -7.5
v 8.5 1 5.5
v 8.5 1 -8.5
v 8.5 15 5.5
v 8.5 15 -8.5
v -6.5 4 8.5
v -6.5 13 8.5
v -5.5 4 8.5
v -5.5 13 8.5
v -7.5 3 6.5
v -7.5 6 6.5
v -7.5 11 6.5
v -7.5 14 6.5
v -6.5 4 6.5
v -6.5 6 6.5
v -6.5 11 6.5
v -6.5 13 6.5
v -5.5 4 6.5
v -5.5 6 6.5
v -5.5 11 6.5
v -5.5 13 6.5
v -4.5 3 6.5
v -4.5 6 6.5
v -4.5 11 6.5
v -4.5 14 6.5
v -8.5 1 5.5
v -8.5 15 5.5
v -7.5 3 5.5
v -7.5 6 5.5
v -7.5 11 5.5
v -7.5 14 5.5
v -4.5 3 5.5
v -4.5 6 5.5
v -4.5 11 5.5
v -4.5 14 5.5
v -3.5 2 5.5
v -3.5 14 5.5
v -2.5 3 5.5
v -2.5 13 5.5
v 6.5 3 5.5
v 6.5 13 5.5
v 7.5 2 5.5
v 7.5 14 5.5
v 8.5 1 5.5
v 8.5 15 5.5
v -7.5 0 4.5
v -7.5 1 4.5
v -7.5 15 4.5
v -7.5 16 4.5
v 7.5 0 4.5
v 7.5 1 4.5
v 7.5 15 4.5
v 7.5 16 4.5
v -6.5 6 6.5
v -6.5 11 6.5
v -5.5 6 6.5
v -5.5 11 6.5
v -7.5 0 -7.5
v -7.5 1 -7.5
v -7.5 15 -7.5
v -7.5 16 -7.5
v 7.5 0 -7.5
v 7.5 1 -7.5
v 7.5 15 -7.5
v 7.5 16 -7.5
v -8.5 1 -8.5
v -8.5 15 -8.5
v 8.5 1 -8.5
v 8.5 15 -8.5
v -7.5 0 4.5
v 7.5 0 4.5
v -7.5 0 -7.5
v 7.5 0 -7.5
v -8.5 1 5.5
v 8.5 1 5.5
v -7.5 1 4.5
v 7.5 1 4.5
v -7.5 1 -7.5
v 7.5 1 -7.5
v -8.5 1 -8.5
v 8.5 1 -8.5
v -7.5 3 6.5
v -4.5 3 6.5
v -7.5 3 5.5
v -4.5 3 5.5
v -6.5 4 8.5
v -5.5 4 8.5
v -6.5 4 6.5
v -5.5 4 6.5
v -7.5 11 6.5
v -6.5 11 6.5
v -5.5 11 6.5
v -4.5 11 6.5
v -7.5 11 5.5
v -4.5 11 5.5
v -7.5 6 6.5
v -6.5 6 6.5
v -5.5 6 6.5
v -4.5 6 6.5
v -7.5 6 5.5
v -4.5 6 5.5
v -6.5 13 8.5
v -5.5 13 8.5
v -6.5 13 6.5
v -5.5 13 6.5
v -7.5 14 6.5
v -4.5 14 6.5
v -7.5 14 5.5
v -4.5 14 5.5
v -8.5 15 5.5
v 8.5 15 5.5
v -7.5 15 4.5
v 7.5 15 4.5
v -7.5 15 -7.5
v 7.5 15 -7.5
v -8.5 15 -8.5
v 8.5 15 -8.5
v -7.5 16 4.5
v 7.5 16 4.5
v -7.5 16 -7.5
v 7.5 16 -7.5

# faces
f 3/3/1 2/3/1 1/3/1
f 4/3/1 2/3/1 3/3/1
f 7/3/1 6/3/1 5/3/1
f 8/3/1 6/3/1 7/3/1
f 11/4/1 10/4/1 9/4/1
f 12/4/1 10/4/1 11/4/1
f 15/4/1 14/4/1 13/4/1
f 16/4/1 14/4/1 15/4/1
f 19/3/1 18/3/1 17/3/1
f 20/3/1 18/3/1 19/3/1
f 23/4/1 22/4/1 21/4/1
f 24/4/1 23/4/1 21/4/1
f 25/4/1 24/4/1 21/4/1
f 26/4/1 24/4/1 25/4/1
f 27/4/2 28/4/2 29/4/2
f 27/4/2 29/4/2 30/4/2
f 27/4/2 30/4/2 31/4/2
f 31/4/2 30/4/2 32/4/2
f 33/4/2 34/4/2 35/4/2
f 35/4/2 34/4/2 36/4/2
f 37/4/2 38/4/2 39/4/2
f 39/4/2 38/4/2 40/4/2
f 41/3/2 42/3/2 43/3/2
f 43/3/2 42/3/2 44/3/2
f 45/3/2 46/3/2 47/3/2
f 47/3/2 46/3/2 48/3/2
f 49/3/2 50/3/2 51/3/2
f 51/3/2 50/3/2 52/3/2
f 55/4/3 54/4/3 53/4/3
f 56/4/3 54/4/3 55/4/3
f 61/4/3 58/4/3 57/4/3
f 62/4/3 58/4/3 61/4/3
f 63/4/3 60/4/3 59/4/3
f 64/4/3 60/4/3 63/4/3
f 65/4/3 61/4/3 57/4/3
f 68/4/3 60/4/3 64/4/3
f 69/4/3 66/4/3 65/4/3
f 69/4/3 65/4/3 57/4/3
f 70/4/3 66/4/3 69/4/3
f 71/4/3 68/4/3 67/4/3
f 72/4/3 60/4/3 68/4/3
f 72/4/3 68/4/3 71/4/3
f 75/3/3 74/3/3 73/3/3
f 76/3/3 74/3/3 75/3/3
f 77/3/3 74/3/3 76/3/3
f 78/3/3 74/3/3 77/3/3
f 79/3/3 75/3/3 73/3/3
f 80/3/3 77/3/3 76/3/3
f 81/3/3 77/3/3 80/3/3
f 82/3/3 74/3/3 78/3/3
f 83/3/3 81/3/3 80/3/3
f 83/3/3 82/3/3 81/3/3
f 83/3/3 79/3/3 73/3/3
f 83/3/3 80/3/3 79/3/3
f 84/3/3 74/3/3 82/3/3
f 84/3/3 82/3/3 83/3/3
f 85/5/3 84/5/3 83/5/3
f 86/5/3 84/5/3 85/5/3
f 87/5/3 85/5/3 83/5/3
f 87/2/3 86/2/3 85/2/3
f 88/5/3 84/5/3 86/5/3
f 88/2/3 86/2/3 87/2/3
f 89/3/3 83/3/3 73/3/3
f 89/5/3 87/5/3 83/5/3
f 89/5/3 88/5/3 87/5/3
f 90/5/3 84/5/3 88/5/3
f 90/5/3 88/5/3 89/5/3
f 90/3/3 74/3/3 84/3/3
f 91/3/3 89/3/3 73/3/3
f 91/3/3 90/3/3 89/3/3
f 92/3/3 74/3/3 90/3/3
f 92/3/3 90/3/3 91/3/3
f 97/3/3 94/3/3 93/3/3
f 98/3/3 94/3/3 97/3/3
f 99/3/3 96/3/3 95/3/3
f 100/3/3 96/3/3 99/3/3
f 101/4/4 102/4/4 103/4/4
f 103/4/4 102/4/4 104/4/4
f 105/3/4 106/3/4 109/3/4
f 109/3/4 106/3/4 110/3/4
f 107/3/4 108/3/4 111/3/4
f 111/3/4 108/3/4 112/3/4
f 113/3/4 114/3/4 115/3/4
f 115/3/4 114/3/4 116/3/4
f 119/3/5 118/3/5 117/3/5
f 120/3/5 118/3/5 119/3/5
f 123/3/5 122/3/5 121/3/5
f 124/3/5 122/3/5 123/3/5
f 125/3/5 123/3/5 121/3/5
f 126/3/5 122/3/5 124/3/5
f 127/3/5 125/3/5 121/3/5
f 127/3/5 126/3/5 125/3/5
f 128/3/5 122/3/5 126/3/5
f 128/3/5 126/3/5 127/3/5
f 131/4/5 130/4/5 129/4/5
f 132/4/5 130/4/5 131/4/5
f 135/4/5 134/4/5 133/4/5
f 136/4/5 134/4/5 135/4/5
f 141/4/5 138/4/5 137/4/5
f 141/4/5 140/4/5 139/4/5
f 141/4/5 139/4/5 138/4/5
f 142/4/5 140/4/5 141/4/5
f 143/4/6 144/4/6 147/4/6
f 145/4/6 146/4/6 147/4/6
f 144/4/6 145/4/6 147/4/6
f 147/4/6 146/4/6 148/4/6
f 149/4/6 150/4/6 151/4/6
f 151/4/6 150/4/6 152/4/6
f 153/4/6 154/4/6 155/4/6
f 155/4/6 154/4/6 156/4/6
f 157/3/6 158/3/6 159/3/6
f 159/3/6 158/3/6 160/3/6
f 157/3/6 159/3/6 161/3/6
f 160/3/6 158/3/6 162/3/6
f 157/3/6 161/3/6 163/3/6
f 161/3/6 162/3/6 163/3/6
f 162/3/6 158/3/6 164/3/6
f 163/3/6 162/3/6 164/3/6
f 165/3/6 166/3/6 167/3/6
f 167/3/6 166/3/6 168/3/6
