# MagicaVoxel @ Ephtracy

# group
g girlCustProjectBeehive

# material
mtllib girlCustProjectBeehive.mtl
usemtl palette

# normals
vn -1 0 0
vn 1 0 0
vn 0 0 1
vn 0 0 -1
vn 0 -1 0
vn 0 1 0

# texcoords
vt 0.0332031 0.5
vt 0.0605469 0.5
vt 0.181641 0.5
vt 0.501953 0.5
vt 0.587891 0.5
vt 0.619141 0.5
vt 0.900391 0.5
vt 0.958984 0.5
vt 0.970703 0.5
vt 0.986328 0.5
vt 0.994141 0.5

# verts
v -7 6 1
v -7 6 -1
v -7 7 1
v -7 7 -1
v -7 11 1
v -7 11 -1
v -6 11 1
v -6 11 -1
v -6 12 1
v -6 12 -1
v -5 4 2
v -5 4 -2
v -5 5 4
v -5 5 2
v -5 5 -2
v -5 5 -4
v -5 6 1
v -5 6 -1
v -5 7 1
v -5 7 -1
v -5 11 4
v -5 11 1
v -5 11 -1
v -5 11 -4
v -5 12 1
v -5 12 -1
v -5 14 4
v -5 14 -4
v -5 15 -4
v -5 15 -5
v -5 19 -4
v -5 19 -5
v -5 20 4
v -5 20 3
v -5 20 -3
v -5 20 -4
v -5 24 3
v -5 24 -3
v -4 3 2
v -4 3 -2
v -4 4 4
v -4 4 2
v -4 4 -2
v -4 4 -4
v -4 5 4
v -4 5 2
v -4 5 -2
v -4 5 -4
v -4 20 4
v -4 20 3
v -4 20 -3
v -4 20 -4
v -4 24 4
v -4 24 3
v -4 24 2
v -4 24 -3
v -4 24 -4
v -4 26 2
v -4 26 -3
v -3 0 1
v -3 0 -1
v -3 3 1
v -3 3 -1
v -3 26 1
v -3 26 -2
v -3 27 1
v -3 27 -2
v -2 19 -4
v -2 19 -5
v -2 24 -4
v -2 24 -5
v -1 13 6
v -1 13 4
v -1 14 6
v -1 14 4
v 1 0 1
v 1 0 -1
v 1 3 1
v 1 3 -1
v -1 0 1
v -1 0 -1
v -1 3 1
v -1 3 -1
v 1 13 6
v 1 13 4
v 1 14 6
v 1 14 4
v 2 19 -4
v 2 19 -5
v 2 24 -4
v 2 24 -5
v 2 26 1
v 2 26 -2
v 2 27 1
v 2 27 -2
v 3 0 1
v 3 0 -1
v 3 3 1
v 3 3 -1
v 3 24 2
v 3 24 -3
v 3 26 2
v 3 26 -3
v 4 3 2
v 4 3 -2
v 4 4 4
v 4 4 2
v 4 4 -2
v 4 4 -4
v 4 5 4
v 4 5 2
v 4 5 -2
v 4 5 -4
v 4 20 4
v 4 20 3
v 4 20 -3
v 4 20 -4
v 4 24 4
v 4 24 3
v 4 24 -3
v 4 24 -4
v 5 4 2
v 5 4 -2
v 5 5 4
v 5 5 2
v 5 5 -2
v 5 5 -4
v 5 6 1
v 5 6 -1
v 5 7 1
v 5 7 -1
v 5 11 4
v 5 11 1
v 5 11 -1
v 5 11 -4
v 5 12 1
v 5 12 -1
v 5 14 4
v 5 14 -4
v 5 15 -4
v 5 15 -5
v 5 19 -4
v 5 19 -5
v 5 20 4
v 5 20 3
v 5 20 -3
v 5 20 -4
v 5 24 3
v 5 24 -3
v 6 11 1
v 6 11 -1
v 6 12 1
v 6 12 -1
v 7 6 1
v 7 6 -1
v 7 7 1
v 7 7 -1
v 7 11 1
v 7 11 -1
v -1 13 6
v -1 14 6
v 1 13 6
v 1 14 6
v -5 5 4
v -5 11 4
v -5 14 4
v -5 20 4
v -4 4 4
v -4 5 4
v -4 14 4
v -4 18 4
v -4 20 4
v -4 24 4
v -2 10 4
v -2 11 4
v -2 14 4
v -2 16 4
v -1 9 4
v -1 10 4
v -1 13 4
v -1 14 4
v -1 16 4
v 0 17 4
v 0 18 4
v 1 9 4
v 1 10 4
v 1 13 4
v 1 14 4
v 1 16 4
v 1 17 4
v 1 18 4
v 2 10 4
v 2 11 4
v 2 14 4
v 2 16 4
v 4 4 4
v 4 5 4
v 4 14 4
v 4 18 4
v 4 20 4
v 4 24 4
v 5 5 4
v 5 11 4
v 5 14 4
v 5 20 4
v -5 20 3
v -5 24 3
v -4 20 3
v -4 24 3
v 4 20 3
v 4 24 3
v 5 20 3
v 5 24 3
v -5 4 2
v -5 5 2
v -4 3 2
v -4 4 2
v -4 5 2
v -4 24 2
v -4 26 2
v 3 24 2
v 3 26 2
v 4 3 2
v 4 4 2
v 4 5 2
v 5 4 2
v 5 5 2
v -7 6 1
v -7 7 1
v -7 11 1
v -6 11 1
v -6 12 1
v -5 6 1
v -5 7 1
v -5 11 1
v -5 12 1
v -3 0 1
v -3 3 1
v -3 26 1
v -3 27 1
v -1 0 1
v -1 3 1
v 1 0 1
v 1 3 1
v 2 26 1
v 2 27 1
v 3 0 1
v 3 3 1
v 5 6 1
v 5 7 1
v 5 11 1
v 5 12 1
v 6 11 1
v 6 12 1
v 7 6 1
v 7 7 1
v 7 11 1
v -7 6 -1
v -7 7 -1
v -7 11 -1
v -6 11 -1
v -6 12 -1
v -5 6 -1
v -5 7 -1
v -5 11 -1
v -5 12 -1
v -3 0 -1
v -3 3 -1
v -1 0 -1
v -1 3 -1
v 1 0 -1
v 1 3 -1
v 3 0 -1
v 3 3 -1
v 5 6 -1
v 5 7 -1
v 5 11 -1
v 5 12 -1
v 6 11 -1
v 6 12 -1
v 7 6 -1
v 7 7 -1
v 7 11 -1
v -5 4 -2
v -5 5 -2
v -4 3 -2
v -4 4 -2
v -4 5 -2
v -3 26 -2
v -3 27 -2
v 2 26 -2
v 2 27 -2
v 4 3 -2
v 4 4 -2
v 4 5 -2
v 5 4 -2
v 5 5 -2
v -5 20 -3
v -5 24 -3
v -4 20 -3
v -4 24 -3
v -4 26 -3
v 3 24 -3
v 3 26 -3
v 4 20 -3
v 4 24 -3
v 5 20 -3
v 5 24 -3
v -5 5 -4
v -5 11 -4
v -5 14 -4
v -5 15 -4
v -5 19 -4
v -5 20 -4
v -4 4 -4
v -4 5 -4
v -4 20 -4
v -4 24 -4
v -2 19 -4
v -2 24 -4
v 2 19 -4
v 2 24 -4
v 4 4 -4
v 4 5 -4
v 4 20 -4
v 4 24 -4
v 5 5 -4
v 5 11 -4
v 5 14 -4
v 5 15 -4
v 5 19 -4
v 5 20 -4
v -5 15 -5
v -5 19 -5
v -2 19 -5
v -2 24 -5
v 2 19 -5
v 2 24 -5
v 5 15 -5
v 5 19 -5
v -3 0 1
v -1 0 1
v 1 0 1
v 3 0 1
v -3 0 -1
v -1 0 -1
v 1 0 -1
v 3 0 -1
v -4 3 2
v 4 3 2
v -3 3 1
v -1 3 1
v 1 3 1
v 3 3 1
v -3 3 -1
v -1 3 -1
v 1 3 -1
v 3 3 -1
v -4 3 -2
v 4 3 -2
v -4 4 4
v 4 4 4
v -5 4 2
v -4 4 2
v 4 4 2
v 5 4 2
v -5 4 -2
v -4 4 -2
v 4 4 -2
v 5 4 -2
v -4 4 -4
v 4 4 -4
v -5 5 4
v -4 5 4
v 4 5 4
v 5 5 4
v -5 5 2
v -4 5 2
v 4 5 2
v 5 5 2
v -5 5 -2
v -4 5 -2
v 4 5 -2
v 5 5 -2
v -5 5 -4
v -4 5 -4
v 4 5 -4
v 5 5 -4
v -7 6 1
v -5 6 1
v 5 6 1
v 7 6 1
v -7 6 -1
v -5 6 -1
v 5 6 -1
v 7 6 -1
v -1 13 6
v 1 13 6
v -1 13 4
v 1 13 4
v -5 15 -4
v 5 15 -4
v -5 15 -5
v 5 15 -5
v -7 11 1
v -6 11 1
v 6 11 1
v 7 11 1
v -7 11 -1
v -6 11 -1
v 6 11 -1
v 7 11 -1
v -6 12 1
v -5 12 1
v 5 12 1
v 6 12 1
v -6 12 -1
v -5 12 -1
v 5 12 -1
v 6 12 -1
v -1 14 6
v 1 14 6
v -1 14 4
v 1 14 4
v -5 19 -4
v -2 19 -4
v 2 19 -4
v 5 19 -4
v -5 19 -5
v -2 19 -5
v 2 19 -5
v 5 19 -5
v -5 20 4
v -4 20 4
v 4 20 4
v 5 20 4
v -5 20 3
v -4 20 3
v 4 20 3
v 5 20 3
v -5 20 -3
v -4 20 -3
v 4 20 -3
v 5 20 -3
v -5 20 -4
v -4 20 -4
v 4 20 -4
v 5 20 -4
v -4 24 4
v 4 24 4
v -5 24 3
v -4 24 3
v 4 24 3
v 5 24 3
v -4 24 2
v 3 24 2
v -5 24 -3
v -4 24 -3
v 3 24 -3
v 4 24 -3
v 5 24 -3
v -4 24 -4
v -2 24 -4
v 2 24 -4
v 4 24 -4
v -2 24 -5
v 2 24 -5
v -4 26 2
v 3 26 2
v -3 26 1
v 2 26 1
v -3 26 -2
v 2 26 -2
v -4 26 -3
v 3 26 -3
v -3 27 1
v 2 27 1
v -3 27 -2
v 2 27 -2

# faces
f 3/4/1 2/4/1 1/4/1
f 4/4/1 2/4/1 3/4/1
f 5/6/1 4/6/1 3/6/1
f 6/6/1 4/6/1 5/6/1
f 9/6/1 8/6/1 7/6/1
f 10/6/1 8/6/1 9/6/1
f 14/10/1 12/10/1 11/10/1
f 15/10/1 12/10/1 14/10/1
f 17/6/1 14/6/1 13/6/1
f 17/6/1 16/6/1 15/6/1
f 17/6/1 15/6/1 14/6/1
f 18/6/1 16/6/1 17/6/1
f 19/6/1 17/6/1 13/6/1
f 20/6/1 16/6/1 18/6/1
f 21/6/1 19/6/1 13/6/1
f 22/6/1 19/6/1 21/6/1
f 23/6/1 16/6/1 20/6/1
f 24/6/1 16/6/1 23/6/1
f 25/4/1 22/4/1 21/4/1
f 26/4/1 24/4/1 23/4/1
f 27/4/1 25/4/1 21/4/1
f 27/4/1 26/4/1 25/4/1
f 28/4/1 24/4/1 26/4/1
f 28/4/1 26/4/1 27/4/1
f 29/11/1 28/11/1 27/11/1
f 31/11/1 29/11/1 27/11/1
f 31/11/1 30/11/1 29/11/1
f 32/11/1 30/11/1 31/11/1
f 33/11/1 31/11/1 27/11/1
f 34/11/1 31/11/1 33/11/1
f 35/11/1 31/11/1 34/11/1
f 36/11/1 31/11/1 35/11/1
f 37/11/1 35/11/1 34/11/1
f 38/11/1 35/11/1 37/11/1
f 42/10/1 40/10/1 39/10/1
f 43/10/1 40/10/1 42/10/1
f 45/10/1 42/10/1 41/10/1
f 46/10/1 42/10/1 45/10/1
f 47/10/1 44/10/1 43/10/1
f 48/10/1 44/10/1 47/10/1
f 53/11/1 50/11/1 49/11/1
f 54/11/1 50/11/1 53/11/1
f 56/11/1 52/11/1 51/11/1
f 57/11/1 52/11/1 56/11/1
f 58/11/1 56/11/1 55/11/1
f 59/11/1 56/11/1 58/11/1
f 62/10/1 61/10/1 60/10/1
f 63/10/1 61/10/1 62/10/1
f 66/11/1 65/11/1 64/11/1
f 67/11/1 65/11/1 66/11/1
f 70/11/1 69/11/1 68/11/1
f 71/11/1 69/11/1 70/11/1
f 74/4/1 73/4/1 72/4/1
f 75/4/1 73/4/1 74/4/1
f 78/10/1 77/10/1 76/10/1
f 79/10/1 77/10/1 78/10/1
f 80/10/2 81/10/2 82/10/2
f 82/10/2 81/10/2 83/10/2
f 84/4/2 85/4/2 86/4/2
f 86/4/2 85/4/2 87/4/2
f 88/11/2 89/11/2 90/11/2
f 90/11/2 89/11/2 91/11/2
f 92/11/2 93/11/2 94/11/2
f 94/11/2 93/11/2 95/11/2
f 96/10/2 97/10/2 98/10/2
f 98/10/2 97/10/2 99/10/2
f 100/11/2 101/11/2 102/11/2
f 102/11/2 101/11/2 103/11/2
f 104/10/2 105/10/2 107/10/2
f 107/10/2 105/10/2 108/10/2
f 106/10/2 107/10/2 110/10/2
f 110/10/2 107/10/2 111/10/2
f 108/10/2 109/10/2 112/10/2
f 112/10/2 109/10/2 113/10/2
f 114/11/2 115/11/2 118/11/2
f 118/11/2 115/11/2 119/11/2
f 116/11/2 117/11/2 120/11/2
f 120/11/2 117/11/2 121/11/2
f 122/10/2 123/10/2 125/10/2
f 125/10/2 123/10/2 126/10/2
f 124/6/2 125/6/2 128/6/2
f 126/6/2 127/6/2 128/6/2
f 125/6/2 126/6/2 128/6/2
f 128/6/2 127/6/2 129/6/2
f 124/6/2 128/6/2 130/6/2
f 129/6/2 127/6/2 131/6/2
f 124/6/2 130/6/2 132/6/2
f 132/6/2 130/6/2 133/6/2
f 131/6/2 127/6/2 134/6/2
f 134/6/2 127/6/2 135/6/2
f 132/4/2 133/4/2 136/4/2
f 134/4/2 135/4/2 137/4/2
f 132/4/2 136/4/2 138/4/2
f 136/4/2 137/4/2 138/4/2
f 137/4/2 135/4/2 139/4/2
f 138/4/2 137/4/2 139/4/2
f 138/11/2 139/11/2 140/11/2
f 138/11/2 140/11/2 142/11/2
f 140/11/2 141/11/2 142/11/2
f 142/11/2 141/11/2 143/11/2
f 138/11/2 142/11/2 144/11/2
f 144/11/2 142/11/2 145/11/2
f 145/11/2 142/11/2 146/11/2
f 146/11/2 142/11/2 147/11/2
f 145/11/2 146/11/2 148/11/2
f 148/11/2 146/11/2 149/11/2
f 150/6/2 151/6/2 152/6/2
f 152/6/2 151/6/2 153/6/2
f 154/4/2 155/4/2 156/4/2
f 156/4/2 155/4/2 157/4/2
f 156/6/2 157/6/2 158/6/2
f 158/6/2 157/6/2 159/6/2
f 162/4/3 161/4/3 160/4/3
f 163/4/3 161/4/3 162/4/3
f 169/6/3 165/6/3 164/6/3
f 170/11/3 167/11/3 166/11/3
f 170/4/3 166/4/3 165/4/3
f 171/11/3 167/11/3 170/11/3
f 172/11/3 167/11/3 171/11/3
f 174/6/3 165/6/3 169/6/3
f 175/4/3 170/4/3 165/4/3
f 175/6/3 165/6/3 174/6/3
f 175/4/3 171/4/3 170/4/3
f 176/4/3 171/4/3 175/4/3
f 177/4/3 171/4/3 176/4/3
f 178/6/3 174/6/3 169/6/3
f 179/4/3 175/4/3 174/4/3
f 179/6/3 174/6/3 178/6/3
f 179/4/3 176/4/3 175/4/3
f 180/4/3 176/4/3 179/4/3
f 181/7/3 177/7/3 176/7/3
f 181/4/3 176/4/3 180/4/3
f 182/4/3 171/4/3 177/4/3
f 182/7/3 177/7/3 181/7/3
f 183/4/3 171/4/3 182/4/3
f 183/4/3 182/4/3 181/4/3
f 184/11/3 173/11/3 172/11/3
f 184/4/3 171/4/3 183/4/3
f 184/11/3 172/11/3 171/11/3
f 185/4/3 179/4/3 178/4/3
f 185/4/3 180/4/3 179/4/3
f 185/6/3 178/6/3 169/6/3
f 186/4/3 180/4/3 185/4/3
f 187/4/3 180/4/3 186/4/3
f 188/4/3 183/4/3 181/4/3
f 189/4/3 183/4/3 188/4/3
f 190/11/3 184/11/3 183/11/3
f 190/4/3 183/4/3 189/4/3
f 191/11/3 173/11/3 184/11/3
f 191/11/3 184/11/3 190/11/3
f 192/4/3 187/4/3 186/4/3
f 192/6/3 186/6/3 185/6/3
f 192/4/3 188/4/3 187/4/3
f 193/4/3 188/4/3 192/4/3
f 194/7/3 189/7/3 188/7/3
f 194/4/3 188/4/3 193/4/3
f 195/4/3 190/4/3 189/4/3
f 195/7/3 189/7/3 194/7/3
f 195/4/3 191/4/3 190/4/3
f 196/10/3 169/10/3 168/10/3
f 197/6/3 193/6/3 192/6/3
f 197/10/3 169/10/3 196/10/3
f 197/6/3 185/6/3 169/6/3
f 197/6/3 192/6/3 185/6/3
f 198/4/3 194/4/3 193/4/3
f 198/4/3 195/4/3 194/4/3
f 199/4/3 191/4/3 195/4/3
f 199/4/3 195/4/3 198/4/3
f 199/11/3 173/11/3 191/11/3
f 200/11/3 173/11/3 199/11/3
f 201/11/3 173/11/3 200/11/3
f 202/6/3 193/6/3 197/6/3
f 203/4/3 198/4/3 193/4/3
f 203/6/3 193/6/3 202/6/3
f 204/11/3 200/11/3 199/11/3
f 204/4/3 198/4/3 203/4/3
f 204/11/3 199/11/3 198/11/3
f 205/11/3 200/11/3 204/11/3
f 208/11/3 207/11/3 206/11/3
f 209/11/3 207/11/3 208/11/3
f 212/11/3 211/11/3 210/11/3
f 213/11/3 211/11/3 212/11/3
f 217/10/3 215/10/3 214/10/3
f 218/10/3 215/10/3 217/10/3
f 221/11/3 220/11/3 219/11/3
f 222/11/3 220/11/3 221/11/3
f 223/10/3 217/10/3 216/10/3
f 224/10/3 217/10/3 223/10/3
f 226/10/3 225/10/3 224/10/3
f 227/10/3 225/10/3 226/10/3
f 231/6/3 230/6/3 229/6/3
f 233/4/3 229/4/3 228/4/3
f 234/6/3 232/6/3 231/6/3
f 234/4/3 229/4/3 233/4/3
f 234/6/3 231/6/3 229/6/3
f 235/6/3 232/6/3 234/6/3
f 236/6/3 232/6/3 235/6/3
f 241/10/3 238/10/3 237/10/3
f 242/10/3 238/10/3 241/10/3
f 245/11/3 240/11/3 239/11/3
f 246/11/3 240/11/3 245/11/3
f 247/10/3 244/10/3 243/10/3
f 248/10/3 244/10/3 247/10/3
f 253/6/3 251/6/3 250/6/3
f 253/6/3 252/6/3 251/6/3
f 254/6/3 252/6/3 253/6/3
f 255/4/3 250/4/3 249/4/3
f 256/6/3 253/6/3 250/6/3
f 256/4/3 250/4/3 255/4/3
f 257/6/3 253/6/3 256/6/3
f 259/6/4 260/6/4 261/6/4
f 258/4/4 259/4/4 263/4/4
f 261/6/4 262/6/4 264/6/4
f 263/4/4 259/4/4 264/4/4
f 259/6/4 261/6/4 264/6/4
f 264/6/4 262/6/4 265/6/4
f 265/6/4 262/6/4 266/6/4
f 267/10/4 268/10/4 269/10/4
f 269/10/4 268/10/4 270/10/4
f 271/10/4 272/10/4 273/10/4
f 273/10/4 272/10/4 274/10/4
f 276/6/4 277/6/4 279/6/4
f 277/6/4 278/6/4 279/6/4
f 279/6/4 278/6/4 280/6/4
f 275/4/4 276/4/4 281/4/4
f 276/6/4 279/6/4 282/6/4
f 281/4/4 276/4/4 282/4/4
f 282/6/4 279/6/4 283/6/4
f 284/10/4 285/10/4 287/10/4
f 287/10/4 285/10/4 288/10/4
f 289/11/4 290/11/4 291/11/4
f 291/11/4 290/11/4 292/11/4
f 286/10/4 287/10/4 293/10/4
f 293/10/4 287/10/4 294/10/4
f 294/10/4 295/10/4 296/10/4
f 296/10/4 295/10/4 297/10/4
f 298/11/4 299/11/4 300/11/4
f 300/11/4 299/11/4 301/11/4
f 301/11/4 302/11/4 303/11/4
f 303/11/4 302/11/4 304/11/4
f 305/11/4 306/11/4 307/11/4
f 307/11/4 306/11/4 308/11/4
f 309/6/4 310/6/4 316/6/4
f 313/11/4 314/11/4 317/11/4
f 313/11/4 317/11/4 319/11/4
f 317/11/4 318/11/4 319/11/4
f 319/11/4 318/11/4 320/11/4
f 315/10/4 316/10/4 323/10/4
f 316/6/4 310/6/4 324/6/4
f 323/10/4 316/10/4 324/10/4
f 321/11/4 322/11/4 325/11/4
f 325/11/4 322/11/4 326/11/4
f 324/6/4 310/6/4 327/6/4
f 310/4/4 311/4/4 328/4/4
f 327/6/4 310/6/4 328/6/4
f 311/11/4 312/11/4 329/11/4
f 328/4/4 311/4/4 329/4/4
f 329/11/4 312/11/4 330/11/4
f 321/11/4 325/11/4 331/11/4
f 331/11/4 325/11/4 332/11/4
f 333/11/4 334/11/4 335/11/4
f 333/11/4 335/11/4 337/11/4
f 335/11/4 336/11/4 337/11/4
f 337/11/4 336/11/4 338/11/4
f 333/11/4 337/11/4 339/11/4
f 339/11/4 337/11/4 340/11/4
f 345/10/5 342/10/5 341/10/5
f 346/10/5 342/10/5 345/10/5
f 347/10/5 344/10/5 343/10/5
f 348/10/5 344/10/5 347/10/5
f 351/10/5 350/10/5 349/10/5
f 352/10/5 350/10/5 351/10/5
f 353/10/5 350/10/5 352/10/5
f 354/10/5 350/10/5 353/10/5
f 355/10/5 351/10/5 349/10/5
f 356/10/5 353/10/5 352/10/5
f 357/10/5 353/10/5 356/10/5
f 358/10/5 350/10/5 354/10/5
f 359/10/5 357/10/5 356/10/5
f 359/10/5 358/10/5 357/10/5
f 359/10/5 355/10/5 349/10/5
f 359/10/5 356/10/5 355/10/5
f 360/10/5 350/10/5 358/10/5
f 360/10/5 358/10/5 359/10/5
f 364/10/5 362/10/5 361/10/5
f 365/10/5 362/10/5 364/10/5
f 367/10/5 364/10/5 363/10/5
f 368/10/5 364/10/5 367/10/5
f 369/10/5 366/10/5 365/10/5
f 370/10/5 366/10/5 369/10/5
f 371/10/5 369/10/5 368/10/5
f 372/10/5 369/10/5 371/10/5
f 377/6/5 374/6/5 373/6/5
f 378/6/5 374/6/5 377/6/5
f 379/6/5 376/6/5 375/6/5
f 380/6/5 376/6/5 379/6/5
f 385/6/5 382/6/5 381/6/5
f 386/6/5 382/6/5 385/6/5
f 387/6/5 384/6/5 383/6/5
f 388/6/5 384/6/5 387/6/5
f 393/4/5 390/4/5 389/4/5
f 394/4/5 390/4/5 393/4/5
f 395/4/5 392/4/5 391/4/5
f 396/4/5 392/4/5 395/4/5
f 399/4/5 398/4/5 397/4/5
f 400/4/5 398/4/5 399/4/5
f 403/11/5 402/11/5 401/11/5
f 404/11/5 402/11/5 403/11/5
f 405/6/6 406/6/6 409/6/6
f 409/6/6 406/6/6 410/6/6
f 407/6/6 408/6/6 411/6/6
f 411/6/6 408/6/6 412/6/6
f 413/6/6 414/6/6 417/6/6
f 417/6/6 414/6/6 418/6/6
f 415/6/6 416/6/6 419/6/6
f 419/6/6 416/6/6 420/6/6
f 421/4/6 422/4/6 423/4/6
f 423/4/6 422/4/6 424/4/6
f 425/11/6 426/11/6 429/11/6
f 429/11/6 426/11/6 430/11/6
f 427/11/6 428/11/6 431/11/6
f 431/11/6 428/11/6 432/11/6
f 433/11/6 434/11/6 437/11/6
f 437/11/6 434/11/6 438/11/6
f 435/11/6 436/11/6 439/11/6
f 439/11/6 436/11/6 440/11/6
f 441/11/6 442/11/6 445/11/6
f 445/11/6 442/11/6 446/11/6
f 443/11/6 444/11/6 447/11/6
f 447/11/6 444/11/6 448/11/6
f 449/11/6 450/11/6 452/11/6
f 452/11/6 450/11/6 453/11/6
f 451/11/6 452/11/6 455/11/6
f 453/11/6 454/11/6 455/11/6
f 452/11/6 453/11/6 455/11/6
f 455/11/6 454/11/6 456/11/6
f 451/11/6 455/11/6 457/11/6
f 457/11/6 455/11/6 458/11/6
f 456/11/6 454/11/6 459/11/6
f 459/11/6 454/11/6 460/11/6
f 460/11/6 454/11/6 461/11/6
f 458/11/6 459/11/6 462/11/6
f 459/11/6 460/11/6 462/11/6
f 462/11/6 460/11/6 463/11/6
f 463/11/6 460/11/6 464/11/6
f 464/11/6 460/11/6 465/11/6
f 463/11/6 464/11/6 466/11/6
f 466/11/6 464/11/6 467/11/6
f 468/11/6 469/11/6 470/11/6
f 470/11/6 469/11/6 471/11/6
f 468/11/6 470/11/6 472/11/6
f 471/11/6 469/11/6 473/11/6
f 468/11/6 472/11/6 474/11/6
f 472/11/6 473/11/6 474/11/6
f 473/11/6 469/11/6 475/11/6
f 474/11/6 473/11/6 475/11/6
f 476/11/6 477/11/6 478/11/6
f 478/11/6 477/11/6 479/11/6
