# MagicaVoxel @ Ephtracy

# group
g hotdogWithBun

# material
mtllib hotdogWithBun.mtl
usemtl palette

# normals
vn -1 0 0
vn 1 0 0
vn 0 0 1
vn 0 0 -1
vn 0 -1 0
vn 0 1 0

# texcoords
vt 0.369141 0.5
vt 0.560547 0.5
vt 0.990234 0.5

# verts
v -6 0 4
v -6 0 -4
v -6 1 5
v -6 1 4
v -6 1 2
v -6 1 -2
v -6 1 -4
v -6 1 -5
v -6 2 3
v -6 2 2
v -6 2 -2
v -6 2 -3
v -6 4 5
v -6 4 4
v -6 4 3
v -6 4 2
v -6 4 -0
v -6 4 -1
v -6 4 -2
v -6 4 -3
v -6 4 -4
v -6 4 -5
v -6 5 4
v -6 5 3
v -6 5 2
v -6 5 -0
v -6 5 -1
v -6 5 -2
v -6 5 -3
v -6 5 -4
v 6 0 4
v 6 0 -4
v 6 1 5
v 6 1 4
v 6 1 2
v 6 1 1
v 6 1 -2
v 6 1 -4
v 6 1 -5
v 6 2 3
v 6 2 2
v 6 2 1
v 6 2 -2
v 6 2 -3
v 6 3 3
v 6 3 2
v 6 3 1
v 6 3 -0
v 6 4 5
v 6 4 4
v 6 4 3
v 6 4 2
v 6 4 1
v 6 4 -0
v 6 4 -1
v 6 4 -2
v 6 4 -3
v 6 4 -4
v 6 4 -5
v 6 5 4
v 6 5 3
v 6 5 2
v 6 5 -0
v 6 5 -1
v 6 5 -2
v 6 5 -3
v 6 5 -4
v -6 1 5
v -6 4 5
v 6 1 5
v 6 4 5
v -6 0 4
v -6 1 4
v -6 4 4
v -6 5 4
v 6 0 4
v 6 1 4
v 6 4 4
v 6 5 4
v -6 4 2
v -6 5 2
v -4 4 2
v -4 5 2
v -3 4 2
v -3 5 2
v -1 4 2
v -1 5 2
v 0 4 2
v 0 5 2
v 1 4 2
v 3 4 2
v 3 5 2
v 4 4 2
v 4 5 2
v 5 4 2
v 6 4 2
v 6 5 2
v -6 4 -3
v -6 5 -3
v -5 4 -3
v -4 4 -3
v -1 4 -3
v 0 4 -3
v 3 4 -3
v 4 4 -3
v 6 4 -3
v 6 5 -3
v -6 4 3
v -6 5 3
v -4 4 3
v -3 4 3
v 0 4 3
v 1 4 3
v 4 4 3
v 5 4 3
v 6 4 3
v 6 5 3
v -6 4 -2
v -6 5 -2
v -5 4 -2
v -4 4 -2
v -4 5 -2
v -3 4 -2
v -3 5 -2
v -1 4 -2
v 0 4 -2
v 0 5 -2
v 1 4 -2
v 1 5 -2
v 3 4 -2
v 4 4 -2
v 4 5 -2
v 5 4 -2
v 5 5 -2
v 6 4 -2
v 6 5 -2
v -6 0 -4
v -6 1 -4
v -6 4 -4
v -6 5 -4
v 6 0 -4
v 6 1 -4
v 6 4 -4
v 6 5 -4
v -6 1 -5
v -6 4 -5
v 6 1 -5
v 6 4 -5
v -6 0 4
v 6 0 4
v -6 0 -4
v 6 0 -4
v -6 1 5
v 6 1 5
v -6 1 4
v 6 1 4
v -6 1 -4
v 6 1 -4
v -6 1 -5
v 6 1 -5
v -6 4 5
v 6 4 5
v -6 4 4
v 6 4 4
v -6 4 3
v -4 4 3
v -3 4 3
v 0 4 3
v 1 4 3
v 4 4 3
v 5 4 3
v 6 4 3
v -6 4 2
v -4 4 2
v -3 4 2
v -1 4 2
v 0 4 2
v 1 4 2
v 3 4 2
v 4 4 2
v 5 4 2
v 6 4 2
v -6 4 -2
v -5 4 -2
v -4 4 -2
v -3 4 -2
v -1 4 -2
v 0 4 -2
v 1 4 -2
v 3 4 -2
v 4 4 -2
v 5 4 -2
v 6 4 -2
v -6 4 -3
v -5 4 -3
v -4 4 -3
v -1 4 -3
v 0 4 -3
v 3 4 -3
v 4 4 -3
v 6 4 -3
v -6 4 -4
v 6 4 -4
v -6 4 -5
v 6 4 -5
v -6 5 4
v 6 5 4
v -6 5 3
v 6 5 3
v -6 5 2
v -4 5 2
v -3 5 2
v -1 5 2
v 0 5 2
v 3 5 2
v 4 5 2
v 6 5 2
v -5 5 1
v -4 5 1
v -3 5 1
v -2 5 1
v -1 5 1
v 0 5 1
v 2 5 1
v 3 5 1
v 4 5 1
v -6 5 -0
v -5 5 -0
v -4 5 -0
v -3 5 -0
v -2 5 -0
v -1 5 -0
v 1 5 -0
v 2 5 -0
v 3 5 -0
v 5 5 -0
v 6 5 -0
v -6 5 -1
v -5 5 -1
v -4 5 -1
v -3 5 -1
v -2 5 -1
v 0 5 -1
v 1 5 -1
v 2 5 -1
v 4 5 -1
v 5 5 -1
v 6 5 -1
v -6 5 -2
v -4 5 -2
v -3 5 -2
v 0 5 -2
v 1 5 -2
v 4 5 -2
v 5 5 -2
v 6 5 -2
v -6 5 -3
v 6 5 -3
v -6 5 -4
v 6 5 -4

# faces
f 4/1/1 2/1/1 1/1/1
f 5/1/1 2/1/1 4/1/1
f 6/1/1 2/1/1 5/1/1
f 7/1/1 2/1/1 6/1/1
f 9/1/1 4/1/1 3/1/1
f 9/1/1 5/1/1 4/1/1
f 10/2/1 6/2/1 5/2/1
f 10/1/1 5/1/1 9/1/1
f 11/1/1 8/1/1 7/1/1
f 11/2/1 6/2/1 10/2/1
f 11/1/1 7/1/1 6/1/1
f 12/1/1 8/1/1 11/1/1
f 13/1/1 9/1/1 3/1/1
f 14/1/1 9/1/1 13/1/1
f 15/2/1 10/2/1 9/2/1
f 15/1/1 9/1/1 14/1/1
f 15/2/1 11/2/1 10/2/1
f 15/2/1 12/2/1 11/2/1
f 16/2/1 12/2/1 15/2/1
f 17/2/1 12/2/1 16/2/1
f 18/2/1 12/2/1 17/2/1
f 19/2/1 12/2/1 18/2/1
f 20/1/1 8/1/1 12/1/1
f 20/2/1 12/2/1 19/2/1
f 21/1/1 8/1/1 20/1/1
f 22/1/1 8/1/1 21/1/1
f 23/1/1 15/1/1 14/1/1
f 24/1/1 15/1/1 23/1/1
f 25/2/1 17/2/1 16/2/1
f 26/3/1 18/3/1 17/3/1
f 26/2/1 17/2/1 25/2/1
f 27/2/1 19/2/1 18/2/1
f 27/3/1 18/3/1 26/3/1
f 28/2/1 19/2/1 27/2/1
f 29/1/1 21/1/1 20/1/1
f 30/1/1 21/1/1 29/1/1
f 31/1/2 32/1/2 34/1/2
f 34/1/2 32/1/2 35/1/2
f 35/1/2 32/1/2 36/1/2
f 36/1/2 32/1/2 37/1/2
f 37/1/2 32/1/2 38/1/2
f 33/1/2 34/1/2 40/1/2
f 34/1/2 35/1/2 40/1/2
f 35/3/2 36/3/2 41/3/2
f 40/1/2 35/1/2 41/1/2
f 36/2/2 37/2/2 42/2/2
f 41/3/2 36/3/2 42/3/2
f 38/1/2 39/1/2 43/1/2
f 42/2/2 37/2/2 43/2/2
f 37/1/2 38/1/2 43/1/2
f 43/1/2 39/1/2 44/1/2
f 40/3/2 41/3/2 45/3/2
f 33/1/2 40/1/2 45/1/2
f 41/2/2 42/2/2 46/2/2
f 45/3/2 41/3/2 46/3/2
f 43/2/2 44/2/2 46/2/2
f 42/2/2 43/2/2 46/2/2
f 46/2/2 44/2/2 47/2/2
f 47/2/2 44/2/2 48/2/2
f 33/1/2 45/1/2 49/1/2
f 49/1/2 45/1/2 50/1/2
f 45/2/2 46/2/2 51/2/2
f 50/1/2 45/1/2 51/1/2
f 46/2/2 47/2/2 51/2/2
f 51/2/2 47/2/2 52/2/2
f 47/3/2 48/3/2 53/3/2
f 52/2/2 47/2/2 53/2/2
f 48/2/2 44/2/2 54/2/2
f 53/3/2 48/3/2 54/3/2
f 54/2/2 44/2/2 55/2/2
f 55/2/2 44/2/2 56/2/2
f 44/1/2 39/1/2 57/1/2
f 56/2/2 44/2/2 57/2/2
f 57/1/2 39/1/2 58/1/2
f 58/1/2 39/1/2 59/1/2
f 50/1/2 51/1/2 60/1/2
f 60/1/2 51/1/2 61/1/2
f 52/2/2 53/2/2 62/2/2
f 53/2/2 54/2/2 62/2/2
f 54/3/2 55/3/2 63/3/2
f 62/2/2 54/2/2 63/2/2
f 55/2/2 56/2/2 64/2/2
f 63/3/2 55/3/2 64/3/2
f 64/2/2 56/2/2 65/2/2
f 57/1/2 58/1/2 66/1/2
f 66/1/2 58/1/2 67/1/2
f 70/1/3 69/1/3 68/1/3
f 71/1/3 69/1/3 70/1/3
f 76/1/3 73/1/3 72/1/3
f 77/1/3 73/1/3 76/1/3
f 78/1/3 75/1/3 74/1/3
f 79/1/3 75/1/3 78/1/3
f 82/2/3 81/2/3 80/2/3
f 83/2/3 81/2/3 82/2/3
f 84/3/3 83/3/3 82/3/3
f 85/3/3 83/3/3 84/3/3
f 86/2/3 85/2/3 84/2/3
f 87/2/3 85/2/3 86/2/3
f 88/3/3 87/3/3 86/3/3
f 89/3/3 87/3/3 88/3/3
f 90/2/3 89/2/3 88/2/3
f 91/2/3 89/2/3 90/2/3
f 92/2/3 89/2/3 91/2/3
f 93/3/3 92/3/3 91/3/3
f 94/3/3 92/3/3 93/3/3
f 95/2/3 94/2/3 93/2/3
f 96/2/3 94/2/3 95/2/3
f 97/2/3 94/2/3 96/2/3
f 100/1/3 99/1/3 98/1/3
f 101/1/3 99/1/3 100/1/3
f 102/1/3 99/1/3 101/1/3
f 103/1/3 99/1/3 102/1/3
f 104/1/3 99/1/3 103/1/3
f 105/1/3 99/1/3 104/1/3
f 106/1/3 99/1/3 105/1/3
f 107/1/3 99/1/3 106/1/3
f 108/1/4 109/1/4 110/1/4
f 110/1/4 109/1/4 111/1/4
f 111/1/4 109/1/4 112/1/4
f 112/1/4 109/1/4 113/1/4
f 113/1/4 109/1/4 114/1/4
f 114/1/4 109/1/4 115/1/4
f 115/1/4 109/1/4 116/1/4
f 116/1/4 109/1/4 117/1/4
f 118/2/4 119/2/4 120/2/4
f 120/2/4 119/2/4 121/2/4
f 121/2/4 119/2/4 122/2/4
f 121/3/4 122/3/4 123/3/4
f 123/3/4 122/3/4 124/3/4
f 123/2/4 124/2/4 125/2/4
f 125/2/4 124/2/4 126/2/4
f 126/2/4 124/2/4 127/2/4
f 126/3/4 127/3/4 128/3/4
f 128/3/4 127/3/4 129/3/4
f 128/2/4 129/2/4 130/2/4
f 130/2/4 129/2/4 131/2/4
f 131/2/4 129/2/4 132/2/4
f 131/3/4 132/3/4 133/3/4
f 133/3/4 132/3/4 134/3/4
f 133/2/4 134/2/4 135/2/4
f 135/2/4 134/2/4 136/2/4
f 137/1/4 138/1/4 141/1/4
f 141/1/4 138/1/4 142/1/4
f 139/1/4 140/1/4 143/1/4
f 143/1/4 140/1/4 144/1/4
f 145/1/4 146/1/4 147/1/4
f 147/1/4 146/1/4 148/1/4
f 151/1/5 150/1/5 149/1/5
f 152/1/5 150/1/5 151/1/5
f 155/1/5 154/1/5 153/1/5
f 156/1/5 154/1/5 155/1/5
f 159/1/5 158/1/5 157/1/5
f 160/1/5 158/1/5 159/1/5
f 161/1/6 162/1/6 163/1/6
f 163/1/6 162/1/6 164/1/6
f 165/2/6 166/2/6 173/2/6
f 166/3/6 167/3/6 174/3/6
f 173/2/6 166/2/6 174/2/6
f 167/2/6 168/2/6 175/2/6
f 174/3/6 167/3/6 175/3/6
f 175/2/6 168/2/6 176/2/6
f 168/3/6 169/3/6 177/3/6
f 176/2/6 168/2/6 177/2/6
f 169/2/6 170/2/6 178/2/6
f 177/3/6 169/3/6 178/3/6
f 178/2/6 170/2/6 179/2/6
f 170/3/6 171/3/6 180/3/6
f 179/2/6 170/2/6 180/2/6
f 171/2/6 172/2/6 181/2/6
f 180/3/6 171/3/6 181/3/6
f 181/2/6 172/2/6 182/2/6
f 183/2/6 184/2/6 194/2/6
f 184/3/6 185/3/6 195/3/6
f 194/2/6 184/2/6 195/2/6
f 185/2/6 186/2/6 196/2/6
f 195/3/6 185/3/6 196/3/6
f 186/2/6 187/2/6 196/2/6
f 187/3/6 188/3/6 197/3/6
f 196/2/6 187/2/6 197/2/6
f 188/2/6 189/2/6 198/2/6
f 197/3/6 188/3/6 198/3/6
f 189/2/6 190/2/6 198/2/6
f 190/3/6 191/3/6 199/3/6
f 198/2/6 190/2/6 199/2/6
f 192/2/6 193/2/6 200/2/6
f 199/3/6 191/3/6 200/3/6
f 191/2/6 192/2/6 200/2/6
f 200/2/6 193/2/6 201/2/6
f 202/1/6 203/1/6 204/1/6
f 204/1/6 203/1/6 205/1/6
f 206/1/6 207/1/6 208/1/6
f 208/1/6 207/1/6 209/1/6
f 210/2/6 211/2/6 218/2/6
f 211/3/6 212/3/6 219/3/6
f 218/2/6 211/2/6 219/2/6
f 212/2/6 213/2/6 220/2/6
f 219/3/6 212/3/6 220/3/6
f 220/2/6 213/2/6 221/2/6
f 213/3/6 214/3/6 222/3/6
f 221/2/6 213/2/6 222/2/6
f 214/2/6 215/2/6 223/2/6
f 222/3/6 214/3/6 223/3/6
f 223/2/6 215/2/6 224/2/6
f 215/3/6 216/3/6 225/3/6
f 224/2/6 215/2/6 225/2/6
f 216/2/6 217/2/6 226/2/6
f 225/3/6 216/3/6 226/3/6
f 210/2/6 218/2/6 227/2/6
f 218/3/6 219/3/6 228/3/6
f 227/2/6 218/2/6 228/2/6
f 220/2/6 221/2/6 229/2/6
f 228/3/6 219/3/6 229/3/6
f 219/2/6 220/2/6 229/2/6
f 229/2/6 221/2/6 230/2/6
f 221/3/6 222/3/6 231/3/6
f 230/2/6 221/2/6 231/2/6
f 223/2/6 224/2/6 232/2/6
f 231/3/6 222/3/6 232/3/6
f 222/2/6 223/2/6 232/2/6
f 232/2/6 224/2/6 233/2/6
f 224/3/6 225/3/6 234/3/6
f 233/2/6 224/2/6 234/2/6
f 225/2/6 226/2/6 235/2/6
f 234/3/6 225/3/6 235/3/6
f 226/2/6 217/2/6 236/2/6
f 235/2/6 226/2/6 236/2/6
f 236/2/6 217/2/6 237/2/6
f 227/3/6 228/3/6 238/3/6
f 229/2/6 230/2/6 239/2/6
f 238/3/6 228/3/6 239/3/6
f 228/2/6 229/2/6 239/2/6
f 239/2/6 230/2/6 240/2/6
f 230/3/6 231/3/6 241/3/6
f 240/2/6 230/2/6 241/2/6
f 232/2/6 233/2/6 242/2/6
f 241/3/6 231/3/6 242/3/6
f 231/2/6 232/2/6 242/2/6
f 242/2/6 233/2/6 243/2/6
f 233/3/6 234/3/6 244/3/6
f 243/2/6 233/2/6 244/2/6
f 234/2/6 235/2/6 245/2/6
f 244/3/6 234/3/6 245/3/6
f 235/2/6 236/2/6 245/2/6
f 245/2/6 236/2/6 246/2/6
f 236/3/6 237/3/6 247/3/6
f 246/2/6 236/2/6 247/2/6
f 247/3/6 237/3/6 248/3/6
f 239/2/6 240/2/6 249/2/6
f 238/2/6 239/2/6 249/2/6
f 240/3/6 241/3/6 250/3/6
f 249/2/6 240/2/6 250/2/6
f 242/2/6 243/2/6 251/2/6
f 250/3/6 241/3/6 251/3/6
f 241/2/6 242/2/6 251/2/6
f 243/3/6 244/3/6 252/3/6
f 251/2/6 243/2/6 252/2/6
f 245/2/6 246/2/6 253/2/6
f 252/3/6 244/3/6 253/3/6
f 244/2/6 245/2/6 253/2/6
f 246/3/6 247/3/6 254/3/6
f 253/2/6 246/2/6 254/2/6
f 247/2/6 248/2/6 255/2/6
f 254/3/6 247/3/6 255/3/6
f 255/2/6 248/2/6 256/2/6
f 257/1/6 258/1/6 259/1/6
f 259/1/6 258/1/6 260/1/6
