# MagicaVoxel @ Ephtracy

# group
g road

# material
mtllib road.mtl
usemtl palette

# normals
vn -1 0 0
vn 1 0 0
vn 0 0 1
vn 0 0 -1
vn 0 -1 0
vn 0 1 0

# texcoords
vt 0.162109 0.5
vt 0.892578 0.5
vt 0.962891 0.5
vt 0.966797 0.5
vt 0.994141 0.5

# verts
v -50 0 50
v -50 0 35
v -50 0 29
v -50 0 18
v -50 0 16
v -50 0 15
v -50 0 -15
v -50 0 -16
v -50 0 -18
v -50 0 -29
v -50 0 -35
v -50 0 -50
v -50 1 50
v -50 1 35
v -50 1 29
v -50 1 18
v -50 1 16
v -50 1 15
v -50 1 -15
v -50 1 -16
v -50 1 -18
v -50 1 -29
v -50 1 -35
v -50 1 -50
v 50 0 50
v 50 0 35
v 50 0 29
v 50 0 18
v 50 0 16
v 50 0 15
v 50 0 1
v 50 0 -1
v 50 0 -15
v 50 0 -16
v 50 0 -18
v 50 0 -29
v 50 0 -35
v 50 0 -50
v 50 1 50
v 50 1 35
v 50 1 29
v 50 1 18
v 50 1 16
v 50 1 15
v 50 1 1
v 50 1 -1
v 50 1 -15
v 50 1 -16
v 50 1 -18
v 50 1 -29
v 50 1 -35
v 50 1 -50
v -50 0 50
v -50 1 50
v 50 0 50
v 50 1 50
v -50 0 -50
v -50 1 -50
v 50 0 -50
v 50 1 -50
v -50 0 50
v 50 0 50
v -50 0 35
v 50 0 35
v -50 0 29
v 50 0 29
v -50 0 18
v 50 0 18
v -50 0 16
v 50 0 16
v -50 0 15
v 50 0 15
v -49 0 1
v -43 0 1
v -37 0 1
v -31 0 1
v -25 0 1
v -19 0 1
v -13 0 1
v -7 0 1
v -1 0 1
v 5 0 1
v 11 0 1
v 17 0 1
v 23 0 1
v 29 0 1
v 35 0 1
v 42 0 1
v 46 0 1
v 50 0 1
v -49 0 -1
v -43 0 -1
v -37 0 -1
v -31 0 -1
v -25 0 -1
v -19 0 -1
v -13 0 -1
v -7 0 -1
v -1 0 -1
v 5 0 -1
v 11 0 -1
v 17 0 -1
v 23 0 -1
v 29 0 -1
v 35 0 -1
v 42 0 -1
v 46 0 -1
v 50 0 -1
v -50 0 -15
v 50 0 -15
v -50 0 -16
v 50 0 -16
v -50 0 -18
v 50 0 -18
v -50 0 -29
v 50 0 -29
v -50 0 -35
v 50 0 -35
v -50 0 -50
v 50 0 -50
v -50 1 50
v 50 1 50
v -50 1 35
v 50 1 35
v -50 1 29
v 50 1 29
v -50 1 18
v 50 1 18
v -50 1 16
v 50 1 16
v -50 1 15
v 50 1 15
v -49 1 1
v -43 1 1
v -37 1 1
v -31 1 1
v -25 1 1
v -19 1 1
v -13 1 1
v -7 1 1
v -1 1 1
v 5 1 1
v 11 1 1
v 17 1 1
v 23 1 1
v 29 1 1
v 35 1 1
v 42 1 1
v 46 1 1
v 50 1 1
v -49 1 -1
v -43 1 -1
v -37 1 -1
v -31 1 -1
v -25 1 -1
v -19 1 -1
v -13 1 -1
v -7 1 -1
v -1 1 -1
v 5 1 -1
v 11 1 -1
v 17 1 -1
v 23 1 -1
v 29 1 -1
v 35 1 -1
v 42 1 -1
v 46 1 -1
v 50 1 -1
v -50 1 -15
v 50 1 -15
v -50 1 -16
v 50 1 -16
v -50 1 -18
v 50 1 -18
v -50 1 -29
v 50 1 -29
v -50 1 -35
v 50 1 -35
v -50 1 -50
v 50 1 -50

# faces
f 13/2/1 2/2/1 1/2/1
f 14/4/1 3/4/1 2/4/1
f 14/2/1 2/2/1 13/2/1
f 15/2/1 4/2/1 3/2/1
f 15/4/1 3/4/1 14/4/1
f 16/5/1 5/5/1 4/5/1
f 16/2/1 4/2/1 15/2/1
f 17/3/1 6/3/1 5/3/1
f 17/5/1 5/5/1 16/5/1
f 18/5/1 7/5/1 6/5/1
f 18/3/1 6/3/1 17/3/1
f 19/3/1 8/3/1 7/3/1
f 19/5/1 7/5/1 18/5/1
f 20/5/1 9/5/1 8/5/1
f 20/3/1 8/3/1 19/3/1
f 21/2/1 10/2/1 9/2/1
f 21/5/1 9/5/1 20/5/1
f 22/4/1 11/4/1 10/4/1
f 22/2/1 10/2/1 21/2/1
f 23/2/1 12/2/1 11/2/1
f 23/4/1 11/4/1 22/4/1
f 24/2/1 12/2/1 23/2/1
f 25/2/2 26/2/2 39/2/2
f 26/4/2 27/4/2 40/4/2
f 39/2/2 26/2/2 40/2/2
f 27/2/2 28/2/2 41/2/2
f 40/4/2 27/4/2 41/4/2
f 28/5/2 29/5/2 42/5/2
f 41/2/2 28/2/2 42/2/2
f 29/3/2 30/3/2 43/3/2
f 42/5/2 29/5/2 43/5/2
f 30/5/2 31/5/2 44/5/2
f 43/3/2 30/3/2 44/3/2
f 31/1/2 32/1/2 45/1/2
f 44/5/2 31/5/2 45/5/2
f 32/5/2 33/5/2 46/5/2
f 45/1/2 32/1/2 46/1/2
f 33/3/2 34/3/2 47/3/2
f 46/5/2 33/5/2 47/5/2
f 34/5/2 35/5/2 48/5/2
f 47/3/2 34/3/2 48/3/2
f 35/2/2 36/2/2 49/2/2
f 48/5/2 35/5/2 49/5/2
f 36/4/2 37/4/2 50/4/2
f 49/2/2 36/2/2 50/2/2
f 37/2/2 38/2/2 51/2/2
f 50/4/2 37/4/2 51/4/2
f 51/2/2 38/2/2 52/2/2
f 55/2/3 54/2/3 53/2/3
f 56/2/3 54/2/3 55/2/3
f 57/2/4 58/2/4 59/2/4
f 59/2/4 58/2/4 60/2/4
f 63/2/5 62/2/5 61/2/5
f 64/2/5 62/2/5 63/2/5
f 65/4/5 64/4/5 63/4/5
f 66/4/5 64/4/5 65/4/5
f 67/2/5 66/2/5 65/2/5
f 68/2/5 66/2/5 67/2/5
f 69/5/5 68/5/5 67/5/5
f 70/5/5 68/5/5 69/5/5
f 71/3/5 70/3/5 69/3/5
f 72/3/5 70/3/5 71/3/5
f 73/5/5 72/5/5 71/5/5
f 74/5/5 72/5/5 73/5/5
f 75/5/5 72/5/5 74/5/5
f 76/5/5 72/5/5 75/5/5
f 77/5/5 72/5/5 76/5/5
f 78/5/5 72/5/5 77/5/5
f 79/5/5 72/5/5 78/5/5
f 80/5/5 72/5/5 79/5/5
f 81/5/5 72/5/5 80/5/5
f 82/5/5 72/5/5 81/5/5
f 83/5/5 72/5/5 82/5/5
f 84/5/5 72/5/5 83/5/5
f 85/5/5 72/5/5 84/5/5
f 86/5/5 72/5/5 85/5/5
f 87/5/5 72/5/5 86/5/5
f 88/5/5 72/5/5 87/5/5
f 89/5/5 72/5/5 88/5/5
f 90/5/5 72/5/5 89/5/5
f 91/5/5 73/5/5 71/5/5
f 91/1/5 74/1/5 73/1/5
f 92/5/5 75/5/5 74/5/5
f 92/1/5 74/1/5 91/1/5
f 93/1/5 76/1/5 75/1/5
f 93/5/5 75/5/5 92/5/5
f 94/5/5 77/5/5 76/5/5
f 94/1/5 76/1/5 93/1/5
f 95/1/5 78/1/5 77/1/5
f 95/5/5 77/5/5 94/5/5
f 96/5/5 79/5/5 78/5/5
f 96/1/5 78/1/5 95/1/5
f 97/1/5 80/1/5 79/1/5
f 97/5/5 79/5/5 96/5/5
f 98/5/5 81/5/5 80/5/5
f 98/1/5 80/1/5 97/1/5
f 99/1/5 82/1/5 81/1/5
f 99/5/5 81/5/5 98/5/5
f 100/5/5 83/5/5 82/5/5
f 100/1/5 82/1/5 99/1/5
f 101/1/5 84/1/5 83/1/5
f 101/5/5 83/5/5 100/5/5
f 102/5/5 85/5/5 84/5/5
f 102/1/5 84/1/5 101/1/5
f 103/1/5 86/1/5 85/1/5
f 103/5/5 85/5/5 102/5/5
f 104/5/5 87/5/5 86/5/5
f 104/1/5 86/1/5 103/1/5
f 105/1/5 88/1/5 87/1/5
f 105/5/5 87/5/5 104/5/5
f 106/5/5 89/5/5 88/5/5
f 106/1/5 88/1/5 105/1/5
f 107/1/5 90/1/5 89/1/5
f 107/5/5 89/5/5 106/5/5
f 108/1/5 90/1/5 107/1/5
f 109/5/5 106/5/5 105/5/5
f 109/5/5 91/5/5 71/5/5
f 109/5/5 108/5/5 107/5/5
f 109/5/5 107/5/5 106/5/5
f 109/5/5 105/5/5 104/5/5
f 109/5/5 104/5/5 103/5/5
f 109/5/5 103/5/5 102/5/5
f 109/5/5 102/5/5 101/5/5
f 109/5/5 101/5/5 100/5/5
f 109/5/5 100/5/5 99/5/5
f 109/5/5 99/5/5 98/5/5
f 109/5/5 98/5/5 97/5/5
f 109/5/5 97/5/5 96/5/5
f 109/5/5 96/5/5 95/5/5
f 109/5/5 95/5/5 94/5/5
f 109/5/5 94/5/5 93/5/5
f 109/5/5 93/5/5 92/5/5
f 109/5/5 92/5/5 91/5/5
f 110/5/5 108/5/5 109/5/5
f 111/3/5 110/3/5 109/3/5
f 112/3/5 110/3/5 111/3/5
f 113/5/5 112/5/5 111/5/5
f 114/5/5 112/5/5 113/5/5
f 115/2/5 114/2/5 113/2/5
f 116/2/5 114/2/5 115/2/5
f 117/4/5 116/4/5 115/4/5
f 118/4/5 116/4/5 117/4/5
f 119/2/5 118/2/5 117/2/5
f 120/2/5 118/2/5 119/2/5
f 121/2/6 122/2/6 123/2/6
f 123/2/6 122/2/6 124/2/6
f 123/4/6 124/4/6 125/4/6
f 125/4/6 124/4/6 126/4/6
f 125/2/6 126/2/6 127/2/6
f 127/2/6 126/2/6 128/2/6
f 127/5/6 128/5/6 129/5/6
f 129/5/6 128/5/6 130/5/6
f 129/3/6 130/3/6 131/3/6
f 131/3/6 130/3/6 132/3/6
f 131/5/6 132/5/6 133/5/6
f 133/5/6 132/5/6 134/5/6
f 134/5/6 132/5/6 135/5/6
f 135/5/6 132/5/6 136/5/6
f 136/5/6 132/5/6 137/5/6
f 137/5/6 132/5/6 138/5/6
f 138/5/6 132/5/6 139/5/6
f 139/5/6 132/5/6 140/5/6
f 140/5/6 132/5/6 141/5/6
f 141/5/6 132/5/6 142/5/6
f 142/5/6 132/5/6 143/5/6
f 143/5/6 132/5/6 144/5/6
f 144/5/6 132/5/6 145/5/6
f 145/5/6 132/5/6 146/5/6
f 146/5/6 132/5/6 147/5/6
f 147/5/6 132/5/6 148/5/6
f 148/5/6 132/5/6 149/5/6
f 149/5/6 132/5/6 150/5/6
f 131/5/6 133/5/6 151/5/6
f 133/1/6 134/1/6 151/1/6
f 134/5/6 135/5/6 152/5/6
f 151/1/6 134/1/6 152/1/6
f 135/1/6 136/1/6 153/1/6
f 152/5/6 135/5/6 153/5/6
f 136/5/6 137/5/6 154/5/6
f 153/1/6 136/1/6 154/1/6
f 137/1/6 138/1/6 155/1/6
f 154/5/6 137/5/6 155/5/6
f 138/5/6 139/5/6 156/5/6
f 155/1/6 138/1/6 156/1/6
f 139/1/6 140/1/6 157/1/6
f 156/5/6 139/5/6 157/5/6
f 140/5/6 141/5/6 158/5/6
f 157/1/6 140/1/6 158/1/6
f 141/1/6 142/1/6 159/1/6
f 158/5/6 141/5/6 159/5/6
f 142/5/6 143/5/6 160/5/6
f 159/1/6 142/1/6 160/1/6
f 143/1/6 144/1/6 161/1/6
f 160/5/6 143/5/6 161/5/6
f 144/5/6 145/5/6 162/5/6
f 161/1/6 144/1/6 162/1/6
f 145/1/6 146/1/6 163/1/6
f 162/5/6 145/5/6 163/5/6
f 146/5/6 147/5/6 164/5/6
f 163/1/6 146/1/6 164/1/6
f 147/1/6 148/1/6 165/1/6
f 164/5/6 147/5/6 165/5/6
f 148/5/6 149/5/6 166/5/6
f 165/1/6 148/1/6 166/1/6
f 149/1/6 150/1/6 167/1/6
f 166/5/6 149/5/6 167/5/6
f 167/1/6 150/1/6 168/1/6
f 165/5/6 166/5/6 169/5/6
f 131/5/6 151/5/6 169/5/6
f 167/5/6 168/5/6 169/5/6
f 166/5/6 167/5/6 169/5/6
f 164/5/6 165/5/6 169/5/6
f 163/5/6 164/5/6 169/5/6
f 162/5/6 163/5/6 169/5/6
f 161/5/6 162/5/6 169/5/6
f 160/5/6 161/5/6 169/5/6
f 159/5/6 160/5/6 169/5/6
f 158/5/6 159/5/6 169/5/6
f 157/5/6 158/5/6 169/5/6
f 156/5/6 157/5/6 169/5/6
f 155/5/6 156/5/6 169/5/6
f 154/5/6 155/5/6 169/5/6
f 153/5/6 154/5/6 169/5/6
f 152/5/6 153/5/6 169/5/6
f 151/5/6 152/5/6 169/5/6
f 169/5/6 168/5/6 170/5/6
f 169/3/6 170/3/6 171/3/6
f 171/3/6 170/3/6 172/3/6
f 171/5/6 172/5/6 173/5/6
f 173/5/6 172/5/6 174/5/6
f 173/2/6 174/2/6 175/2/6
f 175/2/6 174/2/6 176/2/6
f 175/4/6 176/4/6 177/4/6
f 177/4/6 176/4/6 178/4/6
f 177/2/6 178/2/6 179/2/6
f 179/2/6 178/2/6 180/2/6
