# MagicaVoxel @ Ephtracy

# group
g road

# material
mtllib road.mtl
usemtl palette

# normals
vn -1 0 0
vn 1 0 0
vn 0 0 1
vn 0 0 -1
vn 0 -1 0
vn 0 1 0

# texcoords
vt 0.162109 0.5
vt 0.892578 0.5
vt 0.962891 0.5
vt 0.970703 0.5
vt 0.978516 0.5
vt 0.986328 0.5
vt 0.994141 0.5

# verts
v -50 0 50
v -50 0 35
v -50 0 34
v -50 0 30
v -50 0 29
v -50 0 18
v -50 0 16
v -50 0 15
v -50 0 -15
v -50 0 -16
v -50 0 -18
v -50 0 -29
v -50 0 -30
v -50 0 -34
v -50 0 -35
v -50 0 -50
v -50 1 50
v -50 1 35
v -50 1 34
v -50 1 30
v -50 1 29
v -50 1 18
v -50 1 16
v -50 1 15
v -50 1 -15
v -50 1 -16
v -50 1 -18
v -50 1 -29
v -50 1 -30
v -50 1 -34
v -50 1 -35
v -50 1 -50
v 50 0 50
v 50 0 35
v 50 0 34
v 50 0 30
v 50 0 29
v 50 0 18
v 50 0 16
v 50 0 15
v 50 0 1
v 50 0 -1
v 50 0 -15
v 50 0 -16
v 50 0 -18
v 50 0 -29
v 50 0 -30
v 50 0 -34
v 50 0 -35
v 50 0 -50
v 50 1 50
v 50 1 35
v 50 1 34
v 50 1 30
v 50 1 29
v 50 1 18
v 50 1 16
v 50 1 15
v 50 1 1
v 50 1 -1
v 50 1 -15
v 50 1 -16
v 50 1 -18
v 50 1 -29
v 50 1 -30
v 50 1 -34
v 50 1 -35
v 50 1 -50
v -50 0 50
v -50 1 50
v 50 0 50
v 50 1 50
v -50 0 -50
v -50 1 -50
v 50 0 -50
v 50 1 -50
v -50 0 50
v 50 0 50
v -50 0 35
v 50 0 35
v -50 0 34
v 50 0 34
v -33 0 33
v -32 0 33
v -12 0 33
v -11 0 33
v 38 0 33
v 39 0 33
v -44 0 32
v -43 0 32
v -33 0 32
v -32 0 32
v -12 0 32
v -11 0 32
v 2 0 32
v 3 0 32
v 21 0 32
v 22 0 32
v 38 0 32
v 39 0 32
v -44 0 31
v -43 0 31
v -24 0 31
v -23 0 31
v 2 0 31
v 3 0 31
v 21 0 31
v 22 0 31
v -50 0 30
v -24 0 30
v -23 0 30
v 50 0 30
v -50 0 29
v 50 0 29
v -50 0 18
v 50 0 18
v -50 0 16
v 50 0 16
v -50 0 15
v 50 0 15
v -49 0 1
v -43 0 1
v -37 0 1
v -31 0 1
v -25 0 1
v -19 0 1
v -13 0 1
v -7 0 1
v -1 0 1
v 5 0 1
v 11 0 1
v 17 0 1
v 23 0 1
v 29 0 1
v 35 0 1
v 42 0 1
v 46 0 1
v 50 0 1
v -49 0 -1
v -43 0 -1
v -37 0 -1
v -31 0 -1
v -25 0 -1
v -19 0 -1
v -13 0 -1
v -7 0 -1
v -1 0 -1
v 5 0 -1
v 11 0 -1
v 17 0 -1
v 23 0 -1
v 29 0 -1
v 35 0 -1
v 42 0 -1
v 46 0 -1
v 50 0 -1
v -50 0 -15
v 50 0 -15
v -50 0 -16
v 50 0 -16
v -50 0 -18
v 50 0 -18
v -50 0 -29
v 50 0 -29
v -50 0 -30
v 50 0 -30
v -44 0 -31
v -43 0 -31
v -2 0 -31
v -1 0 -31
v 30 0 -31
v 31 0 -31
v -44 0 -32
v -43 0 -32
v -25 0 -32
v -24 0 -32
v -10 0 -32
v -9 0 -32
v -2 0 -32
v -1 0 -32
v 17 0 -32
v 18 0 -32
v 30 0 -32
v 31 0 -32
v 44 0 -32
v 45 0 -32
v -25 0 -33
v -24 0 -33
v -10 0 -33
v -9 0 -33
v 17 0 -33
v 18 0 -33
v 44 0 -33
v 45 0 -33
v -50 0 -34
v 50 0 -34
v -50 0 -35
v 50 0 -35
v -50 0 -50
v 50 0 -50
v -50 1 50
v 50 1 50
v -50 1 35
v 50 1 35
v -50 1 34
v 50 1 34
v -33 1 33
v -32 1 33
v -12 1 33
v -11 1 33
v 38 1 33
v 39 1 33
v -44 1 32
v -43 1 32
v -33 1 32
v -32 1 32
v -12 1 32
v -11 1 32
v 2 1 32
v 3 1 32
v 21 1 32
v 22 1 32
v 38 1 32
v 39 1 32
v -44 1 31
v -43 1 31
v -24 1 31
v -23 1 31
v 2 1 31
v 3 1 31
v 21 1 31
v 22 1 31
v -50 1 30
v -24 1 30
v -23 1 30
v 50 1 30
v -50 1 29
v 50 1 29
v -50 1 18
v 50 1 18
v -50 1 16
v 50 1 16
v -50 1 15
v 50 1 15
v -49 1 1
v -43 1 1
v -37 1 1
v -31 1 1
v -25 1 1
v -19 1 1
v -13 1 1
v -7 1 1
v -1 1 1
v 5 1 1
v 11 1 1
v 17 1 1
v 23 1 1
v 29 1 1
v 35 1 1
v 42 1 1
v 46 1 1
v 50 1 1
v -49 1 -1
v -43 1 -1
v -37 1 -1
v -31 1 -1
v -25 1 -1
v -19 1 -1
v -13 1 -1
v -7 1 -1
v -1 1 -1
v 5 1 -1
v 11 1 -1
v 17 1 -1
v 23 1 -1
v 29 1 -1
v 35 1 -1
v 42 1 -1
v 46 1 -1
v 50 1 -1
v -50 1 -15
v 50 1 -15
v -50 1 -16
v 50 1 -16
v -50 1 -18
v 50 1 -18
v -50 1 -29
v 50 1 -29
v -50 1 -30
v 50 1 -30
v -44 1 -31
v -43 1 -31
v -2 1 -31
v -1 1 -31
v 30 1 -31
v 31 1 -31
v -44 1 -32
v -43 1 -32
v -25 1 -32
v -24 1 -32
v -10 1 -32
v -9 1 -32
v -2 1 -32
v -1 1 -32
v 17 1 -32
v 18 1 -32
v 30 1 -32
v 31 1 -32
v 44 1 -32
v 45 1 -32
v -25 1 -33
v -24 1 -33
v -10 1 -33
v -9 1 -33
v 17 1 -33
v 18 1 -33
v 44 1 -33
v 45 1 -33
v -50 1 -34
v 50 1 -34
v -50 1 -35
v 50 1 -35
v -50 1 -50
v 50 1 -50

# faces
f 17/2/1 2/2/1 1/2/1
f 18/6/1 3/6/1 2/6/1
f 18/2/1 2/2/1 17/2/1
f 19/5/1 4/5/1 3/5/1
f 19/6/1 3/6/1 18/6/1
f 20/6/1 5/6/1 4/6/1
f 20/5/1 4/5/1 19/5/1
f 21/2/1 6/2/1 5/2/1
f 21/6/1 5/6/1 20/6/1
f 22/7/1 7/7/1 6/7/1
f 22/2/1 6/2/1 21/2/1
f 23/3/1 8/3/1 7/3/1
f 23/7/1 7/7/1 22/7/1
f 24/7/1 9/7/1 8/7/1
f 24/3/1 8/3/1 23/3/1
f 25/3/1 10/3/1 9/3/1
f 25/7/1 9/7/1 24/7/1
f 26/7/1 11/7/1 10/7/1
f 26/3/1 10/3/1 25/3/1
f 27/2/1 12/2/1 11/2/1
f 27/7/1 11/7/1 26/7/1
f 28/6/1 13/6/1 12/6/1
f 28/2/1 12/2/1 27/2/1
f 29/5/1 14/5/1 13/5/1
f 29/6/1 13/6/1 28/6/1
f 30/6/1 15/6/1 14/6/1
f 30/5/1 14/5/1 29/5/1
f 31/2/1 16/2/1 15/2/1
f 31/6/1 15/6/1 30/6/1
f 32/2/1 16/2/1 31/2/1
f 33/2/2 34/2/2 51/2/2
f 34/6/2 35/6/2 52/6/2
f 51/2/2 34/2/2 52/2/2
f 35/5/2 36/5/2 53/5/2
f 52/6/2 35/6/2 53/6/2
f 36/6/2 37/6/2 54/6/2
f 53/5/2 36/5/2 54/5/2
f 37/2/2 38/2/2 55/2/2
f 54/6/2 37/6/2 55/6/2
f 38/7/2 39/7/2 56/7/2
f 55/2/2 38/2/2 56/2/2
f 39/3/2 40/3/2 57/3/2
f 56/7/2 39/7/2 57/7/2
f 40/7/2 41/7/2 58/7/2
f 57/3/2 40/3/2 58/3/2
f 41/1/2 42/1/2 59/1/2
f 58/7/2 41/7/2 59/7/2
f 42/7/2 43/7/2 60/7/2
f 59/1/2 42/1/2 60/1/2
f 43/3/2 44/3/2 61/3/2
f 60/7/2 43/7/2 61/7/2
f 44/7/2 45/7/2 62/7/2
f 61/3/2 44/3/2 62/3/2
f 45/2/2 46/2/2 63/2/2
f 62/7/2 45/7/2 63/7/2
f 46/6/2 47/6/2 64/6/2
f 63/2/2 46/2/2 64/2/2
f 47/5/2 48/5/2 65/5/2
f 64/6/2 47/6/2 65/6/2
f 48/6/2 49/6/2 66/6/2
f 65/5/2 48/5/2 66/5/2
f 49/2/2 50/2/2 67/2/2
f 66/6/2 49/6/2 67/6/2
f 67/2/2 50/2/2 68/2/2
f 71/2/3 70/2/3 69/2/3
f 72/2/3 70/2/3 71/2/3
f 73/2/4 74/2/4 75/2/4
f 75/2/4 74/2/4 76/2/4
f 79/2/5 78/2/5 77/2/5
f 80/2/5 78/2/5 79/2/5
f 81/6/5 80/6/5 79/6/5
f 82/6/5 80/6/5 81/6/5
f 83/5/5 82/5/5 81/5/5
f 84/5/5 82/5/5 83/5/5
f 85/5/5 82/5/5 84/5/5
f 86/5/5 82/5/5 85/5/5
f 87/5/5 82/5/5 86/5/5
f 88/5/5 82/5/5 87/5/5
f 89/5/5 83/5/5 81/5/5
f 90/5/5 83/5/5 89/5/5
f 91/4/5 84/4/5 83/4/5
f 91/5/5 83/5/5 90/5/5
f 92/5/5 85/5/5 84/5/5
f 92/4/5 84/4/5 91/4/5
f 93/4/5 86/4/5 85/4/5
f 93/5/5 85/5/5 92/5/5
f 94/5/5 87/5/5 86/5/5
f 94/4/5 86/4/5 93/4/5
f 95/5/5 87/5/5 94/5/5
f 96/5/5 87/5/5 95/5/5
f 97/5/5 87/5/5 96/5/5
f 98/5/5 87/5/5 97/5/5
f 99/4/5 88/4/5 87/4/5
f 99/5/5 87/5/5 98/5/5
f 100/5/5 82/5/5 88/5/5
f 100/4/5 88/4/5 99/4/5
f 101/4/5 90/4/5 89/4/5
f 101/5/5 89/5/5 81/5/5
f 102/5/5 91/5/5 90/5/5
f 102/4/5 90/4/5 101/4/5
f 102/5/5 92/5/5 91/5/5
f 102/5/5 93/5/5 92/5/5
f 102/5/5 94/5/5 93/5/5
f 102/5/5 95/5/5 94/5/5
f 103/5/5 95/5/5 102/5/5
f 104/5/5 95/5/5 103/5/5
f 105/4/5 96/4/5 95/4/5
f 105/5/5 95/5/5 104/5/5
f 106/5/5 97/5/5 96/5/5
f 106/4/5 96/4/5 105/4/5
f 107/4/5 98/4/5 97/4/5
f 107/5/5 97/5/5 106/5/5
f 108/5/5 99/5/5 98/5/5
f 108/4/5 98/4/5 107/4/5
f 108/5/5 100/5/5 99/5/5
f 109/5/5 101/5/5 81/5/5
f 109/5/5 103/5/5 102/5/5
f 109/5/5 102/5/5 101/5/5
f 110/4/5 104/4/5 103/4/5
f 110/5/5 103/5/5 109/5/5
f 111/5/5 107/5/5 106/5/5
f 111/4/5 104/4/5 110/4/5
f 111/5/5 105/5/5 104/5/5
f 111/5/5 108/5/5 107/5/5
f 111/5/5 106/5/5 105/5/5
f 112/5/5 82/5/5 100/5/5
f 112/5/5 108/5/5 111/5/5
f 112/5/5 100/5/5 108/5/5
f 113/6/5 110/6/5 109/6/5
f 113/6/5 111/6/5 110/6/5
f 113/6/5 112/6/5 111/6/5
f 114/6/5 112/6/5 113/6/5
f 115/2/5 114/2/5 113/2/5
f 116/2/5 114/2/5 115/2/5
f 117/7/5 116/7/5 115/7/5
f 118/7/5 116/7/5 117/7/5
f 119/3/5 118/3/5 117/3/5
f 120/3/5 118/3/5 119/3/5
f 121/7/5 120/7/5 119/7/5
f 122/7/5 120/7/5 121/7/5
f 123/7/5 120/7/5 122/7/5
f 124/7/5 120/7/5 123/7/5
f 125/7/5 120/7/5 124/7/5
f 126/7/5 120/7/5 125/7/5
f 127/7/5 120/7/5 126/7/5
f 128/7/5 120/7/5 127/7/5
f 129/7/5 120/7/5 128/7/5
f 130/7/5 120/7/5 129/7/5
f 131/7/5 120/7/5 130/7/5
f 132/7/5 120/7/5 131/7/5
f 133/7/5 120/7/5 132/7/5
f 134/7/5 120/7/5 133/7/5
f 135/7/5 120/7/5 134/7/5
f 136/7/5 120/7/5 135/7/5
f 137/7/5 120/7/5 136/7/5
f 138/7/5 120/7/5 137/7/5
f 139/7/5 121/7/5 119/7/5
f 139/1/5 122/1/5 121/1/5
f 140/7/5 123/7/5 122/7/5
f 140/1/5 122/1/5 139/1/5
f 141/1/5 124/1/5 123/1/5
f 141/7/5 123/7/5 140/7/5
f 142/7/5 125/7/5 124/7/5
f 142/1/5 124/1/5 141/1/5
f 143/1/5 126/1/5 125/1/5
f 143/7/5 125/7/5 142/7/5
f 144/7/5 127/7/5 126/7/5
f 144/1/5 126/1/5 143/1/5
f 145/1/5 128/1/5 127/1/5
f 145/7/5 127/7/5 144/7/5
f 146/7/5 129/7/5 128/7/5
f 146/1/5 128/1/5 145/1/5
f 147/1/5 130/1/5 129/1/5
f 147/7/5 129/7/5 146/7/5
f 148/7/5 131/7/5 130/7/5
f 148/1/5 130/1/5 147/1/5
f 149/1/5 132/1/5 131/1/5
f 149/7/5 131/7/5 148/7/5
f 150/7/5 133/7/5 132/7/5
f 150/1/5 132/1/5 149/1/5
f 151/1/5 134/1/5 133/1/5
f 151/7/5 133/7/5 150/7/5
f 152/7/5 135/7/5 134/7/5
f 152/1/5 134/1/5 151/1/5
f 153/1/5 136/1/5 135/1/5
f 153/7/5 135/7/5 152/7/5
f 154/7/5 137/7/5 136/7/5
f 154/1/5 136/1/5 153/1/5
f 155/1/5 138/1/5 137/1/5
f 155/7/5 137/7/5 154/7/5
f 156/1/5 138/1/5 155/1/5
f 157/7/5 154/7/5 153/7/5
f 157/7/5 139/7/5 119/7/5
f 157/7/5 156/7/5 155/7/5
f 157/7/5 155/7/5 154/7/5
f 157/7/5 153/7/5 152/7/5
f 157/7/5 152/7/5 151/7/5
f 157/7/5 151/7/5 150/7/5
f 157/7/5 150/7/5 149/7/5
f 157/7/5 149/7/5 148/7/5
f 157/7/5 148/7/5 147/7/5
f 157/7/5 147/7/5 146/7/5
f 157/7/5 146/7/5 145/7/5
f 157/7/5 145/7/5 144/7/5
f 157/7/5 144/7/5 143/7/5
f 157/7/5 143/7/5 142/7/5
f 157/7/5 142/7/5 141/7/5
f 157/7/5 141/7/5 140/7/5
f 157/7/5 140/7/5 139/7/5
f 158/7/5 156/7/5 157/7/5
f 159/3/5 158/3/5 157/3/5
f 160/3/5 158/3/5 159/3/5
f 161/7/5 160/7/5 159/7/5
f 162/7/5 160/7/5 161/7/5
f 163/2/5 162/2/5 161/2/5
f 164/2/5 162/2/5 163/2/5
f 165/6/5 164/6/5 163/6/5
f 166/6/5 164/6/5 165/6/5
f 167/5/5 166/5/5 165/5/5
f 168/5/5 166/5/5 167/5/5
f 169/5/5 166/5/5 168/5/5
f 170/5/5 166/5/5 169/5/5
f 171/5/5 166/5/5 170/5/5
f 172/5/5 166/5/5 171/5/5
f 173/5/5 167/5/5 165/5/5
f 173/4/5 168/4/5 167/4/5
f 174/5/5 169/5/5 168/5/5
f 174/4/5 168/4/5 173/4/5
f 175/5/5 169/5/5 174/5/5
f 176/5/5 169/5/5 175/5/5
f 177/5/5 169/5/5 176/5/5
f 178/5/5 169/5/5 177/5/5
f 179/4/5 170/4/5 169/4/5
f 179/5/5 169/5/5 178/5/5
f 180/5/5 171/5/5 170/5/5
f 180/4/5 170/4/5 179/4/5
f 181/5/5 171/5/5 180/5/5
f 182/5/5 171/5/5 181/5/5
f 183/4/5 172/4/5 171/4/5
f 183/5/5 171/5/5 182/5/5
f 184/5/5 166/5/5 172/5/5
f 184/4/5 172/4/5 183/4/5
f 185/5/5 166/5/5 184/5/5
f 186/5/5 166/5/5 185/5/5
f 187/5/5 174/5/5 173/5/5
f 187/5/5 175/5/5 174/5/5
f 187/4/5 176/4/5 175/4/5
f 188/5/5 177/5/5 176/5/5
f 188/4/5 176/4/5 187/4/5
f 189/4/5 178/4/5 177/4/5
f 189/5/5 177/5/5 188/5/5
f 190/5/5 179/5/5 178/5/5
f 190/4/5 178/4/5 189/4/5
f 190/5/5 180/5/5 179/5/5
f 190/5/5 181/5/5 180/5/5
f 191/4/5 182/4/5 181/4/5
f 191/5/5 181/5/5 190/5/5
f 192/5/5 183/5/5 182/5/5
f 192/4/5 182/4/5 191/4/5
f 192/5/5 185/5/5 184/5/5
f 192/5/5 184/5/5 183/5/5
f 193/4/5 186/4/5 185/4/5
f 193/5/5 185/5/5 192/5/5
f 194/5/5 166/5/5 186/5/5
f 194/4/5 186/4/5 193/4/5
f 195/5/5 191/5/5 190/5/5
f 195/5/5 190/5/5 189/5/5
f 195/5/5 194/5/5 193/5/5
f 195/5/5 187/5/5 173/5/5
f 195/5/5 192/5/5 191/5/5
f 195/5/5 193/5/5 192/5/5
f 195/5/5 189/5/5 188/5/5
f 195/5/5 188/5/5 187/5/5
f 195/5/5 173/5/5 165/5/5
f 196/5/5 166/5/5 194/5/5
f 196/5/5 194/5/5 195/5/5
f 197/6/5 196/6/5 195/6/5
f 198/6/5 196/6/5 197/6/5
f 199/2/5 198/2/5 197/2/5
f 200/2/5 198/2/5 199/2/5
f 201/2/6 202/2/6 203/2/6
f 203/2/6 202/2/6 204/2/6
f 203/6/6 204/6/6 205/6/6
f 205/6/6 204/6/6 206/6/6
f 205/5/6 206/5/6 207/5/6
f 207/5/6 206/5/6 208/5/6
f 208/5/6 206/5/6 209/5/6
f 209/5/6 206/5/6 210/5/6
f 210/5/6 206/5/6 211/5/6
f 211/5/6 206/5/6 212/5/6
f 205/5/6 207/5/6 213/5/6
f 213/5/6 207/5/6 214/5/6
f 207/4/6 208/4/6 215/4/6
f 214/5/6 207/5/6 215/5/6
f 208/5/6 209/5/6 216/5/6
f 215/4/6 208/4/6 216/4/6
f 209/4/6 210/4/6 217/4/6
f 216/5/6 209/5/6 217/5/6
f 210/5/6 211/5/6 218/5/6
f 217/4/6 210/4/6 218/4/6
f 218/5/6 211/5/6 219/5/6
f 219/5/6 211/5/6 220/5/6
f 220/5/6 211/5/6 221/5/6
f 221/5/6 211/5/6 222/5/6
f 211/4/6 212/4/6 223/4/6
f 222/5/6 211/5/6 223/5/6
f 212/5/6 206/5/6 224/5/6
f 223/4/6 212/4/6 224/4/6
f 213/4/6 214/4/6 225/4/6
f 205/5/6 213/5/6 225/5/6
f 214/5/6 215/5/6 226/5/6
f 225/4/6 214/4/6 226/4/6
f 215/5/6 216/5/6 226/5/6
f 216/5/6 217/5/6 226/5/6
f 217/5/6 218/5/6 226/5/6
f 218/5/6 219/5/6 226/5/6
f 226/5/6 219/5/6 227/5/6
f 227/5/6 219/5/6 228/5/6
f 219/4/6 220/4/6 229/4/6
f 228/5/6 219/5/6 229/5/6
f 220/5/6 221/5/6 230/5/6
f 229/4/6 220/4/6 230/4/6
f 221/4/6 222/4/6 231/4/6
f 230/5/6 221/5/6 231/5/6
f 222/5/6 223/5/6 232/5/6
f 231/4/6 222/4/6 232/4/6
f 223/5/6 224/5/6 232/5/6
f 205/5/6 225/5/6 233/5/6
f 226/5/6 227/5/6 233/5/6
f 225/5/6 226/5/6 233/5/6
f 227/4/6 228/4/6 234/4/6
f 233/5/6 227/5/6 234/5/6
f 230/5/6 231/5/6 235/5/6
f 234/4/6 228/4/6 235/4/6
f 228/5/6 229/5/6 235/5/6
f 231/5/6 232/5/6 235/5/6
f 229/5/6 230/5/6 235/5/6
f 224/5/6 206/5/6 236/5/6
f 235/5/6 232/5/6 236/5/6
f 232/5/6 224/5/6 236/5/6
f 233/6/6 234/6/6 237/6/6
f 234/6/6 235/6/6 237/6/6
f 235/6/6 236/6/6 237/6/6
f 237/6/6 236/6/6 238/6/6
f 237/2/6 238/2/6 239/2/6
f 239/2/6 238/2/6 240/2/6
f 239/7/6 240/7/6 241/7/6
f 241/7/6 240/7/6 242/7/6
f 241/3/6 242/3/6 243/3/6
f 243/3/6 242/3/6 244/3/6
f 243/7/6 244/7/6 245/7/6
f 245/7/6 244/7/6 246/7/6
f 246/7/6 244/7/6 247/7/6
f 247/7/6 244/7/6 248/7/6
f 248/7/6 244/7/6 249/7/6
f 249/7/6 244/7/6 250/7/6
f 250/7/6 244/7/6 251/7/6
f 251/7/6 244/7/6 252/7/6
f 252/7/6 244/7/6 253/7/6
f 253/7/6 244/7/6 254/7/6
f 254/7/6 244/7/6 255/7/6
f 255/7/6 244/7/6 256/7/6
f 256/7/6 244/7/6 257/7/6
f 257/7/6 244/7/6 258/7/6
f 258/7/6 244/7/6 259/7/6
f 259/7/6 244/7/6 260/7/6
f 260/7/6 244/7/6 261/7/6
f 261/7/6 244/7/6 262/7/6
f 243/7/6 245/7/6 263/7/6
f 245/1/6 246/1/6 263/1/6
f 246/7/6 247/7/6 264/7/6
f 263/1/6 246/1/6 264/1/6
f 247/1/6 248/1/6 265/1/6
f 264/7/6 247/7/6 265/7/6
f 248/7/6 249/7/6 266/7/6
f 265/1/6 248/1/6 266/1/6
f 249/1/6 250/1/6 267/1/6
f 266/7/6 249/7/6 267/7/6
f 250/7/6 251/7/6 268/7/6
f 267/1/6 250/1/6 268/1/6
f 251/1/6 252/1/6 269/1/6
f 268/7/6 251/7/6 269/7/6
f 252/7/6 253/7/6 270/7/6
f 269/1/6 252/1/6 270/1/6
f 253/1/6 254/1/6 271/1/6
f 270/7/6 253/7/6 271/7/6
f 254/7/6 255/7/6 272/7/6
f 271/1/6 254/1/6 272/1/6
f 255/1/6 256/1/6 273/1/6
f 272/7/6 255/7/6 273/7/6
f 256/7/6 257/7/6 274/7/6
f 273/1/6 256/1/6 274/1/6
f 257/1/6 258/1/6 275/1/6
f 274/7/6 257/7/6 275/7/6
f 258/7/6 259/7/6 276/7/6
f 275/1/6 258/1/6 276/1/6
f 259/1/6 260/1/6 277/1/6
f 276/7/6 259/7/6 277/7/6
f 260/7/6 261/7/6 278/7/6
f 277/1/6 260/1/6 278/1/6
f 261/1/6 262/1/6 279/1/6
f 278/7/6 261/7/6 279/7/6
f 279/1/6 262/1/6 280/1/6
f 277/7/6 278/7/6 281/7/6
f 243/7/6 263/7/6 281/7/6
f 279/7/6 280/7/6 281/7/6
f 278/7/6 279/7/6 281/7/6
f 276/7/6 277/7/6 281/7/6
f 275/7/6 276/7/6 281/7/6
f 274/7/6 275/7/6 281/7/6
f 273/7/6 274/7/6 281/7/6
f 272/7/6 273/7/6 281/7/6
f 271/7/6 272/7/6 281/7/6
f 270/7/6 271/7/6 281/7/6
f 269/7/6 270/7/6 281/7/6
f 268/7/6 269/7/6 281/7/6
f 267/7/6 268/7/6 281/7/6
f 266/7/6 267/7/6 281/7/6
f 265/7/6 266/7/6 281/7/6
f 264/7/6 265/7/6 281/7/6
f 263/7/6 264/7/6 281/7/6
f 281/7/6 280/7/6 282/7/6
f 281/3/6 282/3/6 283/3/6
f 283/3/6 282/3/6 284/3/6
f 283/7/6 284/7/6 285/7/6
f 285/7/6 284/7/6 286/7/6
f 285/2/6 286/2/6 287/2/6
f 287/2/6 286/2/6 288/2/6
f 287/6/6 288/6/6 289/6/6
f 289/6/6 288/6/6 290/6/6
f 289/5/6 290/5/6 291/5/6
f 291/5/6 290/5/6 292/5/6
f 292/5/6 290/5/6 293/5/6
f 293/5/6 290/5/6 294/5/6
f 294/5/6 290/5/6 295/5/6
f 295/5/6 290/5/6 296/5/6
f 289/5/6 291/5/6 297/5/6
f 291/4/6 292/4/6 297/4/6
f 292/5/6 293/5/6 298/5/6
f 297/4/6 292/4/6 298/4/6
f 298/5/6 293/5/6 299/5/6
f 299/5/6 293/5/6 300/5/6
f 300/5/6 293/5/6 301/5/6
f 301/5/6 293/5/6 302/5/6
f 293/4/6 294/4/6 303/4/6
f 302/5/6 293/5/6 303/5/6
f 294/5/6 295/5/6 304/5/6
f 303/4/6 294/4/6 304/4/6
f 304/5/6 295/5/6 305/5/6
f 305/5/6 295/5/6 306/5/6
f 295/4/6 296/4/6 307/4/6
f 306/5/6 295/5/6 307/5/6
f 296/5/6 290/5/6 308/5/6
f 307/4/6 296/4/6 308/4/6
f 308/5/6 290/5/6 309/5/6
f 309/5/6 290/5/6 310/5/6
f 297/5/6 298/5/6 311/5/6
f 298/5/6 299/5/6 311/5/6
f 299/4/6 300/4/6 311/4/6
f 300/5/6 301/5/6 312/5/6
f 311/4/6 300/4/6 312/4/6
f 301/4/6 302/4/6 313/4/6
f 312/5/6 301/5/6 313/5/6
f 302/5/6 303/5/6 314/5/6
f 313/4/6 302/4/6 314/4/6
f 303/5/6 304/5/6 314/5/6
f 304/5/6 305/5/6 314/5/6
f 305/4/6 306/4/6 315/4/6
f 314/5/6 305/5/6 315/5/6
f 306/5/6 307/5/6 316/5/6
f 315/4/6 306/4/6 316/4/6
f 308/5/6 309/5/6 316/5/6
f 307/5/6 308/5/6 316/5/6
f 309/4/6 310/4/6 317/4/6
f 316/5/6 309/5/6 317/5/6
f 310/5/6 290/5/6 318/5/6
f 317/4/6 310/4/6 318/4/6
f 314/5/6 315/5/6 319/5/6
f 313/5/6 314/5/6 319/5/6
f 317/5/6 318/5/6 319/5/6
f 297/5/6 311/5/6 319/5/6
f 315/5/6 316/5/6 319/5/6
f 316/5/6 317/5/6 319/5/6
f 312/5/6 313/5/6 319/5/6
f 311/5/6 312/5/6 319/5/6
f 289/5/6 297/5/6 319/5/6
f 318/5/6 290/5/6 320/5/6
f 319/5/6 318/5/6 320/5/6
f 319/6/6 320/6/6 321/6/6
f 321/6/6 320/6/6 322/6/6
f 321/2/6 322/2/6 323/2/6
f 323/2/6 322/2/6 324/2/6
